<?xml version="1.0" encoding="UTF-8"?>
<svg width="1269px" height="371px" viewBox="0 0 1269 371" version="1.1" xmlns="http://www.w3.org/2000/svg" xmlns:xlink="http://www.w3.org/1999/xlink">
    <!-- Generator: Sketch 50.2 (55047) - http://www.bohemiancoding.com/sketch -->
    <title>Always Online@1x</title>
    <desc>Created with Sketch.</desc>
    <defs></defs>
    <g id="Page-1" stroke="none" stroke-width="1" fill="none" fill-rule="evenodd">
        <g id="Product-Detail-Farsi-1" transform="translate(-71.000000, -814.000000)" fill="#FFFFFF">
            <path d="M1219.24059,1132.69948 C1213.31588,1138.07498 1207.05688,1141.61184 1200.46353,1143.31013 C1187.2086,1146.5343 1177.89447,1145.19092 1172.52085,1139.27994 C1168.04283,1134.44368 1166.87857,1127.99543 1169.02801,1119.935 C1169.56538,1117.06907 1171.35655,1111.06862 1174.40161,1101.93347 C1177.08842,1095.306 1178.96915,1089.48467 1180.04388,1084.46929 C1180.223,1083.39457 1180.35734,1082.40942 1180.4469,1081.51382 C1180.53646,1080.61821 1180.58124,1079.85696 1180.58124,1079.23004 C1180.58124,1078.60312 1180.53646,1078.11054 1180.4469,1077.7523 C1180.35734,1077.39406 1180.223,1077.12538 1180.04388,1076.94626 L1180.04388,1076.67758 C1179.14827,1075.42374 1176.37195,1074.79682 1171.71481,1074.79682 C1158.28076,1074.79682 1136.87616,1097.27613 1107.50038,1142.23541 C1105.53005,1145.10134 1102.84328,1146.53429 1099.43999,1146.53429 C1098.00702,1146.53429 1096.66364,1146.17605 1095.40979,1145.45957 C1094.01925,1144.7643 1092.89032,1143.96576 1092.02301,1143.06396 C1084.58837,1147.8852 1076.76136,1150.2958 1068.54183,1150.2958 C1063.70557,1150.2958 1059.04851,1149.40021 1054.57049,1147.609 C1049.48874,1145.14513 1045.53235,1141.75457 1042.70124,1137.43726 C1039.20148,1140.56773 1035.32143,1143.24182 1031.06102,1145.45957 C1024.52312,1148.86286 1017.76142,1150.56448 1010.77571,1150.56448 L1010.50703,1150.56448 C998.505948,1150.56448 989.729168,1146.803 984.176428,1139.27994 C982.244422,1136.57513 980.790935,1133.43813 979.815967,1129.86892 C973.036716,1136.8494 965.802924,1141.32978 958.114504,1143.31013 C944.859576,1146.5343 935.545442,1145.19092 930.171822,1139.27994 C925.693806,1134.44368 924.52954,1127.99543 926.678987,1119.935 C927.216349,1117.06907 929.007529,1111.06862 932.05258,1101.93347 C934.73939,1095.306 936.620128,1089.48467 937.694852,1084.46929 C937.873973,1083.39457 938.008311,1082.40942 938.097872,1081.51382 C938.187432,1080.61821 938.232211,1079.85696 938.232211,1079.23004 C938.232211,1078.60312 938.187432,1078.11054 938.097872,1077.7523 C938.008311,1077.39406 937.873973,1077.12538 937.694852,1076.94626 L937.694852,1076.67758 C936.799249,1075.42374 934.02292,1074.79682 929.365784,1074.79682 C915.931735,1074.79682 894.527138,1097.27613 865.151352,1142.23541 C863.181025,1145.10134 860.494256,1146.53429 857.090963,1146.53429 C855.657998,1146.53429 854.314613,1146.17605 853.060769,1145.45957 C848.045391,1142.95188 846.433329,1139.10084 848.224535,1133.90634 C848.582777,1133.18986 850.01572,1129.11493 852.52341,1121.68142 C855.031099,1114.24791 857.762648,1104.93378 860.718138,1093.73874 C863.673629,1082.5437 865.420029,1073.72214 865.957391,1067.2738 C866.315632,1064.76611 867.479899,1062.66147 869.450226,1060.95982 C871.420553,1059.25818 873.749087,1058.49693 876.435897,1058.67605 C878.943586,1059.03429 881.048222,1060.19855 882.749868,1062.16888 C884.451514,1064.13921 885.212765,1066.46774 885.033645,1069.15455 C884.496283,1073.99081 883.511134,1079.9017 882.078169,1086.88741 C887.451788,1080.43906 892.55665,1075.06553 897.392908,1070.76663 C908.677509,1060.73587 919.335027,1055.72057 929.365784,1055.72057 C940.829505,1055.72057 948.800254,1059.03425 953.278271,1065.66172 C957.039804,1071.39358 958.024953,1078.82697 956.233747,1087.96213 C955.696385,1091.54454 953.636528,1098.44058 950.054115,1108.65046 C947.904667,1114.74056 946.471724,1119.03939 945.755241,1121.54708 C945.217879,1123.69653 944.949202,1125.21903 944.949202,1126.11463 C946.919529,1126.11463 949.785417,1125.66684 953.54695,1124.77124 C960.353535,1123.15915 967.249576,1117.06914 974.235282,1106.50102 C977.658428,1101.2848 980.413995,1096.14282 982.502049,1091.07495 C983.232918,1088.42236 984.059724,1085.68311 984.982467,1082.85721 C991.789052,1062.25834 1000.56583,1040.76418 1011.31307,1018.3741 C1022.41855,994.551056 1033.07607,975.474993 1043.28595,961.145341 C1047.76396,954.696998 1052.42103,949.860813 1057.25729,946.636641 C1063.88475,942.875108 1069.8852,942.427313 1075.25882,945.293243 C1082.24453,948.338294 1085.91645,955.323895 1086.27469,966.250254 C1086.63293,975.743649 1084.84175,985.953373 1080.90109,996.879732 C1075.88572,1013.53795 1067.46717,1030.10636 1055.64521,1046.58546 C1040.41995,1067.54258 1023.40375,1081.96158 1004.59608,1089.84288 C1003.8796,1090.20113 1003.25268,1090.38024 1002.71532,1090.38024 C996.62522,1109.54615 995.640072,1122.08441 999.759847,1127.99539 C1001.37193,1130.32396 1004.95429,1131.48823 1010.50703,1131.48823 L1010.77571,1131.48823 C1017.40318,1131.48823 1023.85142,1129.15969 1030.12064,1124.50256 C1032.09097,1123.06959 1033.88215,1121.54709 1035.49424,1119.935 C1036.46544,1118.9638 1037.40413,1117.87884 1038.31031,1116.68011 C1039.84087,1099.52499 1050.81361,1076.51845 1071.22863,1047.66018 C1072.66159,1045.51073 1074.72145,1044.21213 1077.40826,1043.76433 C1080.09507,1043.31653 1082.51316,1043.89866 1084.66261,1045.51075 C1086.81206,1046.94371 1088.06588,1048.95879 1088.42412,1051.55604 C1088.78237,1054.15329 1088.24501,1056.5266 1086.81205,1058.67605 C1080.3637,1067.8112 1074.99016,1076.18496 1070.69127,1083.79759 C1068.36846,1087.9109 1066.39865,1091.60583 1064.78184,1094.88239 C1065.58714,1095.82238 1066.21355,1096.91889 1066.66107,1098.17195 C1067.55668,1100.67964 1067.37756,1103.09773 1066.12372,1105.4263 C1064.15339,1109.36696 1061.82485,1113.39711 1059.13804,1117.51689 C1058.54771,1118.42207 1057.90765,1119.36183 1057.21788,1120.33619 C1057.17058,1121.32414 1057.18372,1122.13079 1057.25729,1122.75614 C1057.43641,1124.27866 1057.79464,1125.57727 1058.33201,1126.65199 C1059.94409,1129.69704 1063.34733,1131.21955 1068.54183,1131.21955 C1080.4746,1131.21955 1091.03529,1122.20404 1100.22414,1104.17279 C1101.1476,1100.89816 1102.09527,1097.42015 1103.06716,1093.73874 C1106.02265,1082.5437 1107.76906,1073.72214 1108.30642,1067.2738 C1108.66466,1064.76611 1109.82893,1062.66147 1111.79925,1060.95982 C1113.76958,1059.25818 1116.09811,1058.49693 1118.78492,1058.67605 C1121.29261,1059.03429 1123.39725,1060.19855 1125.09889,1062.16888 C1126.80054,1064.13921 1127.56179,1066.46774 1127.38267,1069.15455 C1126.84531,1073.99081 1125.86016,1079.9017 1124.42719,1086.88741 C1129.80081,1080.43906 1134.90568,1075.06553 1139.74193,1070.76663 C1151.02653,1060.73587 1161.68405,1055.72057 1171.71481,1055.72057 C1183.17853,1055.72057 1191.14928,1059.03425 1195.6273,1065.66172 C1199.38883,1071.39358 1200.37398,1078.82697 1198.58277,1087.96213 C1198.04541,1091.54454 1195.98555,1098.44058 1192.40314,1108.65046 C1190.25369,1114.74056 1188.82075,1119.03939 1188.10427,1121.54708 C1187.56691,1123.69653 1187.29823,1125.21903 1187.29823,1126.11463 C1189.26856,1126.11463 1192.13444,1125.66684 1195.89598,1124.77124 C1202.70256,1123.15915 1209.5986,1117.06914 1216.58431,1106.50102 C1217.65413,1104.87081 1218.65876,1103.24785 1219.59817,1101.63214 C1222.65671,1092.39553 1228.0108,1082.55489 1235.66056,1072.11003 C1247.48252,1055.81005 1259.84166,1045.60033 1272.73835,1041.48055 C1283.12735,1038.4355 1291.99369,1039.33109 1299.33763,1044.16735 C1303.45741,1046.85416 1306.3233,1050.70519 1307.93538,1055.72057 C1309.72659,1060.19859 1310.08482,1065.30345 1309.0101,1071.03531 C1307.21889,1079.99134 1300.90499,1088.76812 1290.06819,1097.36591 C1279.23139,1105.9637 1261.09569,1112.68063 1235.66056,1117.51689 C1235.30232,1120.74106 1235.83967,1123.60694 1237.27264,1126.11463 C1238.88473,1129.33881 1241.66105,1131.80168 1245.60171,1133.50332 C1249.54236,1135.20497 1253.48296,1136.05578 1257.42361,1136.05578 C1266.37964,1136.05578 1276.09679,1132.78688 1286.57535,1126.24897 C1297.05391,1119.71107 1305.06944,1109.99392 1310.62218,1097.09723 C1311.6969,1094.58954 1313.4433,1092.84314 1315.86143,1091.85798 C1318.27956,1090.87282 1320.74243,1090.9176 1323.25012,1091.99232 C1325.57869,1092.88792 1327.23553,1094.54477 1328.22069,1096.96289 C1329.20586,1099.38102 1329.25064,1101.84389 1328.35503,1104.35158 C1321.19021,1121.18892 1310.17445,1134.17498 1295.30744,1143.31013 C1282.94811,1151.19144 1270.3203,1155.13203 1257.42361,1155.13203 C1250.25879,1155.13203 1243.13885,1153.47519 1236.06358,1150.16146 C1228.98832,1146.84773 1223.74911,1141.78765 1220.34582,1134.98106 C1219.94624,1134.23402 1219.57783,1133.47349 1219.24059,1132.69948 Z M669.571169,927.150587 C658.73853,940.517467 643.507216,952.01692 623.877045,961.649116 C620.831994,968.993062 617.428752,975.799545 613.667219,982.068768 C611.517771,985.65118 609.234017,989.18876 606.815888,992.681613 C604.397759,996.174466 601.307975,1000.11506 597.546441,1004.50352 C593.784907,1008.89197 589.620415,1012.65345 585.052838,1015.78806 C580.485262,1018.92267 575.962533,1020.93775 571.484517,1021.83335 C570.588914,1022.19159 569.15597,1022.37071 567.185643,1022.37071 C562.528506,1022.37071 558.498352,1020.93777 555.095059,1018.07184 C549.72144,1013.95206 547.482465,1008.13073 548.378069,1000.60766 C549.094551,993.442836 552.811249,985.875102 559.528273,977.904233 C566.245298,969.933364 574.260826,963.619456 583.5751,958.962319 C584.291583,958.604078 586.082762,957.798047 588.948693,956.544203 C591.814623,955.290358 594.143157,954.305209 595.934363,953.588727 C596.650846,953.230485 598.576364,952.379675 601.710975,951.03627 C604.845586,949.692865 607.218899,948.573378 608.830985,947.677775 C610.443071,943.737121 612.502928,937.826228 615.010617,929.944919 L610.443063,933.169075 C599.874945,940.333901 588.590513,943.91626 576.58943,943.91626 C569.096452,943.91626 563.646998,940.362499 560.240907,933.254872 C556.456531,938.126442 552.591818,942.307148 548.646748,945.797017 C539.511595,954.215688 529.301871,958.42496 518.01727,958.42496 C509.061238,958.42496 502.70255,955.559073 498.941017,949.827212 C498.045414,947.856885 497.328942,946.065705 496.79158,944.453619 C483.536652,955.021738 471.714866,960.574394 461.325869,961.111756 L459.98247,961.111756 C451.742921,961.111756 444.936438,958.15631 439.562819,952.245329 C434.525619,946.735891 432.116815,940.258194 432.33636,932.812084 C427.11656,934.059242 422.450174,933.461759 418.337128,931.019638 C413.32175,928.511949 409.202037,923.227969 405.977865,915.16754 C405.798744,915.525781 404.634477,917.585638 402.48503,921.347171 C387.438895,944.811976 371.318279,956.544203 354.122696,956.544203 C348.569956,956.544203 344.271125,954.215669 341.226074,949.558532 C338.181023,945.080516 336.389843,938.811387 335.852482,930.750958 C334.419516,932.542165 333.344809,933.79599 332.628326,934.512473 C319.91076,948.663004 308.357651,955.917282 297.968654,956.275523 C288.833501,956.275523 281.937459,951.976692 277.280322,943.378901 C276.801333,942.53588 276.362307,941.659046 275.963245,940.748398 C272.169561,944.337687 267.906715,947.363941 263.174642,949.827212 C256.636738,953.230504 249.875035,954.932125 242.88933,954.932125 L242.62065,954.932125 C230.619567,954.932125 221.842786,951.170648 216.290046,943.64758 C215.259877,942.205343 214.365757,940.640226 213.607688,938.952228 C203.60891,951.396741 191.875162,957.618921 178.406218,957.618921 C169.091945,957.618921 162.016785,953.678326 157.180528,945.797017 C151.806908,937.199226 149.657493,923.944497 150.732217,906.032432 C151.269579,898.509365 152.165168,891.165529 153.419013,884.000703 C145.358584,882.567737 132.103855,880.507881 113.654428,877.821071 C89.8313814,915.794649 75.2332675,944.095287 69.8596481,962.723834 C68.4266829,967.380971 65.3816775,969.709505 60.7245407,969.709505 C59.4706961,969.709505 58.5751063,969.619946 58.0377444,969.440825 C55.5300553,968.724342 53.6045372,967.20184 52.2611323,964.873271 C50.9177275,962.544703 50.604271,960.12661 51.3207536,957.618921 C56.8734937,938.990374 70.7551358,911.495767 92.9660962,875.134275 C90.1001659,874.776034 87.6820734,874.417798 85.7117462,874.059556 C83.7414191,873.701315 82.1741369,873.432638 81.0098527,873.253517 C79.8455685,873.074397 78.2782863,872.984838 76.3079592,872.984838 C73.6211495,872.984838 71.3373954,872.044469 69.4566286,870.163702 C67.5758618,868.282935 66.6354925,865.999181 66.6354925,863.312371 C66.6354925,860.804682 67.5758618,858.610487 69.4566286,856.72972 C71.3373954,854.848953 73.6211495,853.908584 76.3079592,853.908584 C78.0991657,853.908584 87.4132997,854.983292 104.250641,857.13274 C105.862727,854.804171 108.280819,851.132253 111.504991,846.116875 C126.551125,823.547673 141.597034,803.665579 156.643168,786.469997 C173.480509,767.304088 187.989064,754.228476 200.169268,747.242771 C204.468164,744.914203 208.229641,745.361998 211.453813,748.586169 C214.857105,751.63122 215.484018,755.303139 213.33457,759.602034 C199.004918,788.97782 187.272692,821.935525 178.137539,858.476138 C173.301281,878.53765 170.524953,894.837385 169.80847,907.37583 C168.912867,921.705482 170.077134,931.109175 173.301306,935.587192 C174.55515,937.557519 176.256771,938.542667 178.406218,938.542667 C187.720492,938.542667 196.139036,932.273539 203.662104,919.735093 C205.45331,916.690042 207.110151,913.465919 208.632677,910.062627 C210.155202,906.659334 211.185131,903.972565 211.722493,902.002238 L212.528531,899.046762 C212.983616,897.453967 213.727745,896.077974 214.76093,894.918767 C215.455567,892.429776 216.233952,889.86514 217.096085,887.224858 C223.90267,866.625984 232.67945,845.131828 243.426689,822.741747 C254.532169,798.918701 265.189688,779.842638 275.399565,765.512986 C279.877581,759.064643 284.534648,754.228458 289.370906,751.004286 C295.99837,747.242752 301.998821,746.794957 307.372441,749.660888 C314.358146,752.705939 318.030064,759.691539 318.388306,770.617899 C318.746547,780.111293 316.955367,790.321017 313.014713,801.247377 C307.999335,817.905597 299.580791,834.474009 287.758828,850.953108 C272.533573,871.910224 255.517366,886.32922 236.709698,894.210529 C235.993216,894.56877 235.366303,894.747888 234.828941,894.747888 C228.738839,913.913797 227.75369,926.452055 231.873465,932.363036 C233.485551,934.691604 237.06791,935.855871 242.62065,935.855871 L242.88933,935.855871 C249.516794,935.855871 255.96504,933.527338 262.234263,928.870201 C264.20459,927.437236 265.99577,925.914733 267.607856,924.302647 C269.219941,922.690561 270.742444,920.765043 272.175409,918.526035 C272.655858,917.775335 273.090999,917.085044 273.480834,916.455162 C273.694526,914.650238 273.975863,912.788073 274.324846,910.868666 C277.011656,897.255496 283.191226,883.015618 292.863741,868.148604 C294.117585,865.820036 296.043103,864.387092 298.640353,863.84973 C301.237602,863.312368 303.700474,863.760163 306.029043,865.193129 C308.17849,866.626094 309.521875,868.641171 310.059237,871.23842 C310.596599,873.83567 310.148804,876.208983 308.715839,878.35843 C303.92648,885.854818 300.165975,893.048549 297.434292,899.939693 C297.985692,900.7148 298.432491,901.581433 298.774693,902.539597 C299.670296,905.047286 299.491178,907.465379 298.237333,909.793947 C296.512814,913.242987 294.513888,916.760588 292.240511,920.346832 C291.61766,926.61344 292.273201,931.335289 294.207139,934.512473 C294.744501,935.587197 295.998327,936.482787 297.968654,937.199269 L304.954324,933.706434 C309.611461,930.661383 314.178969,926.54167 318.656985,921.347171 C328.508621,910.779053 336.47937,897.076529 342.569472,880.239188 L345.793628,870.029362 C346.689231,867.521673 348.346072,865.730493 350.764201,864.655769 C353.18233,863.581045 355.555643,863.401927 357.884211,864.11841 C360.21278,864.834893 362.003959,866.357395 363.257804,868.685964 C364.511648,871.014532 364.780325,873.432625 364.063843,875.940314 C362.630877,880.597451 361.466611,884.000692 360.571007,886.15014 C357.884198,895.464413 356.182577,904.778547 355.466094,914.092821 C354.391371,925.198301 354.660048,932.989933 356.272133,937.467949 C365.944648,936.214104 375.975254,927.437324 386.364252,911.137345 C390.663147,904.330761 395.141097,895.733098 399.798233,885.344101 C399.260871,878.000154 399.260871,871.820585 399.798233,866.805206 C400.872957,859.64038 403.559727,854.983313 407.858622,852.833866 C412.336639,850.147056 416.456352,850.594851 420.217885,854.177264 C425.949746,859.192642 426.934895,867.25295 423.173361,878.35843 C422.994241,878.716672 422.501666,880.015277 421.695623,882.254285 C420.88958,884.493293 420.128329,886.418811 419.411846,888.030897 C421.203053,902.181428 423.800263,910.958208 427.203556,914.361501 C427.920038,914.361501 428.905187,914.003265 430.159032,913.286782 C434.457927,911.137335 439.294112,905.853355 444.667732,897.434684 C445.576311,895.958243 446.718914,894.841866 448.095557,894.085543 C448.809362,893.061504 449.547511,892.028447 450.310004,890.986373 C459.803398,878.627048 469.475768,868.865119 479.327404,861.700293 C487.566954,855.789312 496.209395,852.162173 505.254988,850.818768 C514.300581,849.475364 521.957874,850.773969 528.227096,854.714623 C536.645767,860.088242 539.780331,868.23811 537.630883,879.164469 C537.272642,881.493038 536.153155,883.373776 534.272388,884.806742 C532.391621,886.239707 530.286985,886.86662 527.958417,886.687499 C530.286985,887.762223 532.078165,889.374284 533.332009,891.523732 C535.839698,897.076472 533.06337,905.047222 525.002941,915.436219 C524.107338,916.690064 522.226599,918.929038 519.360669,922.15321 C519.181548,922.690572 518.688974,923.989177 517.882931,926.049065 C517.076888,928.108952 516.494754,929.676234 516.136513,930.750958 C515.061789,935.228974 514.703553,938.005303 515.061795,939.080027 C515.240915,939.259147 516.226064,939.348706 518.01727,939.348706 C531.272198,939.348706 544.706046,926.452213 558.319215,900.65884 C558.888658,899.601302 559.587405,898.700786 560.415459,897.957289 C564.126434,885.348166 570.413303,873.441725 579.276226,862.237653 C580.888312,860.267326 583.037727,859.103059 585.724537,858.744817 C588.411347,858.386576 590.73988,859.103048 592.710208,860.894254 C594.680535,862.50634 595.844801,864.610976 596.203043,867.208226 C596.561284,869.805475 595.844812,872.178788 594.053606,874.328236 C585.455815,884.896354 579.903158,896.180786 577.395469,908.181869 C575.783383,916.421419 575.783383,921.974076 577.395469,924.840006 C592.978965,924.481765 608.472669,913.734687 623.877045,892.598451 C624.235286,890.628124 624.593522,887.851795 624.951763,884.269382 C626.563849,871.910058 630.683562,864.924457 637.311026,863.312371 C642.147284,862.058527 645.99832,863.49147 648.86425,867.611245 C651.371939,871.372779 651.909293,876.388082 650.476328,882.657305 C649.043363,888.030924 646.356593,893.67314 642.415939,899.584121 L641.87858,900.12148 C639.550011,912.122564 636.773683,923.406996 633.549511,933.975114 C648.058284,924.66084 658.357567,913.107732 664.447669,899.315442 C665.522393,896.986873 667.313572,895.330032 669.821261,894.344868 C672.32895,893.359705 674.747043,893.404484 677.075611,894.479208 C677.167332,894.521541 677.25801,894.564985 677.347646,894.60954 C688.269819,882.772901 696.329045,871.534527 701.525458,860.894254 C702.600181,859.103048 703.406212,857.311868 703.943574,855.520662 C703.943574,855.162421 703.898795,854.625067 703.809234,853.908584 C703.719674,853.192102 703.674895,852.654748 703.674895,852.296506 C703.316653,845.489922 705.018274,840.832855 708.779808,838.325166 C713.257824,835.100994 717.377537,835.280112 721.139071,838.862525 C725.258845,842.265817 726.154435,848.355828 723.825867,857.13274 C723.825867,857.490981 724.45278,859.461279 725.706624,863.043692 C741.648362,903.166717 744.066454,931.467355 732.960974,947.946455 C726.691752,957.439849 716.392469,962.186475 702.062817,962.186475 C685.225476,962.186475 673.582808,956.096464 667.134465,943.91626 C665.88062,941.408571 665.656723,938.945699 666.462766,936.52757 C667.268809,934.109442 668.836091,932.273482 671.164659,931.019638 C673.493228,929.765793 675.91132,929.541896 678.419009,930.347939 C680.926699,931.153982 682.807437,932.721264 684.061282,935.049832 C684.956885,936.661918 685.762916,937.915744 686.479398,938.811347 C687.195881,939.70695 688.897502,940.64732 691.584311,941.632483 C694.271121,942.617647 697.763921,943.110221 702.062817,943.110221 C709.765005,943.110221 714.780308,941.139924 717.108876,937.199269 C721.04953,931.646529 721.766002,921.705482 719.258313,907.37583 C717.825348,899.494522 715.407255,890.717742 712.003963,881.045227 C709.496274,885.344122 706.451269,889.822071 702.868856,894.479208 C695.166668,904.151723 685.494298,914.271888 673.851456,924.840006 C672.559465,926.014543 671.132709,926.784734 669.571169,927.150587 Z M125.207652,860.088216 C130.760392,860.983819 141.328352,862.774998 156.911848,865.461808 C157.090969,864.387084 157.493984,862.551125 158.120906,859.953876 C158.747829,857.356626 159.240403,855.341549 159.598644,853.908584 C165.330505,831.697624 172.226547,809.934791 180.286976,788.619434 C175.98808,793.276571 172.853516,796.769371 170.883189,799.09794 C157.44914,814.323195 142.940585,833.578376 127.357089,856.86406 C126.282365,858.297025 125.565893,859.371733 125.207652,860.088216 Z M298.774693,767.931103 C296.446124,769.543188 293.848914,772.319517 290.982983,776.260171 C275.399487,798.292011 259.816224,829.010741 244.232728,868.417284 C255.87557,860.356855 266.130073,849.564998 274.996545,836.041389 C283.863017,822.51778 290.535162,808.949594 295.013178,795.336425 C297.879108,786.917754 299.312052,779.842595 299.312052,774.110734 C299.312052,771.423924 299.132934,769.364068 298.774693,767.931103 Z M511.837639,869.492003 C504.851934,869.492003 497.776774,872.089213 490.611948,877.283712 C482.193278,883.373814 473.729954,891.926697 465.221723,902.942617 C456.713492,913.958536 452.101205,923.407009 451.384722,931.288317 C451.205602,934.69161 451.922074,937.378379 453.534159,939.348706 C455.325366,941.319034 457.653899,942.214623 460.51983,942.035503 C471.267069,941.498141 485.417388,931.467535 502.971211,911.943384 C503.329453,911.406022 503.732468,910.644771 504.18027,909.659607 C504.628071,908.674444 504.941528,907.913192 505.120648,907.37583 L506.732726,903.882995 C508.882174,899.046738 510.94203,895.37482 512.912358,892.86713 C516.31565,888.389114 519.987568,886.15014 523.928222,886.15014 L524.734261,886.15014 C519.898004,884.179813 517.927706,880.597453 518.823309,875.402954 C519.360671,872.716145 519.002435,871.193642 517.748591,870.835401 C516.315626,869.939798 514.345328,869.492003 511.837639,869.492003 Z M567.991682,1003.29446 C571.215853,1002.7571 575.380346,999.935988 580.485284,994.83105 C585.590223,989.726111 590.829423,982.874849 596.203043,974.277058 L591.904169,976.157816 C584.381101,979.919349 577.843296,985.292888 572.290556,992.278593 C568.887263,996.75661 567.185643,1000.42853 567.185643,1003.29446 L567.991682,1003.29446 Z M747.738354,1169.64073 C728.751565,1169.64073 713.616097,1161.8491 702.331496,1146.26561 C693.554585,1133.72716 688.360164,1117.96478 686.748078,1098.97799 C685.673354,1081.24505 687.733211,1064.67664 692.927709,1049.27226 C702.779345,1019.71735 718.720844,994.372161 740.752684,973.235925 C752.574646,961.951324 765.112904,953.801457 778.367832,948.786078 C793.413966,943.233338 808.280757,942.337748 822.96865,946.099282 C825.297219,946.815765 827.133178,948.159149 828.476583,950.129477 C829.819988,952.099804 830.312562,954.338778 829.954321,956.846467 C834.790578,957.56295 839.268527,960.697514 843.388302,966.250254 C850.374007,975.743649 854.672838,988.81926 856.284924,1005.47748 C858.613493,1024.28515 856.553636,1043.62989 850.105293,1063.51228 C840.432778,1093.78367 828.163197,1117.78548 813.296184,1135.51842 C804.877513,1146.08654 795.294702,1154.23641 784.547463,1159.96827 C773.262862,1166.41661 760.993282,1169.64073 747.738354,1169.64073 Z M804.967115,962.757419 C794.936359,962.757419 784.771414,965.668086 774.471977,971.489507 C764.17254,977.310928 754.992744,984.878662 746.932315,994.192936 C738.871886,1003.50721 731.751947,1013.44826 725.572284,1024.01637 C719.392622,1034.58449 714.511658,1045.06289 710.929245,1055.45189 C706.272108,1068.88594 704.615267,1083.21538 705.958671,1098.44063 C707.302076,1113.66589 711.287451,1125.93547 717.914915,1135.24974 C725.258862,1145.45962 735.199908,1150.56448 747.738354,1150.56448 C766.725143,1150.56448 783.741349,1141.51902 798.787484,1123.42784 C812.221532,1106.94874 823.237287,1085.09635 831.835078,1057.87001 C838.283421,1038.16674 839.805924,1019.09067 836.402632,1000.64125 C834.074063,987.923681 830.760381,979.684255 826.461485,975.922721 C818.759298,976.460083 811.236343,981.564945 803.892397,991.23746 C795.473726,1002.34294 792.697398,1012.4631 795.563328,1021.59826 C796.279811,1024.10595 795.966354,1026.52404 794.622949,1028.85261 C793.279544,1031.18118 791.354026,1032.70368 788.846337,1033.42016 C786.517769,1034.13664 784.189235,1033.86797 781.860667,1032.61412 C779.532098,1031.36028 777.920037,1029.47954 777.024434,1026.97185 C772.725538,1011.7466 776.576574,995.984215 788.577658,979.684236 C794.309518,972.340289 800.399529,966.698073 806.847872,962.757419 L804.967115,962.757419 Z M1066.66107,963.563458 C1064.33251,965.175544 1061.7353,967.951872 1058.86937,971.892527 C1043.28587,993.924366 1027.70261,1024.6431 1012.11911,1064.04964 C1023.76195,1055.98921 1034.01646,1045.19735 1042.88293,1031.67374 C1051.7494,1018.15014 1058.42154,1004.58195 1062.89956,990.96878 C1065.76549,982.55011 1067.19843,975.47495 1067.19843,969.743089 C1067.19843,967.05628 1067.01932,964.996423 1066.66107,963.563458 Z M1095.94715,1023.47902 C1093.97683,1023.47902 1092.18565,1022.94166 1090.57356,1021.86694 C1087.88675,1020.07573 1086.54337,1017.47852 1086.54337,1014.07523 C1086.54337,1012.1049 1087.08072,1010.22416 1088.15544,1008.43296 L1088.6928,1007.8956 L1089.49884,1006.5522 C1091.11093,1004.40275 1093.21556,1003.10415 1095.81281,1002.65634 C1098.41006,1002.20854 1100.78338,1002.70112 1102.93282,1004.13408 C1105.08227,1005.56705 1106.38088,1007.58212 1106.82868,1010.17937 C1107.27648,1012.77662 1106.78391,1015.14994 1105.35094,1017.29938 L1104.27622,1018.91146 L1104.00754,1019.44882 C1102.21634,1022.13563 1099.52957,1023.47902 1095.94715,1023.47902 Z M1283.75422,1058.94473 C1282.14213,1058.94473 1280.26139,1059.2134 1278.11194,1059.75077 C1269.33503,1062.6167 1260.37913,1070.40833 1251.24398,1083.12589 C1248.01981,1087.42479 1245.15392,1091.90274 1242.64623,1096.55987 C1257.51325,1092.97746 1268.88724,1088.49951 1276.76854,1083.12589 C1284.64985,1077.75227 1289.1278,1072.37873 1290.20253,1067.00512 C1290.91901,1063.4227 1290.47121,1061.09417 1288.85913,1060.01945 C1287.7844,1059.30296 1286.08278,1058.94473 1283.75422,1058.94473 Z" id="Always-Online" transform="translate(689.970843, 957.709379) rotate(-20.000000) translate(-689.970843, -957.709379) "></path>
        </g>
    </g>
</svg>