<?xml version="1.0" encoding="UTF-8"?>
<svg width="51px" height="51px" viewBox="0 0 51 51" version="1.1" xmlns="http://www.w3.org/2000/svg" xmlns:xlink="http://www.w3.org/1999/xlink">
    <!-- Generator: Sketch 49.1 (51147) - http://www.bohemiancoding.com/sketch -->
    <title>4-selected copy</title>
    <desc>Created with Sketch.</desc>
    <defs></defs>
    <g id="Page-7" stroke="none" stroke-width="1" fill="none" fill-rule="evenodd">
        <g id="4-selected-copy" transform="translate(0.329063, 0.400511)">
            <path d="M41.295,0 L30.8333333,0 L19.1666667,0 L8.705,0 L0,13.9275 L0,50 L19.1666667,50 L30.8333333,50 L50,50 L50,13.9275 L41.295,0 Z M40.3716667,1.66666667 L47.6633333,13.3333333 L30.8333333,13.3333333 L30.8333333,1.66666667 L40.3716667,1.66666667 Z M9.62833333,1.66666667 L19.1666667,1.66666667 L19.1666667,13.3333333 L2.33666667,13.3333333 L9.62833333,1.66666667 Z M30.8333333,48.3333333 L30.8333333,41.3216667 L28.3333333,43.8216667 L25,40.4883333 L21.6666667,43.8216667 L19.1666667,41.3216667 L19.1666667,48.3333333 L1.66666667,48.3333333 L1.66666667,15 L19.1666667,15 L19.1666667,24.5116667 L21.6666667,22.0116667 L25,25.345 L28.3333333,22.0116667 L30.8333333,24.5116667 L30.8333333,15 L48.3333333,15 L48.3333333,48.3333333 L30.8333333,48.3333333 Z" id="Shape" fill="#242424" fill-rule="nonzero"></path>
            <polygon id="Path" fill="#FFCC00" points="25 1.66666667 29.1666667 1.66666667 29.1666667 13.3333333 25 13.3333333 20.8333333 13.3333333 20.8333333 1.66666667"></polygon>
            <path d="M28.275,19.7133333 C28.1575,19.395 27.8583333,19.1666667 27.5,19.1666667 C27.04,19.1666667 26.6666667,19.54 26.6666667,20 C26.6666667,20.3583333 26.895,20.6575 27.2133333,20.775 L25.7758333,22.2125 C25.6575,21.895 25.3583333,21.6666667 25,21.6666667 C24.6416667,21.6666667 24.3425,21.895 24.225,22.2133333 L22.7875,20.7758333 C23.105,20.6575 23.3333333,20.3583333 23.3333333,20 C23.3333333,19.54 22.96,19.1666667 22.5,19.1666667 C22.1416667,19.1666667 21.8425,19.395 21.725,19.7133333 L21.6666667,19.655 L20.8333333,20.4883333 L20.8333333,15 L21.6666667,15 C21.6666667,15.46 22.04,15.8333333 22.5,15.8333333 C22.96,15.8333333 23.3333333,15.46 23.3333333,15 L26.6666667,15 C26.6666667,15.46 27.04,15.8333333 27.5,15.8333333 C27.96,15.8333333 28.3333333,15.46 28.3333333,15 L29.1666667,15 L29.1666667,20.4883333 L28.3333333,19.655 L28.275,19.7133333 Z" id="Path" fill="#FFCC00"></path>
            <polygon id="Path" fill="#FFCC00" points="20.8333333 48.3333333 20.8333333 45.345 21.6666667 46.1783333 25 42.845 28.3333333 46.1783333 29.1666667 45.345 29.1666667 48.3333333"></polygon>
            <circle id="Oval" fill="#242424" fill-rule="nonzero" cx="25" cy="2.5" r="1"></circle>
            <circle id="Oval" fill="#242424" fill-rule="nonzero" cx="22.5" cy="5" r="1"></circle>
            <circle id="Oval" fill="#242424" fill-rule="nonzero" cx="22.5" cy="10" r="1"></circle>
            <circle id="Oval" fill="#242424" fill-rule="nonzero" cx="25" cy="7.5" r="1"></circle>
            <circle id="Oval" fill="#242424" fill-rule="nonzero" cx="27.5" cy="5" r="1"></circle>
            <circle id="Oval" fill="#242424" fill-rule="nonzero" cx="27.5" cy="10" r="1"></circle>
            <circle id="Oval" fill="#242424" fill-rule="nonzero" cx="25" cy="12.5" r="1"></circle>
            <circle id="Oval" fill="#242424" fill-rule="nonzero" cx="25" cy="17.5" r="1"></circle>
        </g>
    </g>
</svg>