<?xml version="1.0" encoding="UTF-8"?>
<svg width="907px" height="615px" viewBox="0 0 907 615" version="1.1" xmlns="http://www.w3.org/2000/svg" xmlns:xlink="http://www.w3.org/1999/xlink">
    <!-- Generator: Sketch 50.2 (55047) - http://www.bohemiancoding.com/sketch -->
    <title>Enjoy Shopping Copy@1x</title>
    <desc>Created with Sketch.</desc>
    <defs></defs>
    <g id="Page-1" stroke="none" stroke-width="1" fill="none" fill-rule="evenodd">
        <path d="M459.507527,112.668173 C455.59278,115.490863 451.385525,117.767542 446.885737,119.49823 C439.589701,122.378244 431.717779,123.338235 423.269737,122.37823 C419.81372,126.218249 415.493763,130.346208 410.309737,134.76223 C398.597678,144.170277 387.941785,149.930219 378.341737,152.04223 C374.88572,152.426232 372.581743,152.61823 371.429737,152.61823 C363.557698,152.61823 357.221761,149.930257 352.421737,144.55423 C349.403558,141.248605 347.272952,137.364744 346.029914,132.902625 C343.445478,135.431006 340.776087,137.778872 338.021737,139.94623 C331.109702,145.322257 321.509798,150.794202 309.221737,156.36223 C303.653709,171.530306 297.60577,184.010181 291.077737,193.80223 C283.5897,205.706289 275.52578,214.154205 266.885737,219.14623 C261.701711,222.026244 256.325765,223.46623 250.757737,223.46623 C245.957713,223.46623 241.25376,222.314241 236.645737,220.01023 C229.541701,216.362211 225.989737,210.698268 225.989737,203.01823 C226.181738,193.994185 231.557684,184.202283 242.117737,173.64223 C251.525784,163.850181 263.333666,155.498264 277.541737,148.58623 C282.917764,145.706215 288.005713,143.306239 292.805737,141.38623 C297.791248,126.621446 301.627701,112.527124 304.315209,99.1028427 C303.805846,100.099873 303.233356,101.186335 302.597737,102.36223 C300.677727,105.914247 298.661748,109.322213 296.549737,112.58623 C286.181685,128.522309 274.6618,138.122213 261.989737,141.38623 C247.781666,144.842247 237.797766,143.402261 232.037737,137.06623 C227.237713,131.882204 225.989725,124.970273 228.293737,116.33023 C228.86974,113.258214 230.789721,106.826279 234.053737,97.0342297 C236.933751,89.9301942 238.949731,83.6902566 240.101737,78.3142297 C240.293738,77.162224 240.437737,76.1062345 240.533737,75.1462297 C240.629737,74.1862249 240.677737,73.3702331 240.677737,72.6982297 C240.677737,72.0262264 240.629737,71.4982316 240.533737,71.1142297 C240.437737,70.7302278 240.293738,70.4422307 240.101737,70.2502297 L240.101737,69.9622297 C239.141732,68.618223 236.165762,67.9462297 231.173737,67.9462297 C216.773665,67.9462297 193.829894,92.0419888 162.341737,140.23423 C160.229726,143.306245 157.349755,144.84223 153.701737,144.84223 C152.165729,144.84223 150.725744,144.458234 149.381737,143.69023 C147.706576,142.852649 146.385616,141.875259 145.418856,140.758056 C138.200785,147.82064 130.209793,153.693993 121.445737,158.37823 C108.00567,165.866267 93.6058138,169.61023 78.245737,169.61023 C60.0056458,169.61023 45.1257946,164.330283 33.605737,153.77023 C22.6616823,143.78618 16.6137427,131.210306 15.461737,116.04223 C14.6937331,106.634183 15.8457216,97.2262768 18.917737,87.8182297 C22.1817533,78.2181817 27.2697024,69.4822691 34.181737,61.6102297 C46.6617994,47.0181568 63.1736343,36.8422585 83.717737,31.0822297 C76.6137015,19.3701712 72.1017466,8.33028155 70.181737,-2.03777029 C67.4937235,-16.0538404 69.0297082,-28.7257136 74.789737,-40.0537703 C79.9737629,-50.805824 88.2296803,-59.4457376 99.557737,-65.9737703 C110.11779,-71.7337991 120.869682,-74.6137703 131.813737,-74.6137703 C140.069778,-74.6137703 147.269706,-72.9817866 153.413737,-69.7177703 C159.749769,-66.069752 164.165725,-61.173801 166.661737,-55.0297703 C170.501756,-46.3897271 170.789753,-36.501826 167.525737,-25.3657703 C164.261721,-14.2297146 158.021783,-3.66982021 148.805737,6.31422971 C146.885727,8.42624027 144.533751,9.57822875 141.749737,9.77022971 C138.965723,9.96223067 136.517748,9.09823931 134.405737,7.17822971 C132.293726,5.25822011 131.189737,2.90624363 131.093737,0.122229715 C130.997737,-2.66178421 131.909727,-5.10975973 133.829737,-7.22177029 C140.741772,-15.0938096 145.349725,-22.7737328 147.653737,-30.2617703 C149.765748,-36.9818039 149.861747,-42.4537492 147.941737,-46.6777703 C145.637725,-51.6697952 140.261779,-54.1657703 131.813737,-54.1657703 C124.517701,-54.1657703 117.173774,-52.19779 109.781737,-48.2617703 C102.3897,-44.3257506 96.8697552,-38.6138077 93.221737,-31.1257703 C84.7736947,-14.2296858 89.9576429,6.60210587 108.773737,31.3702297 C111.269749,34.4422451 111.749745,37.7062124 110.213737,41.1622297 C109.061731,44.810248 106.469757,46.9222268 102.437737,47.4982297 C79.7816237,51.5302499 62.2137994,60.6501587 49.733737,74.8582297 C39.3656851,86.7622892 34.7577312,99.9141577 35.909737,114.31423 C36.6777408,123.914278 40.5657019,132.122196 47.573737,138.93823 C54.581772,145.754264 64.8056698,149.16223 78.245737,149.16223 C87.653784,149.16223 96.7736928,147.194249 105.605737,143.25823 C114.437781,139.32221 121.54171,134.954254 126.917737,130.15423 C132.293764,125.354206 137.429713,119.690262 142.325737,113.16223 C147.221761,106.634197 150.38973,102.026243 151.829737,99.3382297 C153.269744,96.6502163 154.469732,94.2502403 155.429737,92.1382297 C155.922661,91.070228 156.547401,90.1340523 157.303961,89.3296985 C157.399002,88.9717068 157.49426,88.6118839 157.589737,88.2502297 C160.757753,76.2501697 162.629734,66.7942643 163.205737,59.8822297 C163.589739,57.1942163 164.837726,54.9382388 166.949737,53.1142297 C169.061748,51.2902206 171.557723,50.4742288 174.437737,50.6662297 C177.12575,51.0502316 179.381728,52.2982192 181.205737,54.4102297 C183.029746,56.5222403 183.845738,59.0182153 183.653737,61.8982297 C183.077734,67.0822556 182.021745,73.4181923 180.485737,80.9062297 C186.245766,73.9941952 191.717711,68.2342528 196.901737,63.6262297 C208.997797,52.874176 220.421683,47.4982297 231.173737,47.4982297 C243.461798,47.4982297 252.005713,51.0501942 256.805737,58.1542297 C260.837757,64.2982604 261.893747,72.2661808 259.973737,82.0582297 C259.397734,85.8982489 257.189756,93.290175 253.349737,104.23423 C251.045725,110.762262 249.509741,115.370216 248.741737,118.05823 C248.165734,120.362241 247.877737,121.994225 247.877737,122.95423 C249.989748,122.95423 253.061717,122.474235 257.093737,121.51423 C264.389773,119.786221 271.7817,113.258286 279.269737,101.93023 C283.301757,95.786199 286.469725,89.7382595 288.773737,83.7862297 C289.733742,81.0982163 291.509724,79.1782355 294.101737,78.0262297 C295.451222,77.4264586 296.813707,77.1129262 298.189204,77.0856323 C303.016604,72.6590988 306.886094,68.4606517 309.797737,64.4902297 C309.797737,64.1062278 309.845737,63.4342345 309.941737,62.4742297 C310.037737,61.5142249 310.181736,60.8422316 310.373737,60.4582297 C311.717744,45.6741558 316.1337,37.1302412 323.621737,34.8262297 C328.22976,33.290222 332.165721,34.4422105 335.429737,38.2822297 C338.501752,41.930248 339.269745,46.7302 337.733737,52.6822297 C336.38973,58.0582566 334.469749,63.1462057 331.973737,67.9462297 L329.669737,71.9782297 C327.365725,90.6023228 323.525764,109.514134 318.149737,128.71423 C331.205802,120.650189 342.053694,108.650309 350.693737,92.7142297 C351.411757,91.3807635 352.321566,90.2939005 353.423172,89.4536333 C358.121726,80.1310603 364.603891,71.5219629 372.869737,63.6262297 C374.981748,61.5142192 377.477723,60.5542288 380.357737,60.7462297 C382.853749,54.410198 386.693711,49.0342518 391.877737,44.6182297 C403.589796,34.0581769 415.013681,30.5062124 426.149737,33.9622297 C436.517789,37.610248 442.949725,46.0581635 445.445737,59.3062297 C447.557748,70.8262873 445.733766,83.2101635 439.973737,96.4582297 C439.205733,98.3782393 438.53374,99.8182249 437.957737,100.77823 C445.061773,98.6662192 451.30171,94.0582652 456.677737,86.9542297 C458.405746,84.8422192 460.661723,83.6422312 463.445737,83.3542297 C463.799532,83.3176302 464.14945,83.2973094 464.495493,83.2932673 C468.578929,71.5452151 474.804972,60.3816123 483.173737,49.8022297 C484.901746,47.6902192 487.205723,46.4422316 490.085737,46.0582297 C492.965751,45.6742278 495.461726,46.4422201 497.573737,48.3622297 C499.685748,50.0902384 500.933735,52.3462158 501.317737,55.1302297 C501.701739,57.9142436 500.933747,60.4582182 499.013737,62.7622297 C489.797691,74.0902864 483.84575,86.1861654 481.157737,99.0502297 C479.429728,107.882274 479.429728,113.834214 481.157737,116.90623 C497.861821,116.522228 514.469654,105.002343 530.981737,82.3462297 C531.365739,80.2342192 531.749735,77.2582489 532.133737,73.4182297 C533.861746,60.1701635 538.277701,52.6822384 545.381737,50.9542297 C550.565763,49.610223 554.693722,51.1462076 557.765737,55.5622297 C560.45375,59.5942499 561.029745,64.9701961 559.493737,71.6902297 C557.957729,77.4502585 555.077758,83.498198 550.853737,89.8342297 L550.277737,90.4102297 C547.781725,103.274294 544.805754,115.370173 541.349737,126.69823 C556.901815,116.71418 567.941704,104.330304 574.469737,89.5462297 C575.621743,87.0502172 577.541724,85.274235 580.229737,84.2182297 C582.91775,83.1622244 585.509725,83.210224 588.005737,84.3622297 C590.501749,85.5142355 592.277732,87.4342163 593.333737,90.1222297 C594.389742,92.8102432 594.341743,95.4022172 593.189737,97.8982297 C582.629684,121.706349 561.893892,141.194154 530.981737,156.36223 C527.717721,164.234269 524.069757,171.530196 520.037737,178.25023 C517.733725,182.090249 515.28575,185.882211 512.693737,189.62623 C510.101724,193.370248 506.789757,197.594206 502.757737,202.29823 C498.725717,207.002253 494.261761,211.034213 489.365737,214.39423 C484.469713,217.754247 479.621761,219.914225 474.821737,220.87423 C473.861732,221.258232 472.325748,221.45023 470.213737,221.45023 C465.221712,221.45023 460.901755,219.914245 457.253737,216.84223 C451.493708,212.426208 449.093732,206.18627 450.053737,198.12223 C450.821741,190.442191 454.805701,182.330272 462.005737,173.78623 C469.205773,165.242187 477.797687,158.474255 487.781737,153.48223 C488.549741,153.098228 490.469722,152.234236 493.541737,150.89023 C496.613752,149.546223 499.109727,148.490234 501.029737,147.72223 C501.797741,147.338228 503.86172,146.426237 507.221737,144.98623 C510.581754,143.546223 513.125728,142.346235 514.853737,141.38623 C516.581746,137.162209 518.789724,130.826272 521.477737,122.37823 L516.581737,125.83423 C505.25368,133.514268 493.157801,137.35423 480.293737,137.35423 C472.229697,137.35423 466.373755,133.514268 462.725737,125.83423 C460.898489,121.930564 459.825753,117.541888 459.507527,112.668173 Z M326.789737,11.4982297 C323.717722,9.38621915 322.181737,6.60224699 322.181737,3.14622971 C322.181737,1.22622011 322.85373,-0.693760685 324.197737,-2.61377029 L324.485737,-3.18977029 L325.637737,-4.91777029 C327.173745,-7.22178181 329.333723,-8.61376789 332.117737,-9.09377029 C334.901751,-9.57377269 337.445725,-8.94977893 339.749737,-7.22177029 C342.053749,-5.68576261 343.445735,-3.52578421 343.925737,-0.741770285 C344.405739,2.04224363 343.877745,4.58621819 342.341737,6.89022971 L341.477737,8.33022971 L340.901737,8.90622971 C338.789726,11.9782451 336.005754,13.5142297 332.549737,13.5142297 C330.245725,13.5142297 328.325745,12.8422364 326.789737,11.4982297 Z M257.093737,201.00223 C265.349778,196.394207 273.413698,185.930311 281.285737,169.61023 C271.301687,174.986257 262.949771,181.226194 256.229737,188.33023 C250.85371,194.090259 247.685742,198.698212 246.725737,202.15423 C250.181754,203.498236 253.63772,203.11424 257.093737,201.00223 Z M417.797737,52.9702297 C414.533721,52.9702297 410.405762,55.1782076 405.413737,59.5942297 C398.693703,65.7382604 396.485725,72.5541923 398.789737,80.0422297 C400.901748,88.10627 406.469692,94.4422067 415.493737,99.0502297 C423.941779,85.9941644 427.205747,73.8982854 425.285737,62.7622297 C424.325732,57.3862028 422.405751,54.2182345 419.525737,53.2582297 C419.141735,53.0662288 418.565741,52.9702297 417.797737,52.9702297 Z M379.205737,86.6662297 C373.445708,94.1542672 369.317749,102.218187 366.821737,110.85823 C364.325725,120.458278 364.613722,127.178211 367.685737,131.01823 C369.605747,131.978235 371.813725,132.266232 374.309737,131.88223 C380.453768,130.538223 388.133691,126.218266 397.349737,118.92223 C397.92574,118.538228 398.741732,117.866235 399.797737,116.90623 C400.853742,115.946225 401.573735,115.274232 401.957737,114.89023 C390.245678,107.786194 382.661754,98.3782883 379.205737,86.6662297 Z M471.077737,201.00223 C474.533754,200.426227 478.99771,197.402257 484.469737,191.93023 C489.941764,186.458202 495.557708,179.114276 501.317737,169.89823 L496.709737,171.91423 C488.645697,175.94625 481.637767,181.706192 475.685737,189.19423 C472.037719,193.994254 470.213737,197.930214 470.213737,201.00223 L471.077737,201.00223 Z M757.742674,384.225743 C752.955521,387.667531 747.97655,390.054354 742.805737,391.38623 C728.597666,394.842247 718.613766,393.402261 712.853737,387.06623 C708.053713,381.882204 706.805725,374.970273 709.109737,366.33023 C709.68574,363.258214 711.605721,356.826279 714.869737,347.03423 C717.749751,339.930194 719.765731,333.690257 720.917737,328.31423 C721.109738,327.162224 721.253737,326.106235 721.349737,325.14623 C721.445737,324.186225 721.493737,323.370233 721.493737,322.69823 C721.493737,322.026226 721.445737,321.498232 721.349737,321.11423 C721.253737,320.730228 721.109738,320.442231 720.917737,320.25023 L720.917737,319.96223 C719.957732,318.618223 716.981762,317.94623 711.989737,317.94623 C697.589665,317.94623 674.645894,342.041989 643.157737,390.23423 C641.045726,393.306245 638.165755,394.84223 634.517737,394.84223 C632.981729,394.84223 631.541744,394.458234 630.197737,393.69023 C628.707201,392.944962 627.497093,392.089004 626.567413,391.122353 C618.598163,396.290291 610.208323,398.87423 601.397737,398.87423 C596.213711,398.87423 591.221761,397.914239 586.421737,395.99423 C580.085705,392.922214 575.381752,388.506259 572.309737,382.74623 C562.517688,364.122137 573.173581,332.82645 604.277737,288.85823 C605.813745,286.554218 608.021723,285.162232 610.901737,284.68223 C613.781751,284.202227 616.373725,284.826221 618.677737,286.55423 C620.981749,288.090237 622.325735,290.250216 622.709737,293.03423 C623.093739,295.818244 622.517745,298.362218 620.981737,300.66623 C614.069702,310.458279 608.30976,319.434189 603.701737,327.59423 C599.093714,335.754271 595.781747,342.378204 593.765737,347.46623 C591.749727,352.554255 590.45374,357.06621 589.877737,361.00223 C589.301734,364.938249 589.109736,367.722222 589.301737,369.35423 C589.493738,370.986238 589.877734,372.378224 590.453737,373.53023 C592.181746,376.794246 595.829709,378.42623 601.397737,378.42623 C614.188576,378.42623 625.508673,368.762427 635.35827,349.434574 C636.348136,345.924475 637.363958,342.196364 638.405737,338.25023 C641.573753,326.25017 643.445734,316.794264 644.021737,309.88223 C644.405739,307.194216 645.653726,304.938239 647.765737,303.11423 C649.877748,301.290221 652.373723,300.474229 655.253737,300.66623 C657.94175,301.050232 660.197728,302.298219 662.021737,304.41023 C663.845746,306.52224 664.661738,309.018215 664.469737,311.89823 C663.893734,317.082256 662.837745,323.418192 661.301737,330.90623 C667.061766,323.994195 672.533711,318.234253 677.717737,313.62623 C689.813797,302.874176 701.237683,297.49823 711.989737,297.49823 C724.277798,297.49823 732.821713,301.050194 737.621737,308.15423 C741.653757,314.29826 742.709747,322.266181 740.789737,332.05823 C740.213734,335.898249 738.005756,343.290175 734.165737,354.23423 C731.861725,360.762262 730.325741,365.370216 729.557737,368.05823 C728.981734,370.362241 728.693737,371.994225 728.693737,372.95423 C730.805748,372.95423 733.877717,372.474235 737.909737,371.51423 C744.557874,369.939671 751.285627,364.379817 758.093162,354.83452 C761.206364,345.995847 766.670536,336.387791 774.485737,326.01023 C784.661788,312.762163 795.029684,302.298268 805.589737,294.61823 C814.421781,288.282198 823.685689,284.394237 833.381737,282.95423 C843.077785,281.514223 851.189704,282.906209 857.717737,287.13023 C866.741782,292.698258 870.197748,301.43417 868.085737,313.33823 C867.509734,316.026243 866.165748,318.090223 864.053737,319.53023 C861.941726,320.970237 859.637749,321.594231 857.141737,321.40223 C859.061747,322.170234 860.69373,323.706218 862.037737,326.01023 C865.685755,332.346261 863.093781,341.082174 854.261737,352.21823 L851.957737,355.38623 C849.269724,364.986278 847.157745,372.090207 845.621737,376.69823 C858.869803,368.634189 869.909693,356.53831 878.741737,340.41023 C880.277745,337.914217 882.341724,336.282234 884.933737,335.51423 C887.52575,334.746226 890.165724,335.034223 892.853737,336.37823 C895.349749,337.722236 896.981733,339.738216 897.749737,342.42623 C898.517741,345.114243 898.229744,347.706217 896.885737,350.20223 C888.245694,366.138309 878.069796,378.522186 866.357737,387.35423 C859.829704,392.346255 849.461808,398.202196 835.253737,404.92223 C832.181722,412.218266 828.725756,419.514193 824.885737,426.81023 C818.933707,438.138286 812.789769,447.546192 806.453737,455.03423 C799.157701,463.674273 792.053772,468.95422 785.141737,470.87423 C783.029726,471.642234 780.62975,472.02623 777.941737,472.02623 C772.181708,472.02623 766.99776,470.01025 762.389737,465.97823 C756.821709,460.602203 754.613731,453.978269 755.765737,446.10623 C756.917743,437.466187 762.389688,428.442277 772.181737,419.03423 C780.245777,410.970189 791.381666,403.290266 805.589737,395.99423 L819.413737,389.65823 C819.605738,389.274228 819.845736,388.650234 820.133737,387.78623 C820.421738,386.922225 820.661736,386.298232 820.853737,385.91423 C808.181674,395.514278 796.661789,400.602227 786.293737,401.17823 C777.077691,401.754233 769.301769,398.586264 762.965737,391.67423 C760.771795,389.411727 759.030775,386.928902 757.742674,384.225743 Z M331.654198,364.691866 C328.612735,366.600144 325.407251,368.202263 322.037737,369.49823 C314.741701,372.378244 306.869779,373.338235 298.421737,372.37823 C294.96572,376.218249 290.645763,380.346208 285.461737,384.76223 C273.749678,394.170277 263.093785,399.930219 253.493737,402.04223 C250.03772,402.426232 247.733743,402.61823 246.581737,402.61823 C238.709698,402.61823 232.373761,399.930257 227.573737,394.55423 C224.116789,390.768048 221.824233,386.223287 220.696067,380.919914 C208.172465,393.081507 196.7371,399.16223 186.389737,399.16223 C176.789689,399.16223 169.781759,396.09026 165.365737,389.94623 C161.717719,384.570203 160.757728,377.178277 162.485737,367.77023 C163.06174,365.274217 165.173719,358.266287 168.821737,346.74623 C171.893752,338.298187 173.813733,332.250248 174.581737,328.60223 C174.773738,327.642225 174.869737,325.14625 174.869737,321.11423 C174.293734,320.538227 172.469752,320.25023 169.397737,320.25023 C163.445707,320.25023 156.14978,326.20217 147.509737,338.10623 C142.709713,344.634262 135.125789,357.786131 124.757737,377.56223 C119.957713,386.586275 117.461738,391.290228 117.269737,391.67423 C113.045716,398.586264 108.62976,402.04223 104.021737,402.04223 C99.6057149,402.04223 96.0537504,400.314247 93.365737,396.85823 C89.3337168,391.866205 87.6057341,382.554298 88.181737,368.92223 C88.5657389,357.01817 90.4857197,342.906311 93.941737,326.58623 C98.54976,305.082122 106.51768,282.234351 117.845737,258.04223 C128.40579,235.002115 139.445679,215.322311 150.965737,199.00223 C155.765761,192.090195 160.757711,187.002246 165.941737,183.73823 C172.46977,179.70621 178.901705,179.130215 185.237737,182.01023 C192.341773,185.658248 196.277733,193.242172 197.045737,204.76223 C197.429739,214.74628 195.509758,225.69017 191.285737,237.59423 C185.333707,256.218323 176.981791,272.250163 166.229737,285.69023 C152.78967,302.586314 136.277835,313.914201 116.693737,319.67423 C115.925733,322.170242 114.965743,325.914205 113.813737,330.90623 C111.317725,343.770294 109.685741,354.714185 108.917737,363.73823 C116.789776,347.80215 124.085703,335.322275 130.805737,326.29823 C143.669801,308.634141 156.533673,299.80223 169.397737,299.80223 C179.573788,299.80223 186.965714,302.970198 191.573737,309.30623 C194.069749,312.954248 195.317737,317.466203 195.317737,322.84223 C195.317737,328.218257 194.741743,332.92221 193.589737,336.95423 C192.437731,340.98625 190.613749,346.554194 188.117737,353.65823 C185.045722,362.874276 183.317739,368.538219 182.933737,370.65023 C182.357734,372.954241 182.069737,375.450216 182.069737,378.13823 L183.509737,378.42623 C184.469742,378.618231 185.429732,378.71423 186.389737,378.71423 C192.91777,378.71423 202.133677,371.898298 214.037737,358.26623 C216.917751,355.002213 219.749723,351.498248 222.533737,347.75423 C225.317751,344.010211 227.38173,341.08224 228.725737,338.97023 L229.052289,338.521221 C233.709043,329.55635 240.032172,321.258053 248.021737,313.62623 C250.133748,311.514219 252.629723,310.554229 255.509737,310.74623 C258.005749,304.410198 261.845711,299.034252 267.029737,294.61823 C278.741796,284.058177 290.165681,280.506212 301.301737,283.96223 C311.669789,287.610248 318.101725,296.058163 320.597737,309.30623 C322.709748,320.826287 320.885766,333.210163 315.125737,346.45823 C314.357733,348.378239 313.68574,349.818225 313.109737,350.77823 C320.213773,348.666219 326.45371,344.058265 331.829737,336.95423 C333.420047,335.010518 335.457533,333.839268 337.94225,333.440452 C340.834611,317.839214 343.405101,302.018497 345.653737,285.97823 C345.845738,283.098215 347.045726,280.794238 349.253737,279.06623 C351.461748,277.338221 354.005723,276.666228 356.885737,277.05023 C359.765751,277.434232 362.069728,278.778218 363.797737,281.08223 C365.525746,283.386241 366.197739,285.882216 365.813737,288.57023 C365.429735,292.026247 364.805741,296.7302 363.941737,302.68223 C363.077733,308.634259 362.453739,312.762218 362.069737,315.06623 C369.365773,304.698178 377.141696,297.210253 385.397737,292.60223 C395.765789,287.034202 406.997677,285.690215 419.093737,288.57023 C426.005772,290.106237 431.861713,293.8502 436.661737,299.80223 C440.885758,304.794255 443.765729,311.322189 445.301737,319.38623 C447.029746,331.290289 445.013766,343.002172 439.253737,354.52223 C432.917705,367.578295 422.357811,378.714184 407.573737,387.93023 C392.405661,397.530278 378.4858,401.754235 365.813737,400.60223 C358.901702,400.218228 353.14176,398.298247 348.533737,394.84223 L347.381737,393.69023 C346.805734,395.418238 344.885753,400.986183 341.621737,410.39423 C341.429736,410.970233 341.237738,411.786224 341.045737,412.84223 C340.853736,413.898235 340.661738,414.714227 340.469737,415.29023 C336.821719,428.730297 331.829769,444.858136 325.493737,463.67423 C323.573727,468.090252 320.405759,470.29823 315.989737,470.29823 C315.221733,470.29823 314.069745,470.106232 312.533737,469.72223 C309.845724,468.762225 307.877743,467.082242 306.629737,464.68223 C305.381731,462.282218 305.141733,459.738243 305.909737,457.05023 C313.589775,431.514102 318.965722,414.138276 322.037737,404.92223 C325.496739,391.684897 328.702222,378.274792 331.654198,364.691866 Z M-9.45026302,416.73023 C-28.4583581,416.73023 -43.0502121,411.930278 -53.226263,402.33023 C-59.5622947,396.3782 -64.1702486,389.274271 -67.050263,381.01823 C-70.1222784,372.954189 -71.0822688,364.506274 -69.930263,355.67423 C-67.8182525,338.970146 -58.6023446,326.298273 -42.282263,317.65823 C-39.7862505,316.314223 -37.1942765,316.074225 -34.506263,316.93823 C-31.8182496,317.802234 -29.8022697,319.482217 -28.458263,321.97823 C-27.1142563,324.474242 -26.8742587,327.066216 -27.738263,329.75423 C-28.6022673,332.442243 -30.2822505,334.458223 -32.778263,335.80223 C-42.9543139,341.178257 -48.6182573,348.762181 -49.770263,358.55423 C-51.3062707,369.690285 -47.7543062,379.386188 -39.114263,387.64223 C-31.4342246,394.746265 -18.3783552,397.434238 0.0537369845,395.70623 C16.5658195,394.170222 29.0456947,390.714257 37.493737,385.33823 C46.5177821,380.154204 51.6057312,372.57028 52.757737,362.58623 C53.7177418,352.60218 50.3577754,343.962266 42.677737,336.66623 C33.8456928,328.410188 20.6938243,319.194281 3.22173698,309.01823 C-7.9143187,302.298196 -14.7302505,298.074238 -17.226263,296.34623 C-23.9462966,291.738207 -29.2262438,286.458259 -33.066263,280.50623 C-37.6742861,274.170198 -40.5542573,267.066269 -41.706263,259.19423 C-44.5862774,242.682147 -39.7863254,226.266311 -27.306263,209.94623 C-19.8182256,199.96218 -9.83432542,192.090259 2.64573698,186.33023 C13.9737936,180.954203 25.4936784,177.978233 37.205737,177.40223 C54.2938224,176.442225 67.0616947,180.378186 75.509737,189.21023 C82.0377696,196.314265 83.8617514,206.010168 80.981737,218.29823 C79.6377303,223.290255 76.0857658,232.218165 70.325737,245.08223 C63.9897053,257.754293 60.821737,266.298208 60.821737,270.71423 C60.821737,273.402243 59.8137471,275.75422 57.797737,277.77023 C55.7817269,279.78624 53.4297504,280.79423 50.741737,280.79423 C47.8617226,280.79423 45.4137471,279.78624 43.397737,277.77023 C41.3817269,275.75422 40.373737,273.402243 40.373737,270.71423 C40.373737,263.610194 44.1176995,252.186308 51.605737,236.44223 C60.6297821,217.626136 63.6057523,206.586246 60.533737,203.32223 C56.3097159,199.098209 48.9177898,197.274227 38.357737,197.85023 C29.7176938,198.426233 20.7897831,200.73021 11.573737,204.76223 C2.3576909,208.79425 -5.22623326,214.650191 -11.178263,222.33023 C-19.8183062,233.658286 -23.2742717,244.890174 -21.546263,256.02623 C-20.0102553,265.434277 -14.8263072,273.210199 -5.99426302,279.35423 C-0.234234216,283.002248 6.2937005,287.034208 13.589737,291.45023 C32.789833,302.586285 47.189689,312.762184 56.789737,321.97823 C69.2697994,333.882289 74.6457456,348.186146 72.917737,364.89023 C71.1897283,381.210311 62.9338109,393.882185 48.149737,402.90623 C36.6296794,409.818264 21.1738339,414.23422 1.78173698,416.15423 C-2.82628606,416.538232 -6.57024862,416.73023 -9.45026302,416.73023 Z M564.245737,319.38623 C565.973746,331.290289 563.957766,343.002172 558.197737,354.52223 C551.861705,367.578295 541.301811,378.714184 526.517737,387.93023 C511.349661,397.530278 497.4298,401.754235 484.757737,400.60223 C477.845702,400.218228 472.08576,398.298247 467.477737,394.84223 L466.325737,393.69023 C465.749734,395.418238 463.829753,400.986183 460.565737,410.39423 C460.373736,410.970233 460.181738,411.786224 459.989737,412.84223 C459.797736,413.898235 459.605738,414.714227 459.413737,415.29023 C455.765719,428.730297 450.773769,444.858136 444.437737,463.67423 C442.517727,468.090252 439.349759,470.29823 434.933737,470.29823 C434.165733,470.29823 433.013745,470.106232 431.477737,469.72223 C428.789724,468.762225 426.821743,467.082242 425.573737,464.68223 C424.325731,462.282218 424.085733,459.738243 424.853737,457.05023 C432.533775,431.514102 437.909722,414.138276 440.981737,404.92223 C450.965787,366.714039 458.837708,327.066435 464.597737,285.97823 C464.789738,283.098215 465.989726,280.794238 468.197737,279.06623 C470.405748,277.338221 472.949723,276.666228 475.829737,277.05023 C478.709751,277.434232 481.013728,278.778218 482.741737,281.08223 C484.469746,283.386241 485.141739,285.882216 484.757737,288.57023 C484.373735,292.026247 483.749741,296.7302 482.885737,302.68223 C482.021733,308.634259 481.397739,312.762218 481.013737,315.06623 C488.309773,304.698178 496.085696,297.210253 504.341737,292.60223 C514.709789,287.034202 525.941677,285.690215 538.037737,288.57023 C544.949772,290.106237 550.805713,293.8502 555.605737,299.80223 C559.829758,304.794255 562.709729,311.322189 564.245737,319.38623 Z M176.021737,201.59423 C172.757721,204.282243 169.973749,207.354212 167.669737,210.81023 C151.157654,234.042346 136.853797,261.882067 124.757737,294.33023 C145.877843,283.002173 161.621685,261.978383 171.989737,231.25823 C175.061752,221.466181 176.597737,213.882257 176.597737,208.50623 C176.597737,205.818216 176.405739,203.514239 176.021737,201.59423 Z M292.949737,302.97023 C289.685721,302.97023 285.557762,305.178208 280.565737,309.59423 C273.845703,315.73826 271.637725,322.554192 273.941737,330.04223 C276.053748,338.10627 281.621692,344.442207 290.645737,349.05023 C299.093779,335.994164 302.357747,323.898285 300.437737,312.76223 C299.477732,307.386203 297.557751,304.218235 294.677737,303.25823 C294.293735,303.066229 293.717741,302.97023 292.949737,302.97023 Z M254.357737,336.66623 C248.597708,344.154267 244.469749,352.218187 241.973737,360.85823 C239.477725,370.458278 239.765722,377.178211 242.837737,381.01823 C244.757747,381.978235 246.965725,382.266232 249.461737,381.88223 C255.605768,380.538223 263.285691,376.218266 272.501737,368.92223 C273.07774,368.538228 273.893732,367.866235 274.949737,366.90623 C276.005742,365.946225 276.725735,365.274232 277.109737,364.89023 C265.397678,357.786194 257.813754,348.378288 254.357737,336.66623 Z M396.629737,370.65023 C407.957794,363.546194 415.829715,355.674273 420.245737,347.03423 C424.661759,338.394187 426.293743,330.330267 425.141737,322.84223 C423.605729,314.394187 420.053765,309.594235 414.485737,308.44223 C407.765703,306.906222 401.285768,307.626215 395.045737,310.60223 C388.805706,313.578245 382.037773,320.826172 374.741737,332.34623 C368.021703,343.290284 361.013773,357.978138 353.717737,376.41023 C356.021749,376.218229 358.325725,376.890222 360.629737,378.42623 L360.917737,378.42623 C363.221749,379.578235 365.909722,380.250229 368.981737,380.44223 C376.853776,380.44223 386.069684,377.178262 396.629737,370.65023 Z M515.573737,370.65023 C526.901794,363.546194 534.773715,355.674273 539.189737,347.03423 C543.605759,338.394187 545.237743,330.330267 544.085737,322.84223 C542.549729,314.394187 538.997765,309.594235 533.429737,308.44223 C526.709703,306.906222 520.229768,307.626215 513.989737,310.60223 C507.749706,313.578245 500.981773,320.826172 493.685737,332.34623 C486.965703,343.290284 479.957773,357.978138 472.661737,376.41023 C474.965749,376.218229 477.269725,376.890222 479.573737,378.42623 L479.861737,378.42623 C482.165749,379.578235 484.853722,380.250229 487.925737,380.44223 C495.797776,380.44223 505.013684,377.178262 515.573737,370.65023 Z M630.773737,262.93823 C628.661726,262.93823 626.741746,262.362235 625.013737,261.21023 C622.133723,259.29022 620.693737,256.506248 620.693737,252.85823 C620.693737,250.746219 621.269731,248.730239 622.421737,246.81023 L622.997737,246.23423 L623.861737,244.79423 C625.589746,242.490218 627.845723,241.098232 630.629737,240.61823 C633.413751,240.138227 635.957725,240.666222 638.261737,242.20223 C640.565749,243.738237 641.957735,245.898216 642.437737,248.68223 C642.917739,251.466244 642.389745,254.010218 640.853737,256.31423 L639.701737,258.04223 L639.413737,258.61823 C637.493727,261.498244 634.613756,262.93823 630.773737,262.93823 Z M840.149737,302.97023 C832.6617,302.97023 825.173774,305.754202 817.685737,311.32223 C808.661692,317.850262 799.589783,327.018171 790.469737,338.82623 C781.349691,350.634289 776.405741,360.762187 775.637737,369.21023 C775.253735,372.666247 776.021727,375.546218 777.941737,377.85023 C779.861747,379.96224 782.357722,380.922231 785.429737,380.73023 C791.381767,380.538229 798.773693,377.082263 807.605737,370.36223 C816.437781,363.642196 824.981696,355.482278 833.237737,345.88223 L834.101737,341.56223 C837.173752,328.506164 842.645698,321.498235 850.517737,320.53823 C851.09374,320.346229 852.05373,320.25023 853.397737,320.25023 C848.789714,317.946218 846.965732,314.298255 847.925737,309.30623 C848.50174,306.426215 848.117744,304.794232 846.773737,304.41023 C845.237729,303.450225 843.029751,302.97023 840.149737,302.97023 Z M805.877737,419.03423 C796.853692,424.410257 789.749763,429.882202 784.565737,435.45023 C779.381711,441.018258 776.50174,445.530212 775.925737,448.98623 C775.733736,449.754234 775.829735,450.330228 776.213737,450.71423 C776.981741,451.482234 777.941731,451.674232 779.093737,451.29023 C786.581774,448.986218 795.509685,438.234326 805.877737,419.03423 Z" id="Enjoy-Shopping-Copy" fill="#FFFFFF" transform="translate(413.883554, 198.706230) rotate(-31.000000) translate(-413.883554, -198.706230) "></path>
    </g>
</svg>