<?xml version="1.0" encoding="UTF-8"?>
<svg width="530px" height="612px" viewBox="0 0 699 774" version="1.1" xmlns="http://www.w3.org/2000/svg" xmlns:xlink="http://www.w3.org/1999/xlink">
    <!-- Generator: Sketch 51.3 (57544) - http://www.bohemiancoding.com/sketch -->
    <title>EURO WIDE SIMCARD gray</title>
    <desc>Created with Sketch.</desc>
    <defs></defs>
    <g id="Website" stroke="none" stroke-width="1" fill="none" fill-rule="evenodd">
        <path d="M329.009673,253.417255 C323.182977,253.417255 318.306359,251.453941 314.379673,247.527255 C310.452987,243.600568 308.489673,238.723951 308.489673,232.897255 L308.489673,20.8572547 C308.489673,15.0305589 310.452987,10.153941 314.379673,6.22725473 C318.306359,2.30056843 323.182977,0.337254727 329.009673,0.337254727 L383.729673,0.337254727 C385.75635,0.337254727 387.403,0.970581727 388.669673,2.23725473 C389.936346,3.50392773 390.569673,5.15057793 390.569673,7.17725473 L390.569673,20.8572547 C390.569673,22.8839315 389.936346,24.5305817 388.669673,25.7972547 C387.403,27.0639277 385.75635,27.6972547 383.729673,27.6972547 L315.329673,27.6972547 C321.156369,27.6972547 326.032987,29.6605684 329.959673,33.5872547 C333.886359,37.513941 335.849673,42.3905589 335.849673,48.2172547 L335.849673,123.457255 C335.849673,125.483932 336.483,127.130582 337.749673,128.397255 C339.016346,129.663928 340.662996,130.297255 342.689673,130.297255 L356.369673,130.297255 C358.39635,130.297255 360.043,130.930582 361.309673,132.197255 C362.576346,133.463928 363.209673,135.110578 363.209673,137.137255 L363.209673,150.817255 C363.209673,152.843932 362.576346,154.490582 361.309673,155.757255 C360.043,157.023928 358.39635,157.657255 356.369673,157.657255 L315.329673,157.657255 C321.156369,157.657255 326.032987,159.620568 329.959673,163.547255 C333.886359,167.473941 335.849673,172.350559 335.849673,178.177255 L335.849673,219.217255 C335.849673,221.243932 336.483,222.890582 337.749673,224.157255 C339.016346,225.423928 340.662996,226.057255 342.689673,226.057255 L383.729673,226.057255 C385.75635,226.057255 387.403,226.690582 388.669673,227.957255 C389.936346,229.223928 390.569673,230.870578 390.569673,232.897255 L390.569673,246.577255 C390.569673,248.603932 389.936346,250.250582 388.669673,251.517255 C387.403,252.783928 385.75635,253.417255 383.729673,253.417255 L329.009673,253.417255 Z M431.609673,0.337254727 C433.63635,0.337254727 435.283,0.970581727 436.549673,2.23725473 C437.816346,3.50392773 438.449673,5.15057793 438.449673,7.17725473 L438.449673,205.537255 C438.449673,211.363951 436.486359,216.240568 432.559673,220.167255 C428.632987,224.093941 423.756369,226.057255 417.929673,226.057255 L458.969673,226.057255 C460.99635,226.057255 462.643,225.423928 463.909673,224.157255 C465.176346,222.890582 465.809673,221.243932 465.809673,219.217255 L465.809673,7.17725473 C465.809673,5.15057793 466.443,3.50392773 467.709673,2.23725473 C468.976346,0.970581727 470.622996,0.337254727 472.649673,0.337254727 L486.329673,0.337254727 C488.35635,0.337254727 490.003,0.970581727 491.269673,2.23725473 C492.536346,3.50392773 493.169673,5.15057793 493.169673,7.17725473 L493.169673,246.577255 C493.169673,248.603932 492.536346,250.250582 491.269673,251.517255 C490.003,252.783928 488.35635,253.417255 486.329673,253.417255 L431.609673,253.417255 C425.782977,253.417255 420.906359,251.453941 416.979673,247.527255 C413.052987,243.600568 411.089673,238.723951 411.089673,232.897255 L411.089673,7.17725473 C411.089673,5.15057793 411.723,3.50392773 412.989673,2.23725473 C414.256346,0.970581727 415.902996,0.337254727 417.929673,0.337254727 L431.609673,0.337254727 Z M595.769673,123.457255 C595.769673,129.283951 593.806359,134.160568 589.879673,138.087255 C585.952987,142.013941 581.076369,143.977255 575.249673,143.977255 C581.076369,143.977255 585.952987,145.940568 589.879673,149.867255 C593.806359,153.793941 595.769673,158.670559 595.769673,164.497255 L595.769673,246.577255 C595.769673,248.603932 595.136346,250.250582 593.869673,251.517255 C592.603,252.783928 590.95635,253.417255 588.929673,253.417255 L575.249673,253.417255 C573.222996,253.417255 571.576346,252.783928 570.309673,251.517255 C569.043,250.250582 568.409673,248.603932 568.409673,246.577255 L568.409673,164.497255 C568.409673,162.470578 567.776346,160.823928 566.509673,159.557255 C565.243,158.290582 563.59635,157.657255 561.569673,157.657255 L520.529673,157.657255 C526.356369,157.657255 531.232987,159.620568 535.159673,163.547255 C539.086359,167.473941 541.049673,172.350559 541.049673,178.177255 L541.049673,246.577255 C541.049673,248.603932 540.416346,250.250582 539.149673,251.517255 C537.883,252.783928 536.23635,253.417255 534.209673,253.417255 L520.529673,253.417255 C518.502996,253.417255 516.856346,252.783928 515.589673,251.517255 C514.323,250.250582 513.689673,248.603932 513.689673,246.577255 L513.689673,7.17725473 C513.689673,5.15057793 514.323,3.50392773 515.589673,2.23725473 C516.856346,0.970581727 518.502996,0.337254727 520.529673,0.337254727 L575.249673,0.337254727 C581.076369,0.337254727 585.952987,2.30056843 589.879673,6.22725473 C593.806359,10.153941 595.769673,15.0305589 595.769673,20.8572547 L595.769673,123.457255 Z M568.409673,34.5372547 C568.409673,32.5105779 567.776346,30.8639277 566.509673,29.5972547 C565.243,28.3305817 563.59635,27.6972547 561.569673,27.6972547 L520.529673,27.6972547 C526.356369,27.6972547 531.232987,29.6605684 535.159673,33.5872547 C539.086359,37.513941 541.049673,42.3905589 541.049673,48.2172547 L541.049673,123.457255 C541.049673,125.483932 541.683,127.130582 542.949673,128.397255 C544.216346,129.663928 545.862996,130.297255 547.889673,130.297255 L561.569673,130.297255 C563.59635,130.297255 565.243,129.663928 566.509673,128.397255 C567.776346,127.130582 568.409673,125.483932 568.409673,123.457255 L568.409673,34.5372547 Z M677.849673,0.337254727 C683.676369,0.337254727 688.552987,2.30056843 692.479673,6.22725473 C696.406359,10.153941 698.369673,15.0305589 698.369673,20.8572547 L698.369673,232.897255 C698.369673,238.723951 696.406359,243.600568 692.479673,247.527255 C688.552987,251.453941 683.676369,253.417255 677.849673,253.417255 L636.809673,253.417255 C630.982977,253.417255 626.106359,251.453941 622.179673,247.527255 C618.252987,243.600568 616.289673,238.723951 616.289673,232.897255 L616.289673,20.8572547 C616.289673,15.0305589 618.252987,10.153941 622.179673,6.22725473 C626.106359,2.30056843 630.982977,0.337254727 636.809673,0.337254727 L677.849673,0.337254727 Z M671.009673,34.5372547 C671.009673,32.5105779 670.376346,30.8639277 669.109673,29.5972547 C667.843,28.3305817 666.19635,27.6972547 664.169673,27.6972547 L623.129673,27.6972547 C628.956369,27.6972547 633.832987,29.6605684 637.759673,33.5872547 C641.686359,37.513941 643.649673,42.3905589 643.649673,48.2172547 L643.649673,219.217255 C643.649673,221.243932 644.283,222.890582 645.549673,224.157255 C646.816346,225.423928 648.462996,226.057255 650.489673,226.057255 L664.169673,226.057255 C666.19635,226.057255 667.843,225.423928 669.109673,224.157255 C670.376346,222.890582 671.009673,221.243932 671.009673,219.217255 L671.009673,34.5372547 Z M363.209673,267.177255 C363.209673,265.150578 363.843,263.503928 365.109673,262.237255 C366.376346,260.970582 368.022996,260.337255 370.049673,260.337255 L383.729673,260.337255 C385.75635,260.337255 387.403,260.970582 388.669673,262.237255 C389.936346,263.503928 390.569673,265.150578 390.569673,267.177255 L390.569673,465.537255 C390.569673,471.363951 388.606359,476.240568 384.679673,480.167255 C380.752987,484.093941 375.876369,486.057255 370.049673,486.057255 L411.089673,486.057255 C413.11635,486.057255 414.763,485.423928 416.029673,484.157255 C417.296346,482.890582 417.929673,481.243932 417.929673,479.217255 L417.929673,267.177255 C417.929673,265.150578 418.563,263.503928 419.829673,262.237255 C421.096346,260.970582 422.742996,260.337255 424.769673,260.337255 L438.449673,260.337255 C440.47635,260.337255 442.123,260.970582 443.389673,262.237255 C444.656346,263.503928 445.289673,265.150578 445.289673,267.177255 L445.289673,492.897255 C445.289673,498.723951 443.326359,503.600568 439.399673,507.527255 C435.472987,511.453941 430.596369,513.417255 424.769673,513.417255 L397.409673,513.417255 C391.582977,513.417255 386.706359,511.453941 382.779673,507.527255 C378.852987,503.600568 376.889673,498.723951 376.889673,492.897255 C376.889673,498.723951 374.926359,503.600568 370.999673,507.527255 C367.072987,511.453941 362.196369,513.417255 356.369673,513.417255 L329.009673,513.417255 C323.182977,513.417255 318.306359,511.453941 314.379673,507.527255 C310.452987,503.600568 308.489673,498.723951 308.489673,492.897255 L308.489673,267.177255 C308.489673,265.150578 309.123,263.503928 310.389673,262.237255 C311.656346,260.970582 313.302996,260.337255 315.329673,260.337255 L329.009673,260.337255 C331.03635,260.337255 332.683,260.970582 333.949673,262.237255 C335.216346,263.503928 335.849673,265.150578 335.849673,267.177255 L335.849673,465.537255 C335.849673,471.363951 333.886359,476.240568 329.959673,480.167255 C326.032987,484.093941 321.156369,486.057255 315.329673,486.057255 L356.369673,486.057255 C358.39635,486.057255 360.043,485.423928 361.309673,484.157255 C362.576346,482.890582 363.209673,481.243932 363.209673,479.217255 L363.209673,267.177255 Z M472.649673,513.417255 C470.622996,513.417255 468.976346,512.783928 467.709673,511.517255 C466.443,510.250582 465.809673,508.603932 465.809673,506.577255 L465.809673,267.177255 C465.809673,265.150578 466.443,263.503928 467.709673,262.237255 C468.976346,260.970582 470.622996,260.337255 472.649673,260.337255 L486.329673,260.337255 C488.35635,260.337255 490.003,260.970582 491.269673,262.237255 C492.536346,263.503928 493.169673,265.150578 493.169673,267.177255 L493.169673,506.577255 C493.169673,508.603932 492.536346,510.250582 491.269673,511.517255 C490.003,512.783928 488.35635,513.417255 486.329673,513.417255 L472.649673,513.417255 Z M575.249673,260.337255 C581.076369,260.337255 585.952987,262.300568 589.879673,266.227255 C593.806359,270.153941 595.769673,275.030559 595.769673,280.857255 L595.769673,492.897255 C595.769673,498.723951 593.806359,503.600568 589.879673,507.527255 C585.952987,511.453941 581.076369,513.417255 575.249673,513.417255 L520.529673,513.417255 C518.502996,513.417255 516.856346,512.783928 515.589673,511.517255 C514.323,510.250582 513.689673,508.603932 513.689673,506.577255 L513.689673,267.177255 C513.689673,265.150578 514.323,263.503928 515.589673,262.237255 C516.856346,260.970582 518.502996,260.337255 520.529673,260.337255 L575.249673,260.337255 Z M568.409673,294.537255 C568.409673,292.510578 567.776346,290.863928 566.509673,289.597255 C565.243,288.330582 563.59635,287.697255 561.569673,287.697255 L520.529673,287.697255 C526.356369,287.697255 531.232987,289.660568 535.159673,293.587255 C539.086359,297.513941 541.049673,302.390559 541.049673,308.217255 L541.049673,479.217255 C541.049673,481.243932 541.683,482.890582 542.949673,484.157255 C544.216346,485.423928 545.862996,486.057255 547.889673,486.057255 L561.569673,486.057255 C563.59635,486.057255 565.243,485.423928 566.509673,484.157255 C567.776346,482.890582 568.409673,481.243932 568.409673,479.217255 L568.409673,294.537255 Z M636.809673,513.417255 C630.982977,513.417255 626.106359,511.453941 622.179673,507.527255 C618.252987,503.600568 616.289673,498.723951 616.289673,492.897255 L616.289673,280.857255 C616.289673,275.030559 618.252987,270.153941 622.179673,266.227255 C626.106359,262.300568 630.982977,260.337255 636.809673,260.337255 L691.529673,260.337255 C693.55635,260.337255 695.203,260.970582 696.469673,262.237255 C697.736346,263.503928 698.369673,265.150578 698.369673,267.177255 L698.369673,280.857255 C698.369673,282.883932 697.736346,284.530582 696.469673,285.797255 C695.203,287.063928 693.55635,287.697255 691.529673,287.697255 L623.129673,287.697255 C628.956369,287.697255 633.832987,289.660568 637.759673,293.587255 C641.686359,297.513941 643.649673,302.390559 643.649673,308.217255 L643.649673,383.457255 C643.649673,385.483932 644.283,387.130582 645.549673,388.397255 C646.816346,389.663928 648.462996,390.297255 650.489673,390.297255 L664.169673,390.297255 C666.19635,390.297255 667.843,390.930582 669.109673,392.197255 C670.376346,393.463928 671.009673,395.110578 671.009673,397.137255 L671.009673,410.817255 C671.009673,412.843932 670.376346,414.490582 669.109673,415.757255 C667.843,417.023928 666.19635,417.657255 664.169673,417.657255 L623.129673,417.657255 C628.956369,417.657255 633.832987,419.620568 637.759673,423.547255 C641.686359,427.473941 643.649673,432.350559 643.649673,438.177255 L643.649673,479.217255 C643.649673,481.243932 644.283,482.890582 645.549673,484.157255 C646.816346,485.423928 648.462996,486.057255 650.489673,486.057255 L691.529673,486.057255 C693.55635,486.057255 695.203,486.690582 696.469673,487.957255 C697.736346,489.223928 698.369673,490.870578 698.369673,492.897255 L698.369673,506.577255 C698.369673,508.603932 697.736346,510.250582 696.469673,511.517255 C695.203,512.783928 693.55635,513.417255 691.529673,513.417255 L636.809673,513.417255 Z M62.249673,520.337255 C68.0763688,520.337255 72.9529867,522.300568 76.879673,526.227255 C80.8063593,530.153941 82.769673,535.030559 82.769673,540.857255 L82.769673,568.217255 C82.769673,570.243932 82.136346,571.890582 80.869673,573.157255 C79.603,574.423928 77.9563498,575.057255 75.929673,575.057255 L62.249673,575.057255 C60.2229962,575.057255 58.576346,574.423928 57.309673,573.157255 C56.043,571.890582 55.409673,570.243932 55.409673,568.217255 L55.409673,554.537255 C55.409673,552.510578 54.776346,550.863928 53.509673,549.597255 C52.243,548.330582 50.5963498,547.697255 48.569673,547.697255 L7.52967303,547.697255 C13.3563688,547.697255 18.2329867,549.660568 22.159673,553.587255 C26.0863593,557.513941 28.049673,562.390559 28.049673,568.217255 L28.049673,616.097255 C28.049673,618.123932 28.683,619.770582 29.949673,621.037255 C31.216346,622.303928 32.8629962,622.937255 34.889673,622.937255 L62.249673,622.937255 C68.0763688,622.937255 72.9529867,624.900568 76.879673,628.827255 C80.8063593,632.753941 82.769673,637.630559 82.769673,643.457255 L82.769673,752.897255 C82.769673,758.723951 80.8063593,763.600568 76.879673,767.527255 C72.9529867,771.453941 68.0763688,773.417255 62.249673,773.417255 L21.209673,773.417255 C15.3829772,773.417255 10.5063593,771.453941 6.57967303,767.527255 C2.65298673,763.600568 0.689673029,758.723951 0.689673029,752.897255 L0.689673029,725.537255 C0.689673029,723.510578 1.32300003,721.863928 2.58967303,720.597255 C3.85634603,719.330582 5.50299623,718.697255 7.52967303,718.697255 L21.209673,718.697255 C23.2363498,718.697255 24.883,719.330582 26.149673,720.597255 C27.416346,721.863928 28.049673,723.510578 28.049673,725.537255 L28.049673,739.217255 C28.049673,741.243932 28.683,742.890582 29.949673,744.157255 C31.216346,745.423928 32.8629962,746.057255 34.889673,746.057255 L48.569673,746.057255 C50.5963498,746.057255 52.243,745.423928 53.509673,744.157255 C54.776346,742.890582 55.409673,741.243932 55.409673,739.217255 L55.409673,657.137255 C55.409673,655.110578 54.776346,653.463928 53.509673,652.197255 C52.243,650.930582 50.5963498,650.297255 48.569673,650.297255 L21.209673,650.297255 C15.3829772,650.297255 10.5063593,648.333941 6.57967303,644.407255 C2.65298673,640.480568 0.689673029,635.603951 0.689673029,629.777255 L0.689673029,540.857255 C0.689673029,535.030559 2.65298673,530.153941 6.57967303,526.227255 C10.5063593,522.300568 15.3829772,520.337255 21.209673,520.337255 L62.249673,520.337255 Z M110.129673,773.417255 C108.102996,773.417255 106.456346,772.783928 105.189673,771.517255 C103.923,770.250582 103.289673,768.603932 103.289673,766.577255 L103.289673,527.177255 C103.289673,525.150578 103.923,523.503928 105.189673,522.237255 C106.456346,520.970582 108.102996,520.337255 110.129673,520.337255 L123.809673,520.337255 C125.83635,520.337255 127.483,520.970582 128.749673,522.237255 C130.016346,523.503928 130.649673,525.150578 130.649673,527.177255 L130.649673,766.577255 C130.649673,768.603932 130.016346,770.250582 128.749673,771.517255 C127.483,772.783928 125.83635,773.417255 123.809673,773.417255 L110.129673,773.417255 Z M151.169673,527.177255 C151.169673,525.150578 151.803,523.503928 153.069673,522.237255 C154.336346,520.970582 155.982996,520.337255 158.009673,520.337255 L199.049673,520.337255 C204.876369,520.337255 209.752987,522.300568 213.679673,526.227255 C217.606359,530.153941 219.569673,535.030559 219.569673,540.857255 C219.569673,535.030559 221.532987,530.153941 225.459673,526.227255 C229.386359,522.300568 234.262977,520.337255 240.089673,520.337255 L267.449673,520.337255 C273.276369,520.337255 278.152987,522.300568 282.079673,526.227255 C286.006359,530.153941 287.969673,535.030559 287.969673,540.857255 L287.969673,766.577255 C287.969673,768.603932 287.336346,770.250582 286.069673,771.517255 C284.803,772.783928 283.15635,773.417255 281.129673,773.417255 L267.449673,773.417255 C265.422996,773.417255 263.776346,772.783928 262.509673,771.517255 C261.243,770.250582 260.609673,768.603932 260.609673,766.577255 L260.609673,554.537255 C260.609673,552.510578 259.976346,550.863928 258.709673,549.597255 C257.443,548.330582 255.79635,547.697255 253.769673,547.697255 L212.729673,547.697255 C218.556369,547.697255 223.432987,549.660568 227.359673,553.587255 C231.286359,557.513941 233.249673,562.390559 233.249673,568.217255 L233.249673,766.577255 C233.249673,768.603932 232.616346,770.250582 231.349673,771.517255 C230.083,772.783928 228.43635,773.417255 226.409673,773.417255 L212.729673,773.417255 C210.702996,773.417255 209.056346,772.783928 207.789673,771.517255 C206.523,770.250582 205.889673,768.603932 205.889673,766.577255 L205.889673,554.537255 C205.889673,552.510578 205.256346,550.863928 203.989673,549.597255 C202.723,548.330582 201.07635,547.697255 199.049673,547.697255 L158.009673,547.697255 C163.836369,547.697255 168.712987,549.660568 172.639673,553.587255 C176.566359,557.513941 178.529673,562.390559 178.529673,568.217255 L178.529673,766.577255 C178.529673,768.603932 177.896346,770.250582 176.629673,771.517255 C175.363,772.783928 173.71635,773.417255 171.689673,773.417255 L158.009673,773.417255 C155.982996,773.417255 154.336346,772.783928 153.069673,771.517255 C151.803,770.250582 151.169673,768.603932 151.169673,766.577255 L151.169673,527.177255 Z M329.009673,773.417255 C323.182977,773.417255 318.306359,771.453941 314.379673,767.527255 C310.452987,763.600568 308.489673,758.723951 308.489673,752.897255 L308.489673,540.857255 C308.489673,535.030559 310.452987,530.153941 314.379673,526.227255 C318.306359,522.300568 323.182977,520.337255 329.009673,520.337255 L370.049673,520.337255 C375.876369,520.337255 380.752987,522.300568 384.679673,526.227255 C388.606359,530.153941 390.569673,535.030559 390.569673,540.857255 L390.569673,568.217255 C390.569673,570.243932 389.936346,571.890582 388.669673,573.157255 C387.403,574.423928 385.75635,575.057255 383.729673,575.057255 L370.049673,575.057255 C368.022996,575.057255 366.376346,574.423928 365.109673,573.157255 C363.843,571.890582 363.209673,570.243932 363.209673,568.217255 L363.209673,554.537255 C363.209673,552.510578 362.576346,550.863928 361.309673,549.597255 C360.043,548.330582 358.39635,547.697255 356.369673,547.697255 L315.329673,547.697255 C321.156369,547.697255 326.032987,549.660568 329.959673,553.587255 C333.886359,557.513941 335.849673,562.390559 335.849673,568.217255 L335.849673,739.217255 C335.849673,741.243932 336.483,742.890582 337.749673,744.157255 C339.016346,745.423928 340.662996,746.057255 342.689673,746.057255 L356.369673,746.057255 C358.39635,746.057255 360.043,745.423928 361.309673,744.157255 C362.576346,742.890582 363.209673,741.243932 363.209673,739.217255 L363.209673,725.537255 C363.209673,723.510578 363.843,721.863928 365.109673,720.597255 C366.376346,719.330582 368.022996,718.697255 370.049673,718.697255 L383.729673,718.697255 C385.75635,718.697255 387.403,719.330582 388.669673,720.597255 C389.936346,721.863928 390.569673,723.510578 390.569673,725.537255 L390.569673,752.897255 C390.569673,758.723951 388.606359,763.600568 384.679673,767.527255 C380.752987,771.453941 375.876369,773.417255 370.049673,773.417255 L329.009673,773.417255 Z M472.649673,520.337255 C478.476369,520.337255 483.352987,522.300568 487.279673,526.227255 C491.206359,530.153941 493.169673,535.030559 493.169673,540.857255 L493.169673,766.577255 C493.169673,768.603932 492.536346,770.250582 491.269673,771.517255 C490.003,772.783928 488.35635,773.417255 486.329673,773.417255 L472.649673,773.417255 C470.622996,773.417255 468.976346,772.783928 467.709673,771.517255 C466.443,770.250582 465.809673,768.603932 465.809673,766.577255 L465.809673,684.497255 C465.809673,682.470578 465.176346,680.823928 463.909673,679.557255 C462.643,678.290582 460.99635,677.657255 458.969673,677.657255 L417.929673,677.657255 C423.756369,677.657255 428.632987,679.620568 432.559673,683.547255 C436.486359,687.473941 438.449673,692.350559 438.449673,698.177255 L438.449673,766.577255 C438.449673,768.603932 437.816346,770.250582 436.549673,771.517255 C435.283,772.783928 433.63635,773.417255 431.609673,773.417255 L417.929673,773.417255 C415.902996,773.417255 414.256346,772.783928 412.989673,771.517255 C411.723,770.250582 411.089673,768.603932 411.089673,766.577255 L411.089673,540.857255 C411.089673,535.030559 413.052987,530.153941 416.979673,526.227255 C420.906359,522.300568 425.782977,520.337255 431.609673,520.337255 L472.649673,520.337255 Z M465.809673,554.537255 C465.809673,552.510578 465.176346,550.863928 463.909673,549.597255 C462.643,548.330582 460.99635,547.697255 458.969673,547.697255 L417.929673,547.697255 C423.756369,547.697255 428.632987,549.660568 432.559673,553.587255 C436.486359,557.513941 438.449673,562.390559 438.449673,568.217255 L438.449673,643.457255 C438.449673,645.483932 439.083,647.130582 440.349673,648.397255 C441.616346,649.663928 443.262996,650.297255 445.289673,650.297255 L458.969673,650.297255 C460.99635,650.297255 462.643,649.663928 463.909673,648.397255 C465.176346,647.130582 465.809673,645.483932 465.809673,643.457255 L465.809673,554.537255 Z M595.769673,643.457255 C595.769673,649.283951 593.806359,654.160568 589.879673,658.087255 C585.952987,662.013941 581.076369,663.977255 575.249673,663.977255 C581.076369,663.977255 585.952987,665.940568 589.879673,669.867255 C593.806359,673.793941 595.769673,678.670559 595.769673,684.497255 L595.769673,766.577255 C595.769673,768.603932 595.136346,770.250582 593.869673,771.517255 C592.603,772.783928 590.95635,773.417255 588.929673,773.417255 L575.249673,773.417255 C573.222996,773.417255 571.576346,772.783928 570.309673,771.517255 C569.043,770.250582 568.409673,768.603932 568.409673,766.577255 L568.409673,684.497255 C568.409673,682.470578 567.776346,680.823928 566.509673,679.557255 C565.243,678.290582 563.59635,677.657255 561.569673,677.657255 L520.529673,677.657255 C526.356369,677.657255 531.232987,679.620568 535.159673,683.547255 C539.086359,687.473941 541.049673,692.350559 541.049673,698.177255 L541.049673,766.577255 C541.049673,768.603932 540.416346,770.250582 539.149673,771.517255 C537.883,772.783928 536.23635,773.417255 534.209673,773.417255 L520.529673,773.417255 C518.502996,773.417255 516.856346,772.783928 515.589673,771.517255 C514.323,770.250582 513.689673,768.603932 513.689673,766.577255 L513.689673,527.177255 C513.689673,525.150578 514.323,523.503928 515.589673,522.237255 C516.856346,520.970582 518.502996,520.337255 520.529673,520.337255 L575.249673,520.337255 C581.076369,520.337255 585.952987,522.300568 589.879673,526.227255 C593.806359,530.153941 595.769673,535.030559 595.769673,540.857255 L595.769673,643.457255 Z M568.409673,554.537255 C568.409673,552.510578 567.776346,550.863928 566.509673,549.597255 C565.243,548.330582 563.59635,547.697255 561.569673,547.697255 L520.529673,547.697255 C526.356369,547.697255 531.232987,549.660568 535.159673,553.587255 C539.086359,557.513941 541.049673,562.390559 541.049673,568.217255 L541.049673,643.457255 C541.049673,645.483932 541.683,647.130582 542.949673,648.397255 C544.216346,649.663928 545.862996,650.297255 547.889673,650.297255 L561.569673,650.297255 C563.59635,650.297255 565.243,649.663928 566.509673,648.397255 C567.776346,647.130582 568.409673,645.483932 568.409673,643.457255 L568.409673,554.537255 Z M677.849673,520.337255 C683.676369,520.337255 688.552987,522.300568 692.479673,526.227255 C696.406359,530.153941 698.369673,535.030559 698.369673,540.857255 L698.369673,752.897255 C698.369673,758.723951 696.406359,763.600568 692.479673,767.527255 C688.552987,771.453941 683.676369,773.417255 677.849673,773.417255 L623.129673,773.417255 C621.102996,773.417255 619.456346,772.783928 618.189673,771.517255 C616.923,770.250582 616.289673,768.603932 616.289673,766.577255 L616.289673,527.177255 C616.289673,525.150578 616.923,523.503928 618.189673,522.237255 C619.456346,520.970582 621.102996,520.337255 623.129673,520.337255 L677.849673,520.337255 Z M671.009673,554.537255 C671.009673,552.510578 670.376346,550.863928 669.109673,549.597255 C667.843,548.330582 666.19635,547.697255 664.169673,547.697255 L623.129673,547.697255 C628.956369,547.697255 633.832987,549.660568 637.759673,553.587255 C641.686359,557.513941 643.649673,562.390559 643.649673,568.217255 L643.649673,739.217255 C643.649673,741.243932 644.283,742.890582 645.549673,744.157255 C646.816346,745.423928 648.462996,746.057255 650.489673,746.057255 L664.169673,746.057255 C666.19635,746.057255 667.843,745.423928 669.109673,744.157255 C670.376346,742.890582 671.009673,741.243932 671.009673,739.217255 L671.009673,554.537255 Z" id="EURO-WIDE-SIMCARD-gray" fill="#E3E3E3"></path>
    </g>
</svg>