<?xml version="1.0" encoding="UTF-8"?>
<svg width="530px" height="612px" viewBox="0 0 698 774" version="1.1" xmlns="http://www.w3.org/2000/svg" xmlns:xlink="http://www.w3.org/1999/xlink">
    <!-- Generator: Sketch 51.3 (57544) - http://www.bohemiancoding.com/sketch -->
    <title>EURO WIDE SIMCARD Black</title>
    <desc>Created with Sketch.</desc>
    <defs></defs>
    <g id="Website" stroke="none" stroke-width="1" fill="none" fill-rule="evenodd">
        <path d="M328.414209,253.789889 C322.587513,253.789889 317.710895,251.826576 313.784209,247.899889 C309.857523,243.973203 307.894209,239.096585 307.894209,233.269889 L307.894209,21.2298892 C307.894209,15.4031934 309.857523,10.5265755 313.784209,6.59988925 C317.710895,2.67320295 322.587513,0.709889245 328.414209,0.709889245 L383.134209,0.709889245 C385.160886,0.709889245 386.807536,1.34321625 388.074209,2.60988925 C389.340882,3.87656225 389.974209,5.52321245 389.974209,7.54988925 L389.974209,21.2298892 C389.974209,23.256566 389.340882,24.9032162 388.074209,26.1698892 C386.807536,27.4365622 385.160886,28.0698892 383.134209,28.0698892 L314.734209,28.0698892 C320.560905,28.0698892 325.437523,30.0332029 329.364209,33.9598892 C333.290895,37.8865755 335.254209,42.7631934 335.254209,48.5898892 L335.254209,123.829889 C335.254209,125.856566 335.887536,127.503216 337.154209,128.769889 C338.420882,130.036562 340.067532,130.669889 342.094209,130.669889 L355.774209,130.669889 C357.800886,130.669889 359.447536,131.303216 360.714209,132.569889 C361.980882,133.836562 362.614209,135.483212 362.614209,137.509889 L362.614209,151.189889 C362.614209,153.216566 361.980882,154.863216 360.714209,156.129889 C359.447536,157.396562 357.800886,158.029889 355.774209,158.029889 L314.734209,158.029889 C320.560905,158.029889 325.437523,159.993203 329.364209,163.919889 C333.290895,167.846576 335.254209,172.723193 335.254209,178.549889 L335.254209,219.589889 C335.254209,221.616566 335.887536,223.263216 337.154209,224.529889 C338.420882,225.796562 340.067532,226.429889 342.094209,226.429889 L383.134209,226.429889 C385.160886,226.429889 386.807536,227.063216 388.074209,228.329889 C389.340882,229.596562 389.974209,231.243212 389.974209,233.269889 L389.974209,246.949889 C389.974209,248.976566 389.340882,250.623216 388.074209,251.889889 C386.807536,253.156562 385.160886,253.789889 383.134209,253.789889 L328.414209,253.789889 Z M431.014209,0.709889245 C433.040886,0.709889245 434.687536,1.34321625 435.954209,2.60988925 C437.220882,3.87656225 437.854209,5.52321245 437.854209,7.54988925 L437.854209,205.909889 C437.854209,211.736585 435.890895,216.613203 431.964209,220.539889 C428.037523,224.466576 423.160905,226.429889 417.334209,226.429889 L458.374209,226.429889 C460.400886,226.429889 462.047536,225.796562 463.314209,224.529889 C464.580882,223.263216 465.214209,221.616566 465.214209,219.589889 L465.214209,7.54988925 C465.214209,5.52321245 465.847536,3.87656225 467.114209,2.60988925 C468.380882,1.34321625 470.027532,0.709889245 472.054209,0.709889245 L485.734209,0.709889245 C487.760886,0.709889245 489.407536,1.34321625 490.674209,2.60988925 C491.940882,3.87656225 492.574209,5.52321245 492.574209,7.54988925 L492.574209,246.949889 C492.574209,248.976566 491.940882,250.623216 490.674209,251.889889 C489.407536,253.156562 487.760886,253.789889 485.734209,253.789889 L431.014209,253.789889 C425.187513,253.789889 420.310895,251.826576 416.384209,247.899889 C412.457523,243.973203 410.494209,239.096585 410.494209,233.269889 L410.494209,7.54988925 C410.494209,5.52321245 411.127536,3.87656225 412.394209,2.60988925 C413.660882,1.34321625 415.307532,0.709889245 417.334209,0.709889245 L431.014209,0.709889245 Z M595.174209,123.829889 C595.174209,129.656585 593.210895,134.533203 589.284209,138.459889 C585.357523,142.386576 580.480905,144.349889 574.654209,144.349889 C580.480905,144.349889 585.357523,146.313203 589.284209,150.239889 C593.210895,154.166576 595.174209,159.043193 595.174209,164.869889 L595.174209,246.949889 C595.174209,248.976566 594.540882,250.623216 593.274209,251.889889 C592.007536,253.156562 590.360886,253.789889 588.334209,253.789889 L574.654209,253.789889 C572.627532,253.789889 570.980882,253.156562 569.714209,251.889889 C568.447536,250.623216 567.814209,248.976566 567.814209,246.949889 L567.814209,164.869889 C567.814209,162.843212 567.180882,161.196562 565.914209,159.929889 C564.647536,158.663216 563.000886,158.029889 560.974209,158.029889 L519.934209,158.029889 C525.760905,158.029889 530.637523,159.993203 534.564209,163.919889 C538.490895,167.846576 540.454209,172.723193 540.454209,178.549889 L540.454209,246.949889 C540.454209,248.976566 539.820882,250.623216 538.554209,251.889889 C537.287536,253.156562 535.640886,253.789889 533.614209,253.789889 L519.934209,253.789889 C517.907532,253.789889 516.260882,253.156562 514.994209,251.889889 C513.727536,250.623216 513.094209,248.976566 513.094209,246.949889 L513.094209,7.54988925 C513.094209,5.52321245 513.727536,3.87656225 514.994209,2.60988925 C516.260882,1.34321625 517.907532,0.709889245 519.934209,0.709889245 L574.654209,0.709889245 C580.480905,0.709889245 585.357523,2.67320295 589.284209,6.59988925 C593.210895,10.5265755 595.174209,15.4031934 595.174209,21.2298892 L595.174209,123.829889 Z M567.814209,34.9098892 C567.814209,32.8832124 567.180882,31.2365622 565.914209,29.9698892 C564.647536,28.7032162 563.000886,28.0698892 560.974209,28.0698892 L519.934209,28.0698892 C525.760905,28.0698892 530.637523,30.0332029 534.564209,33.9598892 C538.490895,37.8865755 540.454209,42.7631934 540.454209,48.5898892 L540.454209,123.829889 C540.454209,125.856566 541.087536,127.503216 542.354209,128.769889 C543.620882,130.036562 545.267532,130.669889 547.294209,130.669889 L560.974209,130.669889 C563.000886,130.669889 564.647536,130.036562 565.914209,128.769889 C567.180882,127.503216 567.814209,125.856566 567.814209,123.829889 L567.814209,34.9098892 Z M677.254209,0.709889245 C683.080905,0.709889245 687.957523,2.67320295 691.884209,6.59988925 C695.810895,10.5265755 697.774209,15.4031934 697.774209,21.2298892 L697.774209,233.269889 C697.774209,239.096585 695.810895,243.973203 691.884209,247.899889 C687.957523,251.826576 683.080905,253.789889 677.254209,253.789889 L636.214209,253.789889 C630.387513,253.789889 625.510895,251.826576 621.584209,247.899889 C617.657523,243.973203 615.694209,239.096585 615.694209,233.269889 L615.694209,21.2298892 C615.694209,15.4031934 617.657523,10.5265755 621.584209,6.59988925 C625.510895,2.67320295 630.387513,0.709889245 636.214209,0.709889245 L677.254209,0.709889245 Z M670.414209,34.9098892 C670.414209,32.8832124 669.780882,31.2365622 668.514209,29.9698892 C667.247536,28.7032162 665.600886,28.0698892 663.574209,28.0698892 L622.534209,28.0698892 C628.360905,28.0698892 633.237523,30.0332029 637.164209,33.9598892 C641.090895,37.8865755 643.054209,42.7631934 643.054209,48.5898892 L643.054209,219.589889 C643.054209,221.616566 643.687536,223.263216 644.954209,224.529889 C646.220882,225.796562 647.867532,226.429889 649.894209,226.429889 L663.574209,226.429889 C665.600886,226.429889 667.247536,225.796562 668.514209,224.529889 C669.780882,223.263216 670.414209,221.616566 670.414209,219.589889 L670.414209,34.9098892 Z M362.614209,267.549889 C362.614209,265.523212 363.247536,263.876562 364.514209,262.609889 C365.780882,261.343216 367.427532,260.709889 369.454209,260.709889 L383.134209,260.709889 C385.160886,260.709889 386.807536,261.343216 388.074209,262.609889 C389.340882,263.876562 389.974209,265.523212 389.974209,267.549889 L389.974209,465.909889 C389.974209,471.736585 388.010895,476.613203 384.084209,480.539889 C380.157523,484.466576 375.280905,486.429889 369.454209,486.429889 L410.494209,486.429889 C412.520886,486.429889 414.167536,485.796562 415.434209,484.529889 C416.700882,483.263216 417.334209,481.616566 417.334209,479.589889 L417.334209,267.549889 C417.334209,265.523212 417.967536,263.876562 419.234209,262.609889 C420.500882,261.343216 422.147532,260.709889 424.174209,260.709889 L437.854209,260.709889 C439.880886,260.709889 441.527536,261.343216 442.794209,262.609889 C444.060882,263.876562 444.694209,265.523212 444.694209,267.549889 L444.694209,493.269889 C444.694209,499.096585 442.730895,503.973203 438.804209,507.899889 C434.877523,511.826576 430.000905,513.789889 424.174209,513.789889 L396.814209,513.789889 C390.987513,513.789889 386.110895,511.826576 382.184209,507.899889 C378.257523,503.973203 376.294209,499.096585 376.294209,493.269889 C376.294209,499.096585 374.330895,503.973203 370.404209,507.899889 C366.477523,511.826576 361.600905,513.789889 355.774209,513.789889 L328.414209,513.789889 C322.587513,513.789889 317.710895,511.826576 313.784209,507.899889 C309.857523,503.973203 307.894209,499.096585 307.894209,493.269889 L307.894209,267.549889 C307.894209,265.523212 308.527536,263.876562 309.794209,262.609889 C311.060882,261.343216 312.707532,260.709889 314.734209,260.709889 L328.414209,260.709889 C330.440886,260.709889 332.087536,261.343216 333.354209,262.609889 C334.620882,263.876562 335.254209,265.523212 335.254209,267.549889 L335.254209,465.909889 C335.254209,471.736585 333.290895,476.613203 329.364209,480.539889 C325.437523,484.466576 320.560905,486.429889 314.734209,486.429889 L355.774209,486.429889 C357.800886,486.429889 359.447536,485.796562 360.714209,484.529889 C361.980882,483.263216 362.614209,481.616566 362.614209,479.589889 L362.614209,267.549889 Z M472.054209,513.789889 C470.027532,513.789889 468.380882,513.156562 467.114209,511.889889 C465.847536,510.623216 465.214209,508.976566 465.214209,506.949889 L465.214209,267.549889 C465.214209,265.523212 465.847536,263.876562 467.114209,262.609889 C468.380882,261.343216 470.027532,260.709889 472.054209,260.709889 L485.734209,260.709889 C487.760886,260.709889 489.407536,261.343216 490.674209,262.609889 C491.940882,263.876562 492.574209,265.523212 492.574209,267.549889 L492.574209,506.949889 C492.574209,508.976566 491.940882,510.623216 490.674209,511.889889 C489.407536,513.156562 487.760886,513.789889 485.734209,513.789889 L472.054209,513.789889 Z M574.654209,260.709889 C580.480905,260.709889 585.357523,262.673203 589.284209,266.599889 C593.210895,270.526576 595.174209,275.403193 595.174209,281.229889 L595.174209,493.269889 C595.174209,499.096585 593.210895,503.973203 589.284209,507.899889 C585.357523,511.826576 580.480905,513.789889 574.654209,513.789889 L519.934209,513.789889 C517.907532,513.789889 516.260882,513.156562 514.994209,511.889889 C513.727536,510.623216 513.094209,508.976566 513.094209,506.949889 L513.094209,267.549889 C513.094209,265.523212 513.727536,263.876562 514.994209,262.609889 C516.260882,261.343216 517.907532,260.709889 519.934209,260.709889 L574.654209,260.709889 Z M567.814209,294.909889 C567.814209,292.883212 567.180882,291.236562 565.914209,289.969889 C564.647536,288.703216 563.000886,288.069889 560.974209,288.069889 L519.934209,288.069889 C525.760905,288.069889 530.637523,290.033203 534.564209,293.959889 C538.490895,297.886576 540.454209,302.763193 540.454209,308.589889 L540.454209,479.589889 C540.454209,481.616566 541.087536,483.263216 542.354209,484.529889 C543.620882,485.796562 545.267532,486.429889 547.294209,486.429889 L560.974209,486.429889 C563.000886,486.429889 564.647536,485.796562 565.914209,484.529889 C567.180882,483.263216 567.814209,481.616566 567.814209,479.589889 L567.814209,294.909889 Z M636.214209,513.789889 C630.387513,513.789889 625.510895,511.826576 621.584209,507.899889 C617.657523,503.973203 615.694209,499.096585 615.694209,493.269889 L615.694209,281.229889 C615.694209,275.403193 617.657523,270.526576 621.584209,266.599889 C625.510895,262.673203 630.387513,260.709889 636.214209,260.709889 L690.934209,260.709889 C692.960886,260.709889 694.607536,261.343216 695.874209,262.609889 C697.140882,263.876562 697.774209,265.523212 697.774209,267.549889 L697.774209,281.229889 C697.774209,283.256566 697.140882,284.903216 695.874209,286.169889 C694.607536,287.436562 692.960886,288.069889 690.934209,288.069889 L622.534209,288.069889 C628.360905,288.069889 633.237523,290.033203 637.164209,293.959889 C641.090895,297.886576 643.054209,302.763193 643.054209,308.589889 L643.054209,383.829889 C643.054209,385.856566 643.687536,387.503216 644.954209,388.769889 C646.220882,390.036562 647.867532,390.669889 649.894209,390.669889 L663.574209,390.669889 C665.600886,390.669889 667.247536,391.303216 668.514209,392.569889 C669.780882,393.836562 670.414209,395.483212 670.414209,397.509889 L670.414209,411.189889 C670.414209,413.216566 669.780882,414.863216 668.514209,416.129889 C667.247536,417.396562 665.600886,418.029889 663.574209,418.029889 L622.534209,418.029889 C628.360905,418.029889 633.237523,419.993203 637.164209,423.919889 C641.090895,427.846576 643.054209,432.723193 643.054209,438.549889 L643.054209,479.589889 C643.054209,481.616566 643.687536,483.263216 644.954209,484.529889 C646.220882,485.796562 647.867532,486.429889 649.894209,486.429889 L690.934209,486.429889 C692.960886,486.429889 694.607536,487.063216 695.874209,488.329889 C697.140882,489.596562 697.774209,491.243212 697.774209,493.269889 L697.774209,506.949889 C697.774209,508.976566 697.140882,510.623216 695.874209,511.889889 C694.607536,513.156562 692.960886,513.789889 690.934209,513.789889 L636.214209,513.789889 Z M61.6542089,520.709889 C67.4809047,520.709889 72.3575226,522.673203 76.2842089,526.599889 C80.2108952,530.526576 82.1742089,535.403193 82.1742089,541.229889 L82.1742089,568.589889 C82.1742089,570.616566 81.5408819,572.263216 80.2742089,573.529889 C79.0075359,574.796562 77.3608857,575.429889 75.3342089,575.429889 L61.6542089,575.429889 C59.6275321,575.429889 57.9808819,574.796562 56.7142089,573.529889 C55.4475359,572.263216 54.8142089,570.616566 54.8142089,568.589889 L54.8142089,554.909889 C54.8142089,552.883212 54.1808819,551.236562 52.9142089,549.969889 C51.6475359,548.703216 50.0008857,548.069889 47.9742089,548.069889 L6.93420894,548.069889 C12.7609047,548.069889 17.6375226,550.033203 21.5642089,553.959889 C25.4908952,557.886576 27.4542089,562.763193 27.4542089,568.589889 L27.4542089,616.469889 C27.4542089,618.496566 28.0875359,620.143216 29.3542089,621.409889 C30.6208819,622.676562 32.2675321,623.309889 34.2942089,623.309889 L61.6542089,623.309889 C67.4809047,623.309889 72.3575226,625.273203 76.2842089,629.199889 C80.2108952,633.126576 82.1742089,638.003193 82.1742089,643.829889 L82.1742089,753.269889 C82.1742089,759.096585 80.2108952,763.973203 76.2842089,767.899889 C72.3575226,771.826576 67.4809047,773.789889 61.6542089,773.789889 L20.6142089,773.789889 C14.7875131,773.789889 9.91089524,771.826576 5.98420894,767.899889 C2.05752264,763.973203 0.0942089387,759.096585 0.0942089387,753.269889 L0.0942089387,725.909889 C0.0942089387,723.883212 0.727535939,722.236562 1.99420894,720.969889 C3.26088194,719.703216 4.90753214,719.069889 6.93420894,719.069889 L20.6142089,719.069889 C22.6408857,719.069889 24.2875359,719.703216 25.5542089,720.969889 C26.8208819,722.236562 27.4542089,723.883212 27.4542089,725.909889 L27.4542089,739.589889 C27.4542089,741.616566 28.0875359,743.263216 29.3542089,744.529889 C30.6208819,745.796562 32.2675321,746.429889 34.2942089,746.429889 L47.9742089,746.429889 C50.0008857,746.429889 51.6475359,745.796562 52.9142089,744.529889 C54.1808819,743.263216 54.8142089,741.616566 54.8142089,739.589889 L54.8142089,657.509889 C54.8142089,655.483212 54.1808819,653.836562 52.9142089,652.569889 C51.6475359,651.303216 50.0008857,650.669889 47.9742089,650.669889 L20.6142089,650.669889 C14.7875131,650.669889 9.91089524,648.706576 5.98420894,644.779889 C2.05752264,640.853203 0.0942089387,635.976585 0.0942089387,630.149889 L0.0942089387,541.229889 C0.0942089387,535.403193 2.05752264,530.526576 5.98420894,526.599889 C9.91089524,522.673203 14.7875131,520.709889 20.6142089,520.709889 L61.6542089,520.709889 Z M109.534209,773.789889 C107.507532,773.789889 105.860882,773.156562 104.594209,771.889889 C103.327536,770.623216 102.694209,768.976566 102.694209,766.949889 L102.694209,527.549889 C102.694209,525.523212 103.327536,523.876562 104.594209,522.609889 C105.860882,521.343216 107.507532,520.709889 109.534209,520.709889 L123.214209,520.709889 C125.240886,520.709889 126.887536,521.343216 128.154209,522.609889 C129.420882,523.876562 130.054209,525.523212 130.054209,527.549889 L130.054209,766.949889 C130.054209,768.976566 129.420882,770.623216 128.154209,771.889889 C126.887536,773.156562 125.240886,773.789889 123.214209,773.789889 L109.534209,773.789889 Z M150.574209,527.549889 C150.574209,525.523212 151.207536,523.876562 152.474209,522.609889 C153.740882,521.343216 155.387532,520.709889 157.414209,520.709889 L198.454209,520.709889 C204.280905,520.709889 209.157523,522.673203 213.084209,526.599889 C217.010895,530.526576 218.974209,535.403193 218.974209,541.229889 C218.974209,535.403193 220.937523,530.526576 224.864209,526.599889 C228.790895,522.673203 233.667513,520.709889 239.494209,520.709889 L266.854209,520.709889 C272.680905,520.709889 277.557523,522.673203 281.484209,526.599889 C285.410895,530.526576 287.374209,535.403193 287.374209,541.229889 L287.374209,766.949889 C287.374209,768.976566 286.740882,770.623216 285.474209,771.889889 C284.207536,773.156562 282.560886,773.789889 280.534209,773.789889 L266.854209,773.789889 C264.827532,773.789889 263.180882,773.156562 261.914209,771.889889 C260.647536,770.623216 260.014209,768.976566 260.014209,766.949889 L260.014209,554.909889 C260.014209,552.883212 259.380882,551.236562 258.114209,549.969889 C256.847536,548.703216 255.200886,548.069889 253.174209,548.069889 L212.134209,548.069889 C217.960905,548.069889 222.837523,550.033203 226.764209,553.959889 C230.690895,557.886576 232.654209,562.763193 232.654209,568.589889 L232.654209,766.949889 C232.654209,768.976566 232.020882,770.623216 230.754209,771.889889 C229.487536,773.156562 227.840886,773.789889 225.814209,773.789889 L212.134209,773.789889 C210.107532,773.789889 208.460882,773.156562 207.194209,771.889889 C205.927536,770.623216 205.294209,768.976566 205.294209,766.949889 L205.294209,554.909889 C205.294209,552.883212 204.660882,551.236562 203.394209,549.969889 C202.127536,548.703216 200.480886,548.069889 198.454209,548.069889 L157.414209,548.069889 C163.240905,548.069889 168.117523,550.033203 172.044209,553.959889 C175.970895,557.886576 177.934209,562.763193 177.934209,568.589889 L177.934209,766.949889 C177.934209,768.976566 177.300882,770.623216 176.034209,771.889889 C174.767536,773.156562 173.120886,773.789889 171.094209,773.789889 L157.414209,773.789889 C155.387532,773.789889 153.740882,773.156562 152.474209,771.889889 C151.207536,770.623216 150.574209,768.976566 150.574209,766.949889 L150.574209,527.549889 Z M328.414209,773.789889 C322.587513,773.789889 317.710895,771.826576 313.784209,767.899889 C309.857523,763.973203 307.894209,759.096585 307.894209,753.269889 L307.894209,541.229889 C307.894209,535.403193 309.857523,530.526576 313.784209,526.599889 C317.710895,522.673203 322.587513,520.709889 328.414209,520.709889 L369.454209,520.709889 C375.280905,520.709889 380.157523,522.673203 384.084209,526.599889 C388.010895,530.526576 389.974209,535.403193 389.974209,541.229889 L389.974209,568.589889 C389.974209,570.616566 389.340882,572.263216 388.074209,573.529889 C386.807536,574.796562 385.160886,575.429889 383.134209,575.429889 L369.454209,575.429889 C367.427532,575.429889 365.780882,574.796562 364.514209,573.529889 C363.247536,572.263216 362.614209,570.616566 362.614209,568.589889 L362.614209,554.909889 C362.614209,552.883212 361.980882,551.236562 360.714209,549.969889 C359.447536,548.703216 357.800886,548.069889 355.774209,548.069889 L314.734209,548.069889 C320.560905,548.069889 325.437523,550.033203 329.364209,553.959889 C333.290895,557.886576 335.254209,562.763193 335.254209,568.589889 L335.254209,739.589889 C335.254209,741.616566 335.887536,743.263216 337.154209,744.529889 C338.420882,745.796562 340.067532,746.429889 342.094209,746.429889 L355.774209,746.429889 C357.800886,746.429889 359.447536,745.796562 360.714209,744.529889 C361.980882,743.263216 362.614209,741.616566 362.614209,739.589889 L362.614209,725.909889 C362.614209,723.883212 363.247536,722.236562 364.514209,720.969889 C365.780882,719.703216 367.427532,719.069889 369.454209,719.069889 L383.134209,719.069889 C385.160886,719.069889 386.807536,719.703216 388.074209,720.969889 C389.340882,722.236562 389.974209,723.883212 389.974209,725.909889 L389.974209,753.269889 C389.974209,759.096585 388.010895,763.973203 384.084209,767.899889 C380.157523,771.826576 375.280905,773.789889 369.454209,773.789889 L328.414209,773.789889 Z M472.054209,520.709889 C477.880905,520.709889 482.757523,522.673203 486.684209,526.599889 C490.610895,530.526576 492.574209,535.403193 492.574209,541.229889 L492.574209,766.949889 C492.574209,768.976566 491.940882,770.623216 490.674209,771.889889 C489.407536,773.156562 487.760886,773.789889 485.734209,773.789889 L472.054209,773.789889 C470.027532,773.789889 468.380882,773.156562 467.114209,771.889889 C465.847536,770.623216 465.214209,768.976566 465.214209,766.949889 L465.214209,684.869889 C465.214209,682.843212 464.580882,681.196562 463.314209,679.929889 C462.047536,678.663216 460.400886,678.029889 458.374209,678.029889 L417.334209,678.029889 C423.160905,678.029889 428.037523,679.993203 431.964209,683.919889 C435.890895,687.846576 437.854209,692.723193 437.854209,698.549889 L437.854209,766.949889 C437.854209,768.976566 437.220882,770.623216 435.954209,771.889889 C434.687536,773.156562 433.040886,773.789889 431.014209,773.789889 L417.334209,773.789889 C415.307532,773.789889 413.660882,773.156562 412.394209,771.889889 C411.127536,770.623216 410.494209,768.976566 410.494209,766.949889 L410.494209,541.229889 C410.494209,535.403193 412.457523,530.526576 416.384209,526.599889 C420.310895,522.673203 425.187513,520.709889 431.014209,520.709889 L472.054209,520.709889 Z M465.214209,554.909889 C465.214209,552.883212 464.580882,551.236562 463.314209,549.969889 C462.047536,548.703216 460.400886,548.069889 458.374209,548.069889 L417.334209,548.069889 C423.160905,548.069889 428.037523,550.033203 431.964209,553.959889 C435.890895,557.886576 437.854209,562.763193 437.854209,568.589889 L437.854209,643.829889 C437.854209,645.856566 438.487536,647.503216 439.754209,648.769889 C441.020882,650.036562 442.667532,650.669889 444.694209,650.669889 L458.374209,650.669889 C460.400886,650.669889 462.047536,650.036562 463.314209,648.769889 C464.580882,647.503216 465.214209,645.856566 465.214209,643.829889 L465.214209,554.909889 Z M595.174209,643.829889 C595.174209,649.656585 593.210895,654.533203 589.284209,658.459889 C585.357523,662.386576 580.480905,664.349889 574.654209,664.349889 C580.480905,664.349889 585.357523,666.313203 589.284209,670.239889 C593.210895,674.166576 595.174209,679.043193 595.174209,684.869889 L595.174209,766.949889 C595.174209,768.976566 594.540882,770.623216 593.274209,771.889889 C592.007536,773.156562 590.360886,773.789889 588.334209,773.789889 L574.654209,773.789889 C572.627532,773.789889 570.980882,773.156562 569.714209,771.889889 C568.447536,770.623216 567.814209,768.976566 567.814209,766.949889 L567.814209,684.869889 C567.814209,682.843212 567.180882,681.196562 565.914209,679.929889 C564.647536,678.663216 563.000886,678.029889 560.974209,678.029889 L519.934209,678.029889 C525.760905,678.029889 530.637523,679.993203 534.564209,683.919889 C538.490895,687.846576 540.454209,692.723193 540.454209,698.549889 L540.454209,766.949889 C540.454209,768.976566 539.820882,770.623216 538.554209,771.889889 C537.287536,773.156562 535.640886,773.789889 533.614209,773.789889 L519.934209,773.789889 C517.907532,773.789889 516.260882,773.156562 514.994209,771.889889 C513.727536,770.623216 513.094209,768.976566 513.094209,766.949889 L513.094209,527.549889 C513.094209,525.523212 513.727536,523.876562 514.994209,522.609889 C516.260882,521.343216 517.907532,520.709889 519.934209,520.709889 L574.654209,520.709889 C580.480905,520.709889 585.357523,522.673203 589.284209,526.599889 C593.210895,530.526576 595.174209,535.403193 595.174209,541.229889 L595.174209,643.829889 Z M567.814209,554.909889 C567.814209,552.883212 567.180882,551.236562 565.914209,549.969889 C564.647536,548.703216 563.000886,548.069889 560.974209,548.069889 L519.934209,548.069889 C525.760905,548.069889 530.637523,550.033203 534.564209,553.959889 C538.490895,557.886576 540.454209,562.763193 540.454209,568.589889 L540.454209,643.829889 C540.454209,645.856566 541.087536,647.503216 542.354209,648.769889 C543.620882,650.036562 545.267532,650.669889 547.294209,650.669889 L560.974209,650.669889 C563.000886,650.669889 564.647536,650.036562 565.914209,648.769889 C567.180882,647.503216 567.814209,645.856566 567.814209,643.829889 L567.814209,554.909889 Z M677.254209,520.709889 C683.080905,520.709889 687.957523,522.673203 691.884209,526.599889 C695.810895,530.526576 697.774209,535.403193 697.774209,541.229889 L697.774209,753.269889 C697.774209,759.096585 695.810895,763.973203 691.884209,767.899889 C687.957523,771.826576 683.080905,773.789889 677.254209,773.789889 L622.534209,773.789889 C620.507532,773.789889 618.860882,773.156562 617.594209,771.889889 C616.327536,770.623216 615.694209,768.976566 615.694209,766.949889 L615.694209,527.549889 C615.694209,525.523212 616.327536,523.876562 617.594209,522.609889 C618.860882,521.343216 620.507532,520.709889 622.534209,520.709889 L677.254209,520.709889 Z M670.414209,554.909889 C670.414209,552.883212 669.780882,551.236562 668.514209,549.969889 C667.247536,548.703216 665.600886,548.069889 663.574209,548.069889 L622.534209,548.069889 C628.360905,548.069889 633.237523,550.033203 637.164209,553.959889 C641.090895,557.886576 643.054209,562.763193 643.054209,568.589889 L643.054209,739.589889 C643.054209,741.616566 643.687536,743.263216 644.954209,744.529889 C646.220882,745.796562 647.867532,746.429889 649.894209,746.429889 L663.574209,746.429889 C665.600886,746.429889 667.247536,745.796562 668.514209,744.529889 C669.780882,743.263216 670.414209,741.616566 670.414209,739.589889 L670.414209,554.909889 Z" id="EURO-WIDE-SIMCARD-Black" fill="#1e1e1e"></path>
    </g>
</svg>