<?xml version="1.0" encoding="UTF-8"?>
<svg width="441px" height="514px" viewBox="0 0 441 514" version="1.1" xmlns="http://www.w3.org/2000/svg" xmlns:xlink="http://www.w3.org/1999/xlink">
    <!-- Generator: Sketch 49.1 (51147) - http://www.bohemiancoding.com/sketch -->
    <title>factor</title>
    <desc>Created with Sketch.</desc>
    <defs></defs>
    <g id="Page-7" stroke="none" stroke-width="1" fill="none" fill-rule="evenodd">
        <g id="factor" fill="#404040" fill-rule="nonzero">
            <circle id="Oval" cx="82.083" cy="244.945" r="11.636"></circle>
            <path d="M436.992,1.745 C433.501,-0.582 428.846,-0.582 425.356,1.745 L396.265,21.527 L368.337,2.909 C364.846,0.582 359.028,0.582 355.537,2.909 L326.446,21.527 L298.519,2.909 C295.028,0.582 289.21,0.582 285.719,2.909 L256.628,21.527 L228.701,2.909 C225.21,0.582 219.392,0.582 215.901,2.909 L186.81,21.527 L158.883,2.909 C155.392,0.582 149.574,0.582 146.083,2.909 L116.992,21.527 L89.064,2.909 C85.573,0.582 79.755,0.582 76.264,2.909 L47.174,21.527 L19.246,2.909 C15.755,0.582 11.101,0.582 7.61,2.909 C2.955,4.073 0.628,7.564 0.628,12.218 L0.628,500.945 C0.628,505.6 2.955,509.09 6.446,511.418 C9.937,513.745 14.591,513.745 18.082,511.418 L47.173,491.636 L75.1,510.254 C78.591,512.581 84.409,512.581 87.9,510.254 L115.827,491.636 L143.754,510.254 C147.245,512.581 153.063,512.581 156.554,510.254 L184.481,491.636 L212.408,510.254 C215.899,512.581 221.717,512.581 225.208,510.254 L253.135,491.636 L281.062,510.254 C284.553,512.581 290.371,512.581 293.862,510.254 L321.789,491.636 L349.716,510.254 C353.207,512.581 359.025,512.581 362.516,510.254 L390.443,491.636 L418.37,510.254 C420.697,511.418 423.025,512.581 425.352,512.581 C427.679,512.581 428.843,512.581 431.17,511.417 C434.661,509.09 436.988,505.599 436.988,500.944 L436.988,12.218 C442.81,7.564 440.483,4.073 436.992,1.745 Z M403.246,467.2 C399.755,464.873 393.937,464.873 390.446,467.2 L361.355,486.982 L333.428,468.364 C331.101,467.2 328.773,466.037 326.446,466.037 C324.119,466.037 321.791,467.201 319.464,468.364 L291.537,486.982 L263.61,468.364 C260.119,466.037 254.301,466.037 250.81,468.364 L221.719,486.982 L193.792,468.364 C190.301,466.037 184.483,466.037 180.992,468.364 L151.901,486.982 L123.974,468.364 C120.483,466.037 114.665,466.037 111.174,468.364 L82.083,486.982 L54.156,468.364 C50.665,466.037 44.847,466.037 41.356,468.364 L25.064,480 L25.064,34.327 L41.355,45.963 C44.846,48.29 50.664,48.29 54.155,45.963 L82.082,26.181 L110.01,44.8 C113.501,47.127 119.319,47.127 122.81,44.8 L151.901,26.182 L179.828,44.8 C183.319,47.127 189.137,47.127 192.628,44.8 L221.719,26.182 L249.646,44.8 C253.137,47.127 258.955,47.127 262.446,44.8 L291.537,26.182 L319.464,44.8 C322.955,47.127 328.773,47.127 332.264,44.8 L361.355,26.182 L389.283,44.8 C392.774,47.127 398.592,47.127 402.083,44.8 L418.374,33.164 L418.374,478.006 L403.246,467.2 Z" id="Shape"></path>
            <path d="M338.083,303.127 L314.81,303.127 C307.828,303.127 303.174,298.472 303.174,291.491 C303.174,284.51 307.829,279.855 314.81,279.855 L349.719,279.855 C356.701,279.855 361.355,275.2 361.355,268.219 C361.355,261.238 356.7,256.583 349.719,256.583 L338.083,256.583 L338.083,244.947 C338.083,237.965 333.428,233.311 326.447,233.311 C319.466,233.311 314.811,237.966 314.811,244.947 L314.811,256.583 C295.029,256.583 279.902,271.71 279.902,291.492 C279.902,311.274 295.029,326.401 314.811,326.401 L338.084,326.401 C345.066,326.401 349.72,331.056 349.72,338.037 C349.72,345.019 345.065,349.673 338.084,349.673 L303.175,349.673 C296.193,349.673 291.539,354.328 291.539,361.309 C291.539,368.29 296.194,372.945 303.175,372.945 L314.811,372.945 L314.811,384.581 C314.811,391.563 319.466,396.217 326.447,396.217 C333.428,396.217 338.083,391.562 338.083,384.581 L338.083,372.945 C357.865,372.945 372.992,357.818 372.992,338.036 C372.992,318.255 357.864,303.127 338.083,303.127 Z" id="Shape"></path>
            <path d="M314.81,105.309 L128.628,105.309 C121.646,105.309 116.992,109.964 116.992,116.945 C116.992,123.926 121.647,128.581 128.628,128.581 L314.81,128.581 C321.792,128.581 326.446,123.926 326.446,116.945 C326.446,109.964 321.792,105.309 314.81,105.309 Z" id="Shape"></path>
            <path d="M268.264,151.855 L175.173,151.855 C168.191,151.855 163.537,156.51 163.537,163.491 C163.537,170.473 168.192,175.127 175.173,175.127 L268.264,175.127 C275.246,175.127 279.9,170.472 279.9,163.491 C279.901,156.509 275.246,151.855 268.264,151.855 Z" id="Shape"></path>
            <path d="M186.81,233.309 L128.628,233.309 C121.646,233.309 116.992,237.964 116.992,244.945 C116.992,251.926 121.647,256.581 128.628,256.581 L186.81,256.581 C193.792,256.581 198.446,251.926 198.446,244.945 C198.446,237.964 193.792,233.309 186.81,233.309 Z" id="Shape"></path>
            <circle id="Oval" cx="82.083" cy="291.491" r="11.636"></circle>
            <path d="M198.446,279.855 L128.628,279.855 C121.646,279.855 116.992,284.51 116.992,291.491 C116.992,298.472 121.647,303.127 128.628,303.127 L198.446,303.127 C205.428,303.127 210.082,298.472 210.082,291.491 C210.082,284.51 205.428,279.855 198.446,279.855 Z" id="Shape"></path>
            <circle id="Oval" cx="82.083" cy="338.036" r="11.636"></circle>
            <path d="M175.174,326.4 L128.629,326.4 C121.647,326.4 116.993,331.055 116.993,338.036 C116.993,345.018 121.648,349.672 128.629,349.672 L175.174,349.672 C182.156,349.672 186.81,345.017 186.81,338.036 C186.81,331.055 182.155,326.4 175.174,326.4 Z" id="Shape"></path>
            <circle id="Oval" cx="82.083" cy="384.582" r="11.636"></circle>
            <path d="M221.719,372.945 L128.628,372.945 C121.646,372.945 116.992,377.6 116.992,384.581 C116.992,391.562 121.647,396.217 128.628,396.217 L221.719,396.217 C228.701,396.217 233.355,391.562 233.355,384.581 C233.355,377.6 228.701,372.945 221.719,372.945 Z" id="Shape"></path>
        </g>
    </g>
</svg>