<?xml version="1.0" encoding="UTF-8"?>
<svg width="232px" height="338px" viewBox="0 0 232 338" version="1.1" xmlns="http://www.w3.org/2000/svg" xmlns:xlink="http://www.w3.org/1999/xlink">
    <!-- Generator: Sketch 49.1 (51147) - http://www.bohemiancoding.com/sketch -->
    <title>icon</title>
    <desc>Created with Sketch.</desc>
    <defs></defs>
    <g id="Website" stroke="none" stroke-width="1" fill="none" fill-rule="evenodd">
        <g id="Product-Detail-" transform="translate(-247.000000, -2678.000000)">
            <g id="Part-E" transform="translate(-1.000000, 2587.000000)">
                <g id="icon" transform="translate(248.000000, 91.000000)">
                    <rect id="Rectangle-7" fill="#242424" x="68" y="56" width="164" height="282" rx="19"></rect>
                    <g id="smartphone-(15)" fill="#FFCC00" fill-rule="nonzero">
                        <path d="M155.667743,218.099511 L155.667743,239.205894 L14.5525292,239.205894 L14.5525292,218.099511 L0.441206226,218.099511 L0.441206226,302.525043 C0.441206226,306.415872 3.60241245,309.560723 7.49719844,309.560723 L162.723735,309.560723 C166.625798,309.560723 169.779728,306.415872 169.779728,302.525043 L169.779728,218.099511 L155.667743,218.099511 Z M155.667743,295.489362 L14.5525292,295.489362 L14.5525292,253.276596 L155.667743,253.276596 L155.667743,295.489362 Z" id="Shape"></path>
                        <path d="M162.723735,0 L7.49653696,0 C3.60175097,0 0.440544747,3.14485106 0.440544747,7.03568085 L0.440544747,63.3191489 L14.5525292,63.3191489 L14.5525292,42.212766 L63.9431518,42.212766 L63.9431518,28.1420638 L14.5525292,28.1420638 L14.5525292,14.0707021 L155.667743,14.0707021 L155.667743,28.1414043 L106.277121,28.1414043 L106.277121,42.212766 L155.667743,42.212766 L155.667743,63.3191489 L169.779066,63.3191489 L169.779066,7.03568085 C169.779728,3.14485106 166.625798,0 162.723735,0 Z" id="Shape"></path>
                        <rect id="Rectangle-path" x="78.0544747" y="267.347298" width="14.111323" height="14.0707021"></rect>
                        <rect id="Rectangle-path" x="78.0544747" y="28.1420638" width="14.111323" height="14.0707021"></rect>
                        <path d="M85.1104669,63.3191489 C42.3174319,63.3191489 7.49719844,98.0391489 7.49719844,140.709 C7.49719844,183.378851 42.3174319,218.098851 85.1104669,218.098851 C127.903502,218.098851 162.723735,183.379511 162.723735,140.709 C162.723735,98.0384894 127.903502,63.3191489 85.1104669,63.3191489 Z M141.908988,112.567596 L124.608016,112.567596 C122.378171,101.859404 118.921284,92.3615319 114.511206,84.6365957 C126.344397,90.8280213 135.939805,100.635234 141.908988,112.567596 Z M85.1104669,77.3898511 C94.7488716,77.3898511 105.148638,90.989617 110.207626,112.566936 L60.0126459,112.566936 C65.0716342,90.989617 75.4720623,77.3898511 85.1104669,77.3898511 Z M21.6085214,140.709 C21.6085214,135.868383 22.2084825,131.168915 23.2456809,126.638298 L43.4816342,126.638298 C43.0371206,131.197277 42.7758366,135.882894 42.7758366,140.709 C42.7758366,145.535106 43.0437354,150.220723 43.4816342,154.779702 L23.2456809,154.779702 C22.207821,150.249085 21.6085214,145.549617 21.6085214,140.709 Z M28.311284,168.851064 L45.6122568,168.851064 C47.8421012,179.559255 51.2989883,189.049872 55.7090661,196.782064 C43.876537,190.590638 34.2804669,180.783426 28.311284,168.851064 Z M45.6122568,112.567596 L28.311284,112.567596 C34.2804669,100.635234 43.876537,90.8280213 55.7090661,84.6365957 C51.2989883,92.3615319 47.8414397,101.852149 45.6122568,112.567596 Z M85.1104669,204.028149 C75.4720623,204.028149 65.0722957,190.428383 60.0133074,168.851064 L110.208288,168.851064 C105.148638,190.429043 94.7482101,204.028149 85.1104669,204.028149 Z M112.585642,154.780362 L57.6352918,154.780362 C57.1557198,150.305809 56.8871595,145.612936 56.8871595,140.70966 C56.8871595,135.805723 57.1550584,131.113511 57.6352918,126.638957 L112.585642,126.638957 C113.065214,131.113511 113.333774,135.806383 113.333774,140.70966 C113.333113,145.612936 113.065214,150.305809 112.585642,154.780362 Z M114.511868,196.782064 C118.92856,189.057128 122.386109,179.566511 124.608677,168.851064 L141.90965,168.851064 C135.939805,180.783426 126.344397,190.590638 114.511868,196.782064 Z M126.7393,154.780362 C127.183813,150.221383 127.445097,145.535766 127.445097,140.70966 C127.445097,135.883553 127.177198,131.197936 126.7393,126.638957 L146.975253,126.638957 C148.012451,131.169574 148.612412,135.869702 148.612412,140.70966 C148.612412,145.550277 148.012451,150.249745 146.975253,154.780362 L126.7393,154.780362 Z" id="Shape"></path>
                    </g>
                </g>
            </g>
        </g>
    </g>
</svg>