<?xml version="1.0" encoding="UTF-8"?>
<svg width="170px" height="338px" viewBox="0 0 170 338" version="1.1" xmlns="http://www.w3.org/2000/svg" xmlns:xlink="http://www.w3.org/1999/xlink">
    <!-- Generator: Sketch 50.2 (55047) - http://www.bohemiancoding.com/sketch -->
    <title>smartphone (2)@1x</title>
    <desc>Created with Sketch.</desc>
    <defs></defs>
    <g id="Page-1" stroke="none" stroke-width="1" fill="none" fill-rule="evenodd">
        <g id="Product-Detail-Farsi-1" transform="translate(-628.000000, -2678.000000)">
            <g id="Part-E" transform="translate(-1.000000, 2587.000000)">
                <g id="smartphone-(2)" transform="translate(629.000000, 91.000000)">
                    <rect id="Rectangle-7-Copy" fill="#242424" x="1" y="56" width="164" height="282" rx="19"></rect>
                    <path d="M155.667743,210.480106 L155.667743,239.205894 L14.5525292,239.205894 L14.5525292,210.480106 L0.441206226,210.480106 L0.441206226,302.525043 C0.441206226,306.408617 3.60241245,309.560723 7.49719844,309.560723 L162.723735,309.560723 C166.618521,309.560723 169.779728,306.408617 169.779728,302.525043 L169.779728,210.480106 L155.667743,210.480106 Z M155.667743,295.489362 L14.5525292,295.489362 L14.5525292,253.276596 L155.667743,253.276596 L155.667743,295.489362 Z" id="Shape" fill="#FFCC00" fill-rule="nonzero"></path>
                    <path d="M162.723735,0 L7.49653696,0 C3.60175097,0 0.440544747,3.15210638 0.440544747,7.03568085 L0.440544747,35.1777447 L0.440544747,83.8418085 L14.5525292,83.8418085 L14.5525292,42.212766 L63.9431518,42.212766 L63.9431518,28.1420638 L14.5525292,28.1420638 L14.5525292,14.0707021 L155.667743,14.0707021 L155.667743,28.1414043 L106.277121,28.1414043 L106.277121,42.212766 L155.667743,42.212766 L155.667743,83.8418085 L169.779066,83.8418085 L169.779066,7.03568085 C169.779728,3.15210638 166.618521,0 162.723735,0 Z" id="Shape" fill="#FFCC00" fill-rule="nonzero"></path>
                    <rect id="Rectangle-path" fill="#FFCC00" fill-rule="nonzero" x="78.0544747" y="267.347298" width="14.111323" height="14.0707021"></rect>
                    <rect id="Rectangle-path" fill="#FFCC00" fill-rule="nonzero" x="78.0544747" y="28.1420638" width="14.111323" height="14.0707021"></rect>
                    <path d="M155.667743,182.921766 L155.667743,105.531915 C155.667743,101.64834 152.506537,98.496234 148.611751,98.496234 L113.333113,98.496234 L113.333113,77.3898511 C113.333113,73.5062766 110.171907,70.3541702 106.277121,70.3541702 L63.9424903,70.3541702 C60.0477043,70.3541702 56.8864981,73.5062766 56.8864981,77.3898511 L56.8864981,112.566936 L21.6078599,112.566936 C17.7130739,112.566936 14.5518677,115.719043 14.5518677,119.602617 L14.5518677,182.921766 L0.440544747,182.921766 L0.440544747,196.992468 L21.6078599,196.992468 L63.9424903,196.992468 L106.277121,196.992468 L148.611751,196.992468 L169.779066,196.992468 L169.779066,182.921766 L155.667743,182.921766 Z M56.8871595,182.921766 L28.6638521,182.921766 L28.6638521,126.638298 L56.8871595,126.638298 L56.8871595,182.921766 Z M99.2217899,105.531915 L99.2217899,182.921766 L70.9984825,182.921766 L70.9984825,119.602617 L70.9984825,84.4255319 L99.2217899,84.4255319 L99.2217899,105.531915 Z M141.55642,182.921766 L113.333113,182.921766 L113.333113,112.567596 L141.55642,112.567596 L141.55642,182.921766 Z" id="Shape" fill="#FFCC00" fill-rule="nonzero"></path>
                </g>
            </g>
        </g>
    </g>
</svg>