<?xml version="1.0" encoding="UTF-8"?>
<svg width="225px" height="338px" viewBox="0 0 225 338" version="1.1" xmlns="http://www.w3.org/2000/svg" xmlns:xlink="http://www.w3.org/1999/xlink">
    <!-- Generator: Sketch 50.2 (55047) - http://www.bohemiancoding.com/sketch -->
    <title>smartphone (6)@1x</title>
    <desc>Created with Sketch.</desc>
    <defs></defs>
    <g id="Page-1" stroke="none" stroke-width="1" fill="none" fill-rule="evenodd">
        <g id="Product-Detail-Farsi-1" transform="translate(-953.000000, -2678.000000)">
            <g id="Part-E" transform="translate(-1.000000, 2587.000000)">
                <g id="smartphone-(6)" transform="translate(954.000000, 91.000000)">
                    <rect id="Rectangle-7-Copy-2" fill="#242424" x="0" y="56" width="164" height="282" rx="19"></rect>
                    <path d="M210.667743,218.099511 L210.667743,239.205894 L69.5525292,239.205894 L69.5525292,218.099511 L55.4412062,218.099511 L55.4412062,302.525043 C55.4412062,306.415872 58.6024125,309.560723 62.4971984,309.560723 L217.723735,309.560723 C221.618521,309.560723 224.779728,306.415872 224.779728,302.525043 L224.779728,218.099511 L210.667743,218.099511 Z M210.667743,295.489362 L69.5525292,295.489362 L69.5525292,253.276596 L210.667743,253.276596 L210.667743,295.489362 Z" id="Shape" fill="#FFCC00" fill-rule="nonzero"></path>
                    <path d="M217.723735,0 L62.496537,0 C58.601751,0 55.4405447,3.14485106 55.4405447,7.03568085 L55.4405447,63.3191489 L69.5525292,63.3191489 L69.5525292,42.212766 L118.943152,42.212766 L118.943152,28.1420638 L69.5525292,28.1420638 L69.5525292,14.0707021 L210.667743,14.0707021 L210.667743,28.1414043 L161.277121,28.1414043 L161.277121,42.212766 L210.667743,42.212766 L210.667743,63.3191489 L224.779066,63.3191489 L224.779066,7.03568085 C224.779728,3.14485106 221.618521,0 217.723735,0 Z" id="Shape" fill="#FFCC00" fill-rule="nonzero"></path>
                    <rect id="Rectangle-path" fill="#FFCC00" fill-rule="nonzero" x="133.054475" y="267.347298" width="14.111323" height="14.0707021"></rect>
                    <rect id="Rectangle-path" fill="#FFCC00" fill-rule="nonzero" x="133.054475" y="28.1420638" width="14.111323" height="14.0707021"></rect>
                    <path d="M196.55642,117.534191 C196.55642,87.6409574 171.233035,63.3191489 140.110467,63.3191489 C108.987899,63.3191489 83.6645136,87.6409574 83.6645136,117.534191 C83.6645136,139.281021 111.979105,183.020043 126.493268,204.028149 L104.831829,204.028149 L104.831829,218.098851 L175.389105,218.098851 L175.389105,204.028149 L153.727665,204.028149 C168.241829,183.020702 196.55642,139.281021 196.55642,117.534191 Z M97.7758366,117.534191 C97.7758366,95.4008511 116.762918,77.3898511 140.110467,77.3898511 C163.458016,77.3898511 182.445097,95.4008511 182.445097,117.534191 C182.445097,134.651468 155.668444,176.603702 140.110467,198.920404 C124.55249,176.610957 97.7758366,134.658723 97.7758366,117.534191 Z" id="Shape" fill="#FFCC00" fill-rule="nonzero"></path>
                    <path d="M140.110467,98.496234 C128.44,98.496234 118.943152,107.965745 118.943152,119.602617 C118.943152,131.239489 128.44,140.709 140.110467,140.709 C151.780934,140.709 161.277782,131.239489 161.277782,119.602617 C161.277782,107.966404 151.780272,98.496234 140.110467,98.496234 Z M140.110467,126.638298 C136.222957,126.638298 133.054475,123.486191 133.054475,119.602617 C133.054475,115.719043 136.222296,112.566936 140.110467,112.566936 C143.998638,112.566936 147.166459,115.719043 147.166459,119.602617 C147.166459,123.486191 143.997977,126.638298 140.110467,126.638298 Z" id="Shape" fill="#FFCC00" fill-rule="nonzero"></path>
                    <rect id="Rectangle-path" fill="#FFCC00" fill-rule="nonzero" x="83.6638521" y="204.028149" width="14.111323" height="14.0707021"></rect>
                    <rect id="Rectangle-path" fill="#FFCC00" fill-rule="nonzero" x="182.445097" y="204.028149" width="14.111323" height="14.0707021"></rect>
                </g>
            </g>
        </g>
    </g>
</svg>