<?xml version="1.0" encoding="UTF-8"?>
<svg width="95px" height="45px" viewBox="0 0 95 45" version="1.1" xmlns="http://www.w3.org/2000/svg" xmlns:xlink="http://www.w3.org/1999/xlink">
    <!-- Generator: Sketch 49.1 (51147) - http://www.bohemiancoding.com/sketch -->
    <title>Zon-telecom-Logo Copy</title>
    <desc>Created with Sketch.</desc>
    <defs></defs>
    <g id="Website" stroke="none" stroke-width="1" fill="none" fill-rule="evenodd">
        <g id="home" transform="translate(-87.000000, -62.000000)">
            <g id="Zon-telecom-Logo" transform="translate(87.000000, 62.000000)">
                <g id="Zon-telecom-newfont">
                    <g id="Page-2">
                        <g id="Group-48">
                            <path d="M0.0662415891,10.0027866 C1.0450748,9.92273323 2.02261596,9.79726829 3.00280923,9.76976067 C12.4946489,9.50298476 21.9863525,9.22386128 31.4798243,9.03316006 C32.6982996,9.00873933 33.9767534,9.32559146 35.1368822,9.74136128 C36.4917713,10.227032 37.1906367,11.437093 37.1006009,12.8600122 C37.0139653,14.2292881 36.7635787,15.6188003 36.3644019,16.9311402 C35.3545594,20.251125 34.3927949,23.5648674 34.5106439,27.0889299 C34.5169681,27.2805915 34.4731743,27.4738994 34.4407369,27.7790213 C33.3284821,27.7120701 32.2292838,27.6528704 31.1311736,27.5774131 C30.4322402,27.5294634 29.7320827,27.4800046 29.0373654,27.3918567 C26.9640261,27.1287851 26.0062058,25.8114375 26.4562487,23.7520701 C26.960694,21.4436936 27.5485107,19.1539756 28.0692767,16.8490976 C28.2133747,16.2116204 28.3044986,15.5504085 28.3214313,14.897497 C28.362301,13.3177637 27.6129775,12.2202027 26.0714205,11.9503399 C24.2450676,11.6305381 22.3849853,11.4555457 20.5321113,11.3514146 C15.3211879,11.0587088 10.1055043,10.8511326 4.89362885,10.5733811 C3.28189298,10.487497 1.67627738,10.2841052 0.0678736578,10.1344939 C0.0673296349,10.0905229 0.066785612,10.046689 0.0662415891,10.0027866" id="Fill-32" fill="#808285"></path>
                            <path d="M46.5837226,33.6648567 C46.1636689,33.7159619 45.7447713,33.7831189 45.3232895,33.8158399 C37.4441378,34.4277302 29.564646,35.0353674 21.6852903,35.6443079 C19.7576811,35.7933018 17.832112,36.0057485 15.9017827,36.0675549 C14.9277777,36.0986982 13.9107269,35.9821509 12.9732394,35.7164726 C10.6404012,35.0554665 9.54215497,33.0453521 10.1320118,30.5715869 C10.5214642,28.938279 11.1234936,27.3546357 11.4790805,25.7152912 C12.0156911,23.2409085 12.4449252,20.7415564 12.8649109,18.243439 C12.9806518,17.5549253 13.1896246,17.3035152 13.9248715,17.3950244 C15.362248,17.574064 16.8182573,17.5992393 18.2574699,17.7669604 C20.4288014,18.0200854 21.2186546,19.2379665 20.6923125,21.3939878 C20.1607341,23.5712744 19.5980784,25.7419756 19.1261385,27.9325015 C18.9387226,28.8027302 18.8692917,29.7220747 18.9051972,30.6126082 C18.9568794,31.891404 19.6735616,32.8088277 20.9112817,33.0788963 C22.0808629,33.3340107 23.2965501,33.4905503 24.4918364,33.4896585 C31.5244885,33.4847881 38.5570727,33.4204436 45.5897248,33.3794909 C45.9207627,33.3776387 46.2521407,33.407753 46.5833146,33.4229817 C46.5834506,33.5035152 46.5835866,33.584186 46.5837226,33.6648567" id="Fill-34" fill="#808285"></path>
                            <path d="M0.0662415891,10.0027866 C1.0450748,9.92273323 2.02261596,9.79726829 3.00280923,9.76976067 C12.4946489,9.50298476 21.9863525,9.22386128 31.4798243,9.03316006 C32.6982996,9.00873933 33.9767534,9.32559146 35.1368822,9.74136128 C36.4917713,10.227032 37.1906367,11.437093 37.1006009,12.8600122 C37.0139653,14.2292881 36.7635787,15.6188003 36.3644019,16.9311402 C35.3545594,20.251125 34.3927949,23.5648674 34.5106439,27.0889299 C34.5169681,27.2805915 34.4731743,27.4738994 34.4407369,27.7790213 C33.3284821,27.7120701 32.2292838,27.6528704 31.1311736,27.5774131 C30.4322402,27.5294634 29.7320827,27.4800046 29.0373654,27.3918567 C26.9640261,27.1287851 26.0062058,25.8114375 26.4562487,23.7520701 C26.960694,21.4436936 27.5485107,19.1539756 28.0692767,16.8490976 C28.2133747,16.2116204 28.3044986,15.5504085 28.3214313,14.897497 C28.362301,13.3177637 27.6129775,12.2202027 26.0714205,11.9503399 C24.2450676,11.6305381 22.3849853,11.4555457 20.5321113,11.3514146 C15.3211879,11.0587088 10.1055043,10.8511326 4.89362885,10.5733811 C3.28189298,10.487497 1.67627738,10.2841052 0.0678736578,10.1344939 C0.0673296349,10.0905229 0.066785612,10.046689 0.0662415891,10.0027866" id="Fill-36" fill="#000000"></path>
                            <path d="M46.5837226,33.6648567 C46.1636689,33.7159619 45.7447713,33.7831189 45.3232895,33.8158399 C37.4441378,34.4277302 29.564646,35.0353674 21.6852903,35.6443079 C19.7576811,35.7933018 17.832112,36.0057485 15.9017827,36.0675549 C14.9277777,36.0986982 13.9107269,35.9821509 12.9732394,35.7164726 C10.6404012,35.0554665 9.54215497,33.0453521 10.1320118,30.5715869 C10.5214642,28.938279 11.1234936,27.3546357 11.4790805,25.7152912 C12.0156911,23.2409085 12.4449252,20.7415564 12.8649109,18.243439 C12.9806518,17.5549253 13.1896246,17.3035152 13.9248715,17.3950244 C15.362248,17.574064 16.8182573,17.5992393 18.2574699,17.7669604 C20.4288014,18.0200854 21.2186546,19.2379665 20.6923125,21.3939878 C20.1607341,23.5712744 19.5980784,25.7419756 19.1261385,27.9325015 C18.9387226,28.8027302 18.8692917,29.7220747 18.9051972,30.6126082 C18.9568794,31.891404 19.6735616,32.8088277 20.9112817,33.0788963 C22.0808629,33.3340107 23.2965501,33.4905503 24.4918364,33.4896585 C31.5244885,33.4847881 38.5570727,33.4204436 45.5897248,33.3794909 C45.9207627,33.3776387 46.2521407,33.407753 46.5833146,33.4229817 C46.5834506,33.5035152 46.5835866,33.584186 46.5837226,33.6648567" id="Fill-38" fill="#000000"></path>
                            <path d="M0.0662415891,10.0027866 C1.0450748,9.92273323 2.02261596,9.79726829 3.00280923,9.76976067 C12.4946489,9.50298476 21.9863525,9.22386128 31.4798243,9.03316006 C32.6982996,9.00873933 33.9767534,9.32559146 35.1368822,9.74136128 C36.4917713,10.227032 37.1906367,11.437093 37.1006009,12.8600122 C37.0139653,14.2292881 36.7635787,15.6188003 36.3644019,16.9311402 C35.3545594,20.251125 34.3927949,23.5648674 34.5106439,27.0889299 C34.5169681,27.2805915 34.4731743,27.4738994 34.4407369,27.7790213 C33.3284821,27.7120701 32.2292838,27.6528704 31.1311736,27.5774131 C30.4322402,27.5294634 29.7320827,27.4800046 29.0373654,27.3918567 C26.9640261,27.1287851 26.0062058,25.8114375 26.4562487,23.7520701 C26.960694,21.4436936 27.5485107,19.1539756 28.0692767,16.8490976 C28.2133747,16.2116204 28.3044986,15.5504085 28.3214313,14.897497 C28.362301,13.3177637 27.6129775,12.2202027 26.0714205,11.9503399 C24.2450676,11.6305381 22.3849853,11.4555457 20.5321113,11.3514146 C15.3211879,11.0587088 10.1055043,10.8511326 4.89362885,10.5733811 C3.28189298,10.487497 1.67627738,10.2841052 0.0678736578,10.1344939 C0.0673296349,10.0905229 0.066785612,10.046689 0.0662415891,10.0027866" id="Fill-40" fill="#949494"></path>
                            <path d="M46.5837226,33.6648567 C46.1636689,33.7159619 45.7447713,33.7831189 45.3232895,33.8158399 C37.4441378,34.4277302 29.564646,35.0353674 21.6852903,35.6443079 C19.7576811,35.7933018 17.832112,36.0057485 15.9017827,36.0675549 C14.9277777,36.0986982 13.9107269,35.9821509 12.9732394,35.7164726 C10.6404012,35.0554665 9.54215497,33.0453521 10.1320118,30.5715869 C10.5214642,28.938279 11.1234936,27.3546357 11.4790805,25.7152912 C12.0156911,23.2409085 12.4449252,20.7415564 12.8649109,18.243439 C12.9806518,17.5549253 13.1896246,17.3035152 13.9248715,17.3950244 C15.362248,17.574064 16.8182573,17.5992393 18.2574699,17.7669604 C20.4288014,18.0200854 21.2186546,19.2379665 20.6923125,21.3939878 C20.1607341,23.5712744 19.5980784,25.7419756 19.1261385,27.9325015 C18.9387226,28.8027302 18.8692917,29.7220747 18.9051972,30.6126082 C18.9568794,31.891404 19.6735616,32.8088277 20.9112817,33.0788963 C22.0808629,33.3340107 23.2965501,33.4905503 24.4918364,33.4896585 C31.5244885,33.4847881 38.5570727,33.4204436 45.5897248,33.3794909 C45.9207627,33.3776387 46.2521407,33.407753 46.5833146,33.4229817 C46.5834506,33.5035152 46.5835866,33.584186 46.5837226,33.6648567" id="Fill-42" fill="#949494"></path>
                            <path d="M5.20948855,15.3013445 C4.86974624,16.4317637 4.60596314,17.5706204 4.4316718,18.7157881 C4.25894452,19.8609558 4.16972477,21.0100335 4.17230888,22.1528689 C4.1704728,22.7240122 4.19461382,23.2937835 4.23840766,23.860125 C4.24513994,24.001779 4.26499678,24.1429527 4.27784932,24.2840579 L4.3200111,24.7069619 C4.3534685,24.9882805 4.39692233,25.2681585 4.43445991,25.5478308 L4.58454223,26.3809482 L4.67253794,26.7941113 C4.70327523,26.9314436 4.72714424,27.0699421 4.76461382,27.205628 C4.90014352,27.7515274 5.04662169,28.2924192 5.22322513,28.8235701 L5.28701181,29.0232576 C5.30890873,29.0896601 5.33352577,29.1551707 5.35664674,29.221093 L5.49693665,29.6159405 L5.64933107,30.0059177 L5.72563028,30.2007348 L5.80784574,30.3931509 L5.97132462,30.7777088 L6.14493593,31.1576021 L6.23170759,31.3474116 L6.3245315,31.5343399 L6.5099753,31.9077851 L6.70718361,32.2749192 L6.80578776,32.4582805 L6.91010415,32.6384863 L7.11805691,32.9988293 L7.33464603,33.353753 L7.4432466,33.530872 L7.55708339,33.704561 L7.78502899,34.0516646 C7.94585576,34.2768018 8.09791016,34.507907 8.26723729,34.7264588 C9.57908053,36.505125 11.1834721,38.0504909 12.9852079,39.3101479 C14.7864678,40.5717256 16.7935043,41.527221 18.900437,42.1445991 C21.0120619,42.7527165 23.2318794,43.0196982 25.4521729,42.9237302 C25.7301686,42.9168704 26.0065322,42.8886082 26.2846639,42.8728308 C26.4235938,42.8636387 26.5616396,42.8464893 26.7003654,42.8337302 C26.8388873,42.8191875 26.9781571,42.8087607 27.1159989,42.78825 L27.5308164,42.7332348 C27.6695422,42.7162226 27.80616,42.6889893 27.9441378,42.6674497 C28.2202294,42.6245762 28.494213,42.5694924 28.7694885,42.5169466 C29.3173876,42.4017713 29.8637226,42.269378 30.4035293,42.1087912 C30.6756768,42.0349802 30.942384,41.9439512 31.2118114,41.8581357 C31.3464571,41.8149878 31.4781106,41.7640884 31.6116682,41.7173735 C31.7447498,41.6692866 31.8789195,41.6233262 32.010369,41.5708491 L32.4074377,41.4176021 C32.5398393,41.3660854 32.6692487,41.307846 32.8005623,41.2532424 C33.0647534,41.1466418 33.3194921,41.0202165 33.5808271,40.9044238 C34.0954048,40.6581585 34.6065143,40.3974878 35.1047713,40.1101326 C35.358082,39.9725945 35.5989481,39.8153689 35.8485186,39.6687073 C35.9716038,39.592907 36.0917649,39.5128537 36.213898,39.4349268 C36.3359631,39.3568628 36.4578923,39.27825 36.5764893,39.194904 C37.0607377,38.8736616 37.5297534,38.5263521 37.995165,38.1678613 C37.6249574,38.62575 37.2253726,39.0609329 36.8041628,39.4767027 C36.7010705,39.5834405 36.5922659,39.6834558 36.4839374,39.7844314 C36.3753368,39.885064 36.2681643,39.9880976 36.1576596,40.0871524 C35.9339982,40.2816265 35.7114928,40.4797363 35.477835,40.6636463 C35.0196317,41.0447744 34.5313712,41.3873506 34.0369223,41.7243018 C33.7861278,41.8867409 33.5352652,42.0511006 33.2759023,42.2007805 C33.1466288,42.2763064 33.0189875,42.3556738 32.887878,42.4283186 L32.4933933,42.6454985 C31.4340447,43.2118399 30.3167577,43.6804299 29.1620011,44.0445457 C28.8721729,44.1313902 28.5831607,44.2246829 28.2884363,44.2958186 C28.1414141,44.3325183 27.9952759,44.374843 27.8471657,44.4068095 L27.403039,44.5064131 C27.2552008,44.5418095 27.1055945,44.5669162 26.9565322,44.5960701 C26.8071979,44.623372 26.6582717,44.655064 26.5081893,44.6786616 C26.2079567,44.7253765 25.907316,44.7743552 25.6047033,44.8053613 C25.0004979,44.881779 24.3918042,44.9175869 23.7819545,44.942968 L23.3241593,44.9483186 C23.2478601,44.9486616 23.1714928,44.9505137 23.0951256,44.9494848 L22.86616,44.9442027 L22.4078887,44.932747 L21.9500254,44.9070915 L21.7209238,44.8938521 L21.4922981,44.8736159 L21.0347749,44.8325945 C20.8827205,44.814622 20.7307341,44.7954146 20.5788837,44.775247 L20.3509381,44.745407 L20.1239445,44.7087073 L19.6698894,44.6342104 L19.2181464,44.5455823 L18.9922409,44.5007195 C18.9169617,44.4853537 18.8424986,44.4665579 18.7675594,44.4496143 L18.3186045,44.345003 C17.7231714,44.1926479 17.1310025,44.0200564 16.5512101,43.812343 C16.2585258,43.715689 15.9742058,43.5970838 15.6864177,43.4870534 C15.5438157,43.428814 15.4027097,43.3671448 15.2607878,43.3071905 L15.0482108,43.2165046 L14.838286,43.1199878 L14.4195243,42.9241418 L14.007155,42.715125 L13.8012423,42.6101021 L13.5983898,42.4990427 L13.1932967,42.2759634 C12.9291736,42.1168857 12.6603583,41.9654223 12.4024914,41.7959177 C12.272878,41.7124345 12.1415644,41.6314207 12.013447,41.5455366 L11.6314069,41.2843171 C9.61042985,39.8701098 7.82841482,38.0950793 6.43741625,36.0507348 C5.73651074,35.0334329 5.13318933,33.9509634 4.62677201,32.8275412 C4.12661095,31.7012378 3.71770974,30.5353537 3.43005762,29.3407271 C3.27467108,28.7466037 3.17239477,28.1398582 3.0756267,27.5360625 C3.04828955,27.385628 3.03475698,27.2327927 3.01442412,27.0813293 L2.95845777,26.6263902 C2.92778848,26.3224345 2.9093597,26.0173125 2.8856947,25.7136311 C2.87556228,25.4085777 2.86012563,25.1044848 2.85522942,24.8003918 L2.85631747,24.3440808 C2.85692949,24.1921372 2.85631747,24.0403994 2.86583787,23.888593 C2.89127094,23.2816418 2.93248067,22.6769543 3.01095598,22.077343 C3.16430243,20.8782576 3.42203329,19.698311 3.78999678,18.5608262 C4.1563282,17.4233415 4.62684001,16.3260549 5.20948855,15.3013445" id="Fill-44" fill="#FFDE17"></path>
                            <path d="M43.1503057,30.7444322 C43.5579828,29.6371303 43.8903808,28.5165892 44.1337631,27.384455 C44.3756492,26.2521151 44.5344359,25.1105831 44.6012147,23.969737 C44.6377323,23.3998285 44.6481367,22.8296456 44.6387523,22.2616578 C44.6406564,22.119798 44.6293679,21.9777325 44.6250838,21.8360785 L44.6086951,21.4113224 C44.5923744,21.1284947 44.5659893,20.8464901 44.5455204,20.5649657 L44.4462362,19.724234 L44.3835376,19.3063377 C44.3611646,19.167359 44.345728,19.0276258 44.3164868,18.8899505 C44.2144145,18.3367111 44.1009177,17.7877934 43.9569556,17.2466959 L43.9054094,17.0435099 C43.8875247,16.9758727 43.8669878,16.9089901 43.847947,16.8416959 L43.7317981,16.4389596 L43.6033407,16.0402706 L43.53901,15.8410633 L43.4686271,15.6439825 L43.3288132,15.2500267 L43.1785268,14.8601181 L43.1035197,14.6653697 L43.0221883,14.4730907 L42.8597294,14.0888072 L42.6851661,13.7102172 L42.5978504,13.5210937 L42.5046185,13.3347828 L42.3189707,12.9622294 L42.1243465,12.5946837 L42.0266263,12.4111852 L41.923534,12.230705 L41.7171453,11.8702934 C41.5702591,11.6356212 41.4324853,11.3955297 41.2766908,11.1669627 C40.0752842,9.31057546 38.5676607,7.66910442 36.8456922,6.30058308 C35.1244037,4.9302782 33.1790458,3.85261052 31.1135268,3.10633765 C29.0427037,2.36905107 26.843287,1.96542302 24.6213615,1.92412729 C24.3434338,1.91383765 24.0659141,1.92501905 23.7873064,1.92357851 C23.6481045,1.92419588 23.5092427,1.93277058 23.3699728,1.93695503 C23.2309069,1.94292302 23.0912291,1.94470655 22.9524352,1.95671113 L22.5350336,1.98600229 C22.3955598,1.99443979 22.257514,2.01316692 22.1184481,2.02620046 C21.8402484,2.05192454 21.5634767,2.08992759 21.285617,2.12546113 C20.7317337,2.20647485 20.1783264,2.30498095 19.6298153,2.43195503 C19.3536557,2.48882241 19.0819162,2.56318216 18.8078647,2.63225991 C18.6708389,2.66697027 18.5363293,2.70963796 18.4001195,2.74805259 C18.2644538,2.78783918 18.1277681,2.82536204 17.9933264,2.86960747 L17.5877573,2.9981593 C17.4524316,3.04130716 17.3197581,3.09145198 17.1853164,3.13789253 C16.915277,3.22802973 16.65333,3.3384032 16.3853987,3.43786966 C15.8568125,3.65196265 15.3308783,3.88059832 14.8160966,4.13653582 C14.5549656,4.25829649 14.3049871,4.40029345 14.0469843,4.53131479 C13.9195469,4.59929497 13.7947616,4.67180259 13.6681403,4.74204649 C13.541587,4.81249619 13.4150336,4.88342607 13.2916084,4.95922637 C12.7887953,5.25008003 12.2996507,5.56768674 11.8132942,5.89681784 C12.2106349,5.46259527 12.6358568,5.05293064 13.0815476,4.66398247 C13.1908962,4.56383003 13.305549,4.47067454 13.4197938,4.37649009 C13.5343107,4.28278582 13.6475354,4.18661204 13.7638203,4.09455412 C13.9988382,3.91421113 14.2330401,3.73023247 14.4773064,3.56120808 C14.9578146,3.2090282 15.465932,2.89718369 15.9799656,2.59130716 C16.2400766,2.44471418 16.5004596,2.29613186 16.7683908,2.1628468 C16.9020165,2.0953468 17.034282,2.02400534 17.1695397,1.95966082 L17.5764009,1.76717607 C18.6681868,1.26730564 19.811723,0.868616616 20.9864724,0.576528201 C21.2809928,0.50765625 21.5751052,0.432336128 21.8736378,0.379653201 C22.0225641,0.352008384 22.1710823,0.318807165 22.3208246,0.296032774 L22.7701195,0.224005335 C22.9198618,0.197801067 23.0706922,0.182023628 23.2212505,0.162130335 C23.3720129,0.144020579 23.5225712,0.121589177 23.6738096,0.107320884 C23.9762863,0.0792644817 24.2793071,0.0488757622 24.5832799,0.0367339939 C25.1909535,-0.00236661585 25.8006671,-0.000514481707 26.4109248,0.0118330793 L26.8681761,0.0346760671 C26.9444073,0.0391349085 27.0207065,0.0420160061 27.0968697,0.0477096037 L27.3250873,0.0671227134 L27.7817946,0.106840701 L28.2372777,0.160689787 L28.4651553,0.188128811 L28.6920809,0.222496189 L29.146204,0.291505335 C29.2968984,0.318875762 29.4474567,0.347412348 29.597879,0.376977896 L29.8235805,0.42074314 L30.047922,0.471436738 L30.4965369,0.573852896 L30.9420916,0.69019436 L31.164801,0.748845274 C31.2389921,0.768875762 31.3121632,0.792198933 31.3859463,0.813807165 L31.8277609,0.945926067 C32.4128576,1.13477515 32.993466,1.34358613 33.5595218,1.58669588 C33.8457459,1.70125381 34.1223815,1.83721418 34.4029613,1.96480564 C34.5417552,2.03168826 34.678849,2.10200076 34.8168948,2.17059832 L35.0235555,2.27418064 L35.2272241,2.38352515 L35.6333372,2.60482088 L36.0322419,2.83894436 L36.2314223,2.95652058 L36.4271346,3.0797904 L36.817947,3.32749619 C37.0719377,3.50255716 37.3310286,3.6703468 37.578151,3.85549162 C37.7024603,3.94686357 37.8286056,4.03569741 37.9512827,4.12940168 L38.3167301,4.41366997 C40.2481475,5.95004954 41.9191138,7.83168064 43.1834911,9.95806784 C43.8213579,11.0168026 44.3579005,12.1345312 44.7951589,13.2870389 C45.2260931,14.4420846 45.5634553,15.6310861 45.7781403,16.8412157 C45.8972133,17.4438453 45.9624281,18.0557355 46.0224066,18.6643331 C46.0405634,18.8162081 46.0448475,18.9696608 46.055864,19.122016 L46.0841532,19.5795617 C46.0963257,19.8848209 46.0961897,20.1905602 46.1014259,20.4950648 C46.0929936,20.8001867 46.0900014,21.1047599 46.0764009,21.4085785 L46.0476356,21.8639291 C46.0377752,22.0155297 46.0292749,22.1670617 46.0105061,22.3179764 C45.9483515,22.9221837 45.8704882,23.5232355 45.7557674,24.1168788 C45.5299979,25.304234 45.201136,26.4660709 44.7648296,27.5787919 C44.3302233,28.6914444 43.7939528,29.7575877 43.1503057,30.7444322" id="Fill-46" fill="#FFDE17"></path>
                        </g>
                        <g id="Group-55" transform="translate(51.886185, 9.535061)" fill="#FFDE17">
                            <path d="M13.8322974,0.111286453 C12.6585211,1.71248302 11.5583787,3.25062653 10.5317246,4.72483922 C10.0918132,5.35683274 9.64084208,5.99438548 9.18012105,6.63661964 C8.71896347,7.27958528 8.27905201,7.90075299 7.86009566,8.50114685 C7.44055721,9.1015407 7.04284699,9.66009424 6.66550978,10.1759297 C6.28831809,10.6923503 5.97399168,11.1293329 5.72253056,11.4873163 L14.1151912,11.4873163 L14.1151912,14.2996875 L0.25310552,14.2996875 C1.40534464,12.6989298 2.5056326,11.1609326 3.55367833,9.68613471 C3.99388083,9.05414118 4.4495086,8.41717363 4.92114373,7.77435429 C5.39248783,7.13197383 5.83749253,6.51022094 6.25688545,5.90997338 C6.67584181,5.30943323 7.07427964,4.75161116 7.4513258,4.23504423 C7.82851749,3.71906248 8.1428439,3.28222621 8.39445055,2.92380395 L0.00178991427,2.92380395 L0.00178991427,0.111286453 L13.8322974,0.111286453 Z" id="Fill-49"></path>
                            <path d="M16.3155488,7.22130143 C16.3155488,7.81130835 16.4255631,8.36986189 16.6455915,8.89608428 C16.8654745,9.42303815 17.1690323,9.88123346 17.5569926,10.2708165 C17.9445163,10.6608384 18.4002896,10.9660094 18.924458,11.1870608 C19.4478988,11.4082586 20.0034998,11.5190037 20.590388,11.5190037 C21.176694,11.5190037 21.7322951,11.4082586 22.2563179,11.1870608 C22.7799042,10.9660094 23.2356775,10.6608384 23.6236378,10.2708165 C24.0111615,9.88123346 24.3153014,9.42303815 24.5351844,8.89608428 C24.7552129,8.36986189 24.8652271,7.81130835 24.8652271,7.22130143 C24.8652271,6.63187969 24.7552129,6.07873906 24.5351844,5.56231842 C24.3153014,5.04633666 24.0111615,4.59355426 23.6236378,4.20353233 C23.2356775,3.81394928 22.7799042,3.50833945 22.2563179,3.28699542 C21.7322951,3.06594398 21.176694,2.95534511 20.590388,2.95534511 C20.0034998,2.95534511 19.4478988,3.06594398 18.924458,3.28699542 C18.4002896,3.50833945 17.9445163,3.81394928 17.5569926,4.20353233 C17.1690323,4.59355426 16.8654745,5.04633666 16.6455915,5.56231842 C16.4255631,6.07873906 16.3155488,6.63187969 16.3155488,7.22130143 M13.5493309,7.22130143 C13.5493309,6.23132453 13.7325424,5.30952101 14.0994021,4.45632974 C14.4658252,3.60313848 14.9687475,2.85557206 15.6083144,2.21275271 C16.2471537,1.57037225 16.9962983,1.06477743 17.8557482,0.695968244 C18.714616,0.327597942 19.6263081,0.142827612 20.590388,0.142827612 C21.5751319,0.142827612 22.4920628,0.327597942 23.3407441,0.695968244 C24.1894254,1.06477743 24.9384244,1.57037225 25.5883234,2.21275271 C26.2376403,2.85557206 26.7459468,3.60313848 27.112661,4.45632974 C27.4790841,5.30952101 27.6628777,6.23132453 27.6628777,7.22130143 C27.6628777,8.19050447 27.4790841,9.10704138 27.112661,9.97047328 C26.7459468,10.8344904 26.2376403,11.5930289 25.5883234,12.2457963 C24.9384244,12.8990026 24.1894254,13.4100103 23.3407441,13.7782343 C22.4920628,14.1471898 21.5751319,14.3313749 20.590388,14.3313749 C19.6263081,14.3313749 18.714616,14.1471898 17.8557482,13.7782343 C16.9962983,13.4100103 16.2471537,12.8990026 15.6083144,12.2457963 C14.9687475,11.5930289 14.4658252,10.8344904 14.0994021,9.97047328 C13.7325424,9.10704138 13.5493309,8.19050447 13.5493309,7.22130143" id="Fill-51"></path>
                            <path d="M28.998794,4.42470081 C29.3652171,3.57150954 29.8681394,2.82394312 30.5075608,2.18112378 C31.1465456,1.53859702 31.8955447,1.0330022 32.7549946,0.664339309 C33.614008,0.295969007 34.5255545,0.111344971 35.4896344,0.111344971 C36.4743783,0.111344971 37.3914547,0.295969007 38.240136,0.664339309 C39.0888173,1.0330022 39.8376709,1.53859702 40.4875698,2.18112378 C41.1368867,2.82394312 41.6451932,3.57150954 42.0120529,4.42470081 C42.3783305,5.27789207 42.5621241,6.19984189 42.5621241,7.1896725 L42.5621241,14.299746 L39.7644735,14.299746 L39.7644735,7.1896725 C39.7644735,6.60010446 39.6546048,6.04725642 39.4345763,5.53083578 C39.2145478,5.01470773 38.9104079,4.56192533 38.5228842,4.1719034 C38.1349239,3.78232035 37.6791507,3.47671051 37.1557099,3.25551278 C36.6315415,3.03431504 36.076086,2.92371618 35.4896344,2.92371618 C34.9027462,2.92371618 34.352675,3.03431504 33.8395663,3.25551278 C33.3257299,3.47671051 32.8753409,3.78232035 32.4879627,4.1719034 C32.0998569,4.56192533 31.7962991,5.01470773 31.5762706,5.53083578 C31.3562421,6.04725642 31.2462279,6.60010446 31.2462279,7.1896725 L31.2462279,14.299746 L28.4487228,14.299746 L28.4487228,7.1896725 C28.4487228,6.19984189 28.6319344,5.27789207 28.998794,4.42470081" id="Fill-53"></path>
                        </g>
                        <g id="Group-60" transform="translate(70.314961, 6.859756)" fill="#FFDE17">
                            <path d="M1.69438567,0.920638895 C1.69438567,1.37483918 1.32594176,1.74298646 0.871375528,1.74298646 C0.416809292,1.74298646 0.0482228046,1.37483918 0.0482228046,0.920638895 C0.0482228046,0.466438614 0.416809292,0.0982913344 0.871375528,0.0982913344 C1.32594176,0.0982913344 1.69438567,0.466438614 1.69438567,0.920638895" id="Fill-56"></path>
                            <path d="M4.31547048,0.920638895 C4.31547048,1.37483918 3.94702658,1.74298646 3.49231775,1.74298646 C3.03775152,1.74298646 2.66930762,1.37483918 2.66930762,0.920638895 C2.66930762,0.466438614 3.03775152,0.0982913344 3.49231775,0.0982913344 C3.94702658,0.0982913344 4.31547048,0.466438614 4.31547048,0.920638895" id="Fill-58"></path>
                        </g>
                        <path d="M56.9562998,27.0732804 L56.9562998,28.3982461 L55.1477401,28.3982461 L55.1477401,33.8611816 L53.4907357,33.8611816 L53.4907357,28.3982461 L51.6821761,28.3982461 L51.6821761,27.0732804 L56.9562998,27.0732804 Z M57.7662394,27.0732804 L61.9592687,27.0732804 L61.9592687,28.3982461 L59.4232437,28.3982461 L59.4232437,29.76398 L61.8380245,29.76398 L61.8380245,31.0889457 L59.4232437,31.0889457 L59.4232437,32.5362159 L61.9895798,32.5362159 L61.9895798,33.8611816 L57.7662394,33.8611816 L57.7662394,27.0732804 Z M64.8000491,27.0732804 L64.8000491,32.5362159 L67.2754519,32.5362159 L67.2754519,33.8611816 L63.1430447,33.8611816 L63.1430447,27.0732804 L64.8000491,27.0732804 Z M68.1258063,27.0732804 L72.3188356,27.0732804 L72.3188356,28.3982461 L69.7828107,28.3982461 L69.7828107,29.76398 L72.1975914,29.76398 L72.1975914,31.0889457 L69.7828107,31.0889457 L69.7828107,32.5362159 L72.3491467,32.5362159 L72.3491467,33.8611816 L68.1258063,33.8611816 L68.1258063,27.0732804 Z M76.8065167,26.9509759 C77.1567795,26.9509759 77.508721,26.984949 77.8623518,27.0528963 C78.2159825,27.1208436 78.520774,27.2193657 78.7767353,27.3484656 L78.5342468,28.5817029 C78.3321721,28.5001662 78.1014736,28.4305212 77.8421444,28.372766 C77.5828152,28.3150108 77.3251738,28.2861336 77.0692125,28.2861336 C76.3821584,28.2861336 75.8399328,28.4661913 75.4425192,28.826312 C75.0451056,29.1864326 74.8464017,29.7334002 74.8464017,30.467231 C74.8464017,31.2010618 75.0451056,31.7480294 75.4425192,32.1081501 C75.8399328,32.4682708 76.3821584,32.6483284 77.0692125,32.6483284 C77.3251738,32.6483284 77.5828152,32.6194512 77.8421444,32.561696 C78.1014736,32.5039408 78.3321721,32.4342959 78.5342468,32.3527591 L78.7767353,33.5859964 C78.520774,33.7150963 78.2159825,33.8136184 77.8623518,33.8815657 C77.508721,33.949513 77.1567795,33.9834861 76.8065167,33.9834861 C76.2137642,33.9834861 75.6917456,33.895156 75.2404455,33.718493 C74.7891453,33.54183 74.4119448,33.2972234 74.1088327,32.9846658 C73.8057206,32.6721083 73.5767061,32.301801 73.4217821,31.8737331 C73.2668582,31.4456651 73.1893974,30.9768358 73.1893974,30.467231 C73.1893974,29.9576263 73.2668582,29.4887969 73.4217821,29.060729 C73.5767061,28.632661 73.8057206,28.2623538 74.1088327,27.9497962 C74.4119448,27.6372386 74.7891453,27.392632 75.2404455,27.215969 C75.6917456,27.0393061 76.2137642,26.9509759 76.8065167,26.9509759 Z M86.3056255,30.467231 C86.3056255,30.9496568 86.2281647,31.4031982 86.0732408,31.8278689 C85.9183168,32.2525395 85.694354,32.6245454 85.4013457,32.9438977 C85.1083374,33.26325 84.7496601,33.5163499 84.3253032,33.7032049 C83.9009463,33.89006 83.4159743,33.9834861 82.8703726,33.9834861 C82.3247708,33.9834861 81.8381149,33.89006 81.4103901,33.7032049 C80.9826652,33.5163499 80.6223041,33.26325 80.3292957,32.9438977 C80.0362874,32.6245454 79.8140086,32.2525395 79.6624525,31.8278689 C79.5108965,31.4031982 79.4351196,30.9496568 79.4351196,30.467231 C79.4351196,29.9848052 79.5108965,29.5312638 79.6624525,29.1065932 C79.8140086,28.6819226 80.0362874,28.3099167 80.3292957,27.9905644 C80.6223041,27.6712121 80.9826652,27.4181122 81.4103901,27.2312571 C81.8381149,27.044402 82.3247708,26.9509759 82.8703726,26.9509759 C83.4159743,26.9509759 83.9009463,27.044402 84.3253032,27.2312571 C84.7496601,27.4181122 85.1083374,27.6712121 85.4013457,27.9905644 C85.694354,28.3099167 85.9183168,28.6819226 86.0732408,29.1065932 C86.2281647,29.5312638 86.3056255,29.9848052 86.3056255,30.467231 Z M82.8703726,32.6585204 C83.160013,32.6585204 83.4159705,32.6041634 83.6382526,32.4954477 C83.8605348,32.3867321 84.0474511,32.2355516 84.1990072,32.0419018 C84.3505632,31.848252 84.4633866,31.6172346 84.5374806,31.3488428 C84.6115747,31.080451 84.6486212,30.7865833 84.6486212,30.467231 C84.6486212,30.1478787 84.6115747,29.8540111 84.5374806,29.5856192 C84.4633866,29.3172274 84.3505632,29.08621 84.1990072,28.8925602 C84.0474511,28.6989104 83.8605348,28.54773 83.6382526,28.4390143 C83.4159705,28.3302986 83.160013,28.2759416 82.8703726,28.2759416 C82.5739963,28.2759416 82.3163549,28.3302986 82.0974407,28.4390143 C81.8785264,28.54773 81.693294,28.6989104 81.541738,28.8925602 C81.3901819,29.08621 81.2773586,29.3172274 81.2032645,29.5856192 C81.1291704,29.8540111 81.092124,30.1478787 81.092124,30.467231 C81.092124,30.7865833 81.1291704,31.080451 81.2032645,31.3488428 C81.2773586,31.6172346 81.3901819,31.848252 81.541738,32.0419018 C81.693294,32.2355516 81.8785264,32.3867321 82.0974407,32.4954477 C82.3163549,32.6041634 82.5739963,32.6585204 82.8703726,32.6585204 Z M91.8238824,32.780825 L90.2275002,32.780825 L88.9140211,30.0595493 L88.7119474,33.8611816 L87.0852541,33.8611816 L87.5904383,27.0732804 L89.0857838,27.0732804 L91.0256913,31.2214423 L92.9655989,27.0732804 L94.4609443,27.0732804 L94.9661285,33.8611816 L93.3394352,33.8611816 L93.1373615,30.0595493 L91.8238824,32.780825 Z" id="TELECOM" fill="#949494"></path>
                    </g>
                </g>
            </g>
        </g>
    </g>
</svg>