<?xml version="1.0" encoding="UTF-8"?>
<svg width="120px" height="198px" viewBox="0 0 120 198" version="1.1" xmlns="http://www.w3.org/2000/svg" xmlns:xlink="http://www.w3.org/1999/xlink">
    <!-- Generator: Sketch 49.1 (51147) - http://www.bohemiancoding.com/sketch -->
    <title>Zon-telecom-newfont</title>
    <desc>Created with Sketch.</desc>
    <defs></defs>
    <g id="Control-Panel" stroke="none" stroke-width="1" fill="none" fill-rule="evenodd">
        <g id="Login" transform="translate(-660.000000, -291.000000)">
            <g id="Group" transform="translate(570.000000, 291.000000)">
                <g id="Zon-telecom-newfont" transform="translate(90.000000, 0.452310)">
                    <g id="Page-2">
                        <g id="Group-48">
                            <path d="M0.168381035,25.3901987 C2.65649993,25.1869983 5.14133451,24.8685291 7.63291056,24.7987061 C31.7604383,24.1215455 55.8876204,23.4130428 80.0192968,22.9289835 C83.1165674,22.8669961 86.3662989,23.6712658 89.3152574,24.7266196 C92.7592814,25.9594037 94.5357436,29.0309167 94.3068796,32.6427303 C94.0866584,36.1183806 93.450195,39.6453968 92.4355182,42.9765258 C89.8685761,51.4036847 87.4238445,59.8149986 87.7234076,68.7601707 C87.7394834,69.2466677 87.6281628,69.7373436 87.5457095,70.5118385 C84.7184431,70.3418954 81.9243654,70.191628 79.1330535,70.0000938 C77.3564184,69.8783825 75.5766718,69.7528405 73.8107539,69.5290936 C68.5404845,68.8613356 66.1057788,65.5174957 67.2497534,60.2901777 C68.5320145,54.4307966 70.0261996,48.6187767 71.3499466,42.7682758 C71.7162328,41.1501596 71.9478626,39.4717971 71.9909042,37.8145035 C72.0947919,33.8046468 70.190069,31.018694 66.2715497,30.3336978 C61.6291008,29.5219408 56.9009143,29.0777555 52.1910508,28.8134382 C38.9452835,28.0704594 25.6874162,27.5435661 12.4392289,26.8385459 C8.34232004,26.6205451 4.26096842,26.1042732 0.172529628,25.7245131 C0.171146763,25.6129008 0.169763899,25.5016368 0.168381035,25.3901987" id="Fill-32" fill="#808285"></path>
                            <path d="M118.412247,85.4519283 C117.344503,85.5816492 116.279697,85.7521147 115.208323,85.8351709 C95.1801239,87.3883396 75.1510607,88.9307127 55.1223432,90.4763941 C50.2225087,90.8545872 45.3278599,91.3938432 40.4211111,91.5507272 C37.9452651,91.6297786 35.36,91.3339452 32.9769788,90.6595705 C27.0470831,88.9817304 24.2554255,83.879432 25.7547962,77.6002427 C26.7447543,73.4543967 28.2750667,69.434615 29.1789415,65.2734463 C30.5429645,58.9926898 31.6340445,52.6485529 32.7016159,46.3075502 C32.9958203,44.5598872 33.5270131,43.9217299 35.3959544,44.1540087 C39.0496552,44.6084673 42.7507191,44.67237 46.4090871,45.0980985 C51.9284449,45.7406088 53.9361912,48.8319717 52.5982698,54.3046277 C51.2470384,59.8312616 49.8168108,65.3411797 48.6171759,70.9014192 C48.1407791,73.1103315 47.964291,75.4439152 48.0555601,77.7043676 C48.1869322,80.9503509 50.0086833,83.2790592 53.1548728,83.9645777 C56.1278585,84.6121376 59.218042,85.0094841 62.2563681,85.0072205 C80.1328299,84.9948579 98.0091189,84.8315314 115.885581,84.7275805 C116.727054,84.7228792 117.569391,84.7993188 118.41121,84.8379739 C118.411556,85.0423932 118.411901,85.2471607 118.412247,85.4519283" id="Fill-34" fill="#808285"></path>
                            <path d="M0.168381035,25.3901987 C2.65649993,25.1869983 5.14133451,24.8685291 7.63291056,24.7987061 C31.7604383,24.1215455 55.8876204,23.4130428 80.0192968,22.9289835 C83.1165674,22.8669961 86.3662989,23.6712658 89.3152574,24.7266196 C92.7592814,25.9594037 94.5357436,29.0309167 94.3068796,32.6427303 C94.0866584,36.1183806 93.450195,39.6453968 92.4355182,42.9765258 C89.8685761,51.4036847 87.4238445,59.8149986 87.7234076,68.7601707 C87.7394834,69.2466677 87.6281628,69.7373436 87.5457095,70.5118385 C84.7184431,70.3418954 81.9243654,70.191628 79.1330535,70.0000938 C77.3564184,69.8783825 75.5766718,69.7528405 73.8107539,69.5290936 C68.5404845,68.8613356 66.1057788,65.5174957 67.2497534,60.2901777 C68.5320145,54.4307966 70.0261996,48.6187767 71.3499466,42.7682758 C71.7162328,41.1501596 71.9478626,39.4717971 71.9909042,37.8145035 C72.0947919,33.8046468 70.190069,31.018694 66.2715497,30.3336978 C61.6291008,29.5219408 56.9009143,29.0777555 52.1910508,28.8134382 C38.9452835,28.0704594 25.6874162,27.5435661 12.4392289,26.8385459 C8.34232004,26.6205451 4.26096842,26.1042732 0.172529628,25.7245131 C0.171146763,25.6129008 0.169763899,25.5016368 0.168381035,25.3901987" id="Fill-36" fill="#000000"></path>
                            <path d="M118.412247,85.4519283 C117.344503,85.5816492 116.279697,85.7521147 115.208323,85.8351709 C95.1801239,87.3883396 75.1510607,88.9307127 55.1223432,90.4763941 C50.2225087,90.8545872 45.3278599,91.3938432 40.4211111,91.5507272 C37.9452651,91.6297786 35.36,91.3339452 32.9769788,90.6595705 C27.0470831,88.9817304 24.2554255,83.879432 25.7547962,77.6002427 C26.7447543,73.4543967 28.2750667,69.434615 29.1789415,65.2734463 C30.5429645,58.9926898 31.6340445,52.6485529 32.7016159,46.3075502 C32.9958203,44.5598872 33.5270131,43.9217299 35.3959544,44.1540087 C39.0496552,44.6084673 42.7507191,44.67237 46.4090871,45.0980985 C51.9284449,45.7406088 53.9361912,48.8319717 52.5982698,54.3046277 C51.2470384,59.8312616 49.8168108,65.3411797 48.6171759,70.9014192 C48.1407791,73.1103315 47.964291,75.4439152 48.0555601,77.7043676 C48.1869322,80.9503509 50.0086833,83.2790592 53.1548728,83.9645777 C56.1278585,84.6121376 59.218042,85.0094841 62.2563681,85.0072205 C80.1328299,84.9948579 98.0091189,84.8315314 115.885581,84.7275805 C116.727054,84.7228792 117.569391,84.7993188 118.41121,84.8379739 C118.411556,85.0423932 118.411901,85.2471607 118.412247,85.4519283" id="Fill-38" fill="#000000"></path>
                            <path d="M0.168381035,25.3901987 C2.65649993,25.1869983 5.14133451,24.8685291 7.63291056,24.7987061 C31.7604383,24.1215455 55.8876204,23.4130428 80.0192968,22.9289835 C83.1165674,22.8669961 86.3662989,23.6712658 89.3152574,24.7266196 C92.7592814,25.9594037 94.5357436,29.0309167 94.3068796,32.6427303 C94.0866584,36.1183806 93.450195,39.6453968 92.4355182,42.9765258 C89.8685761,51.4036847 87.4238445,59.8149986 87.7234076,68.7601707 C87.7394834,69.2466677 87.6281628,69.7373436 87.5457095,70.5118385 C84.7184431,70.3418954 81.9243654,70.191628 79.1330535,70.0000938 C77.3564184,69.8783825 75.5766718,69.7528405 73.8107539,69.5290936 C68.5404845,68.8613356 66.1057788,65.5174957 67.2497534,60.2901777 C68.5320145,54.4307966 70.0261996,48.6187767 71.3499466,42.7682758 C71.7162328,41.1501596 71.9478626,39.4717971 71.9909042,37.8145035 C72.0947919,33.8046468 70.190069,31.018694 66.2715497,30.3336978 C61.6291008,29.5219408 56.9009143,29.0777555 52.1910508,28.8134382 C38.9452835,28.0704594 25.6874162,27.5435661 12.4392289,26.8385459 C8.34232004,26.6205451 4.26096842,26.1042732 0.172529628,25.7245131 C0.171146763,25.6129008 0.169763899,25.5016368 0.168381035,25.3901987" id="Fill-40" fill="#949494"></path>
                            <path d="M118.412247,85.4519283 C117.344503,85.5816492 116.279697,85.7521147 115.208323,85.8351709 C95.1801239,87.3883396 75.1510607,88.9307127 55.1223432,90.4763941 C50.2225087,90.8545872 45.3278599,91.3938432 40.4211111,91.5507272 C37.9452651,91.6297786 35.36,91.3339452 32.9769788,90.6595705 C27.0470831,88.9817304 24.2554255,83.879432 25.7547962,77.6002427 C26.7447543,73.4543967 28.2750667,69.434615 29.1789415,65.2734463 C30.5429645,58.9926898 31.6340445,52.6485529 32.7016159,46.3075502 C32.9958203,44.5598872 33.5270131,43.9217299 35.3959544,44.1540087 C39.0496552,44.6084673 42.7507191,44.67237 46.4090871,45.0980985 C51.9284449,45.7406088 53.9361912,48.8319717 52.5982698,54.3046277 C51.2470384,59.8312616 49.8168108,65.3411797 48.6171759,70.9014192 C48.1407791,73.1103315 47.964291,75.4439152 48.0555601,77.7043676 C48.1869322,80.9503509 50.0086833,83.2790592 53.1548728,83.9645777 C56.1278585,84.6121376 59.218042,85.0094841 62.2563681,85.0072205 C80.1328299,84.9948579 98.0091189,84.8315314 115.885581,84.7275805 C116.727054,84.7228792 117.569391,84.7993188 118.41121,84.8379739 C118.411556,85.0423932 118.411901,85.2471607 118.412247,85.4519283" id="Fill-42" fill="#949494"></path>
                            <path d="M13.24212,38.8395948 C12.3785211,41.7089521 11.7080047,44.5997263 11.2649695,47.5065198 C10.82591,50.4133133 10.5991203,53.3300318 10.6056889,56.2309051 C10.6010217,57.6806453 10.6623863,59.1269031 10.7737069,60.5644547 C10.7908199,60.9240168 10.8412944,61.2823599 10.8739646,61.640529 L10.9811366,62.7139914 C11.0661827,63.4280659 11.176639,64.1384839 11.2720567,64.8483795 L11.6535544,66.9630918 L11.8772328,68.0118289 C11.9553646,68.3604213 12.0160378,68.7119737 12.1112826,69.0563871 C12.4557887,70.4420504 12.8281249,71.8150027 13.2770373,73.1632298 L13.4391782,73.670099 C13.4948385,73.8386492 13.5574131,74.0049357 13.6161848,74.172267 L13.972791,75.1745136 L14.3601659,76.1643974 L14.5541126,76.658904 L14.763098,77.1473164 L15.1786488,78.1234446 L15.6199554,79.0877325 L15.8405223,79.5695282 L16.0764736,80.0440108 L16.5478575,80.9919312 L17.0491459,81.9238325 L17.29979,82.3892607 L17.5649543,82.8466793 L18.0935542,83.7613424 L18.6441072,84.6622499 L18.9201615,85.1118331 L19.2095259,85.5527101 L19.7889461,86.4337677 C20.1977554,87.0052362 20.584266,87.5918534 21.0146826,88.1466063 C24.3492874,92.6614169 28.4275275,96.5840384 33.0074018,99.7814416 C37.586066,102.98372 42.6877988,105.409066 48.04346,106.976165 C53.4110484,108.519757 59.053654,109.19744 64.6974696,108.953843 C65.4041134,108.936431 66.1066085,108.864692 66.813598,108.824644 C67.166747,108.801312 67.5176488,108.757782 67.8702793,108.725395 C68.2223911,108.688481 68.5764044,108.662014 68.9267877,108.609952 L69.9812219,108.470306 C70.3338523,108.427124 70.6811242,108.357997 71.0318532,108.303323 C71.7336569,108.194497 72.430102,108.054677 73.1298314,107.921299 C74.5225488,107.628948 75.9112904,107.292893 77.2834377,106.885273 C77.9752157,106.697918 78.653165,106.466858 79.3380286,106.249031 C79.6802875,106.139508 80.0149407,106.01031 80.354434,105.891733 C80.6927172,105.769673 81.0337661,105.653011 81.3679008,105.519808 L82.377219,105.130819 C82.7137736,105.000054 83.0427225,104.852224 83.3765114,104.713623 C84.048065,104.443037 84.6955912,104.12213 85.3598848,103.828212 C86.6679017,103.203114 87.9671029,102.54145 89.2336338,101.812053 C89.8775301,101.462938 90.4897934,101.063851 91.1241824,100.691578 C91.4370555,100.499173 91.7424957,100.295972 92.0529488,100.09817 C92.363229,99.9000188 92.6731635,99.7004749 92.9746279,99.4889166 C94.2055502,98.673503 95.3977522,97.7919231 96.5807928,96.8819613 C95.6397535,98.044226 94.6240395,99.1488562 93.5533567,100.20421 C93.2913039,100.475144 93.014731,100.729014 92.7393681,100.985321 C92.4633138,101.240759 92.1908895,101.50229 91.9099952,101.753722 C91.341465,102.247358 90.7758734,102.750223 90.1819332,103.217044 C89.0172156,104.184466 87.7760947,105.054031 86.5192438,105.909319 C85.8817432,106.32164 85.2440699,106.738836 84.5847892,107.118771 C84.2561861,107.310479 83.9317315,107.511938 83.5984611,107.696334 L82.5957115,108.247604 C79.9029287,109.685156 77.0628708,110.874583 74.1275681,111.798823 C73.3908471,112.019262 72.6562003,112.256068 71.9070335,112.436632 C71.5333144,112.529788 71.1618424,112.637221 70.7853576,112.718362 L69.6564216,112.971187 C69.2806282,113.061034 68.9003404,113.124763 68.5214356,113.198764 C68.1418393,113.268065 67.7632801,113.348509 67.3817824,113.408407 C66.6186141,113.526985 65.8544086,113.651308 65.0851902,113.730011 C63.5493464,113.923983 62.0020939,114.014874 60.4519029,114.0793 L59.2882224,114.092881 C59.0942757,114.093752 58.9001561,114.098453 58.7060365,114.095841 L58.1240234,114.082434 L56.9591329,114.053355 L55.7952796,113.988234 L55.2129208,113.954628 L54.631772,113.903262 L53.468783,113.799137 C53.0822724,113.753517 52.6959346,113.704763 52.3099426,113.653571 L51.7305224,113.577828 L51.1535222,113.484673 L49.9993489,113.295576 L48.8510528,113.070611 L48.2768184,112.956735 C48.0854645,112.917731 47.8961849,112.870022 47.7056954,112.827014 L46.5644865,112.561478 C45.0509413,112.174753 43.5456933,111.736662 42.0719055,111.20942 C41.3279244,110.964082 40.6052049,110.663025 39.8736696,110.383733 C39.5111862,110.235904 39.1525058,110.079368 38.791751,109.927185 L38.2513967,109.696996 L37.7177839,109.452006 L36.653324,108.954888 L35.6051127,108.424338 L35.0816985,108.157757 L34.5660629,107.875853 L33.5363475,107.309608 C32.8649668,106.905819 32.1816589,106.521358 31.5261811,106.091102 C31.1967136,105.879196 30.8629247,105.673558 30.5372601,105.455557 L29.5661436,104.7925 C24.4289749,101.2028 19.8992295,96.6972178 16.3634179,91.5080324 C14.5817699,88.9258024 13.0481732,86.1781565 11.7608993,83.3265597 C10.4895283,80.4676498 9.45013276,77.5082714 8.71894317,74.4759359 C8.32396251,72.9678648 8.06398399,71.4277553 7.81800697,69.895133 C7.74851803,69.5132833 7.71411928,69.1253394 7.66243472,68.7408779 L7.52017254,67.5861005 C7.44221355,66.8145657 7.39536902,66.0400708 7.33521442,65.2692325 C7.30945857,64.4949117 7.27021979,63.7230287 7.25777401,62.9511457 L7.26053974,61.7928858 C7.26209546,61.4072054 7.26053974,61.0220475 7.28473986,60.6367154 C7.34938878,59.0960835 7.45414076,57.5611976 7.65361896,56.0391968 C8.04341388,52.9955433 8.69854592,50.00047 9.63388088,47.1131781 C10.5650672,44.2258863 11.7610721,41.44063 13.24212,38.8395948" id="Fill-44" fill="#FFDE17"></path>
                            <path d="M109.684765,78.038978 C110.721049,75.2282999 111.565979,72.3840162 112.184638,69.5103059 C112.799494,66.6360732 113.203117,63.7385082 113.372864,60.8426843 C113.465689,59.3960784 113.492136,57.9487759 113.468282,56.5070453 C113.473122,56.1469609 113.444427,55.7863541 113.433537,55.4267921 L113.391878,54.3486284 C113.350393,53.6307232 113.283324,52.9149074 113.231293,52.2003105 L112.978921,50.0662707 L112.819545,49.0055191 C112.762675,48.6527479 112.723436,48.2980613 112.649107,47.9485983 C112.389647,46.544304 112.101147,45.1509793 111.735207,43.7775046 L111.60418,43.2617551 C111.558719,43.0900707 111.506516,42.9203017 111.458115,42.749488 L111.162874,41.7272175 L110.836345,40.7152201 L110.672821,40.2095697 L110.493913,39.709317 L110.138517,38.7093341 L109.756501,37.7196244 L109.565838,37.2252919 L109.3591,36.7372278 L108.946142,35.761796 L108.502415,34.8008164 L108.280466,34.3207619 L108.043477,33.8478465 L107.571575,32.9021896 L107.076855,31.9692437 L106.828458,31.5034672 L106.566405,31.0453521 L106.041781,30.1305148 C105.668408,29.5348433 105.318197,28.9254161 104.922179,28.3452414 C101.868296,23.6331505 98.0360329,19.466584 93.6589211,15.9928491 C89.283538,12.514587 84.3385875,9.77912963 79.0881968,7.88485585 C73.8243232,6.01339205 68.2335751,4.98885791 62.5856109,4.88403644 C61.87914,4.85791813 61.1737062,4.88630002 60.4655068,4.88264346 C60.1116663,4.88421056 59.7586902,4.90597582 59.4046769,4.91659726 C59.0511821,4.93174588 58.6961317,4.93627305 58.3433284,4.96674441 L57.2823256,5.04109453 C56.9277938,5.06251154 56.5768919,5.11004686 56.2233972,5.14313005 C55.5162349,5.20842582 54.8127026,5.30488943 54.1064045,5.39508465 C52.6984756,5.6007228 51.2917568,5.85076206 49.8974837,6.17306197 C49.1955071,6.31740915 48.5047663,6.50615745 47.8081483,6.68149836 C47.4598393,6.76960412 47.1179261,6.87790803 46.7716914,6.97541638 C46.4268396,7.07640717 46.0793949,7.17165193 45.7376545,7.28396065 L44.706729,7.61026537 C44.3627415,7.71978814 44.0254954,7.84707136 43.6837551,7.96495199 C42.9973357,8.19374836 42.3314865,8.47391074 41.6504257,8.72638771 C40.3068,9.26982263 38.9699158,9.85017142 37.6613803,10.4998208 C36.9976054,10.8088874 36.3621791,11.1693201 35.7063557,11.5018932 C35.3824197,11.6744481 35.0652251,11.8584951 34.7433634,12.0367961 C34.4216746,12.2156195 34.0999857,12.3956617 33.7862484,12.5880665 C32.5081359,13.326344 31.2647679,14.1325291 30.028487,14.9679667 C31.0384967,13.8657741 32.1193781,12.8259173 33.2522898,11.8386452 C33.5302456,11.584427 33.8216843,11.3479693 34.1120858,11.1088997 C34.4031788,10.871049 34.6909874,10.6269299 34.9865747,10.3932581 C35.5839722,9.93549123 36.1792953,9.46849589 36.8002015,9.03945916 C38.0216165,8.14551655 39.3132119,7.35395772 40.619846,6.5775475 C41.281028,6.20544867 41.9429015,5.82830031 42.6239623,5.48998117 C42.9636284,5.31864507 43.2998373,5.13755814 43.643652,4.97423166 L44.6778617,4.48564519 C47.4530979,3.21681781 50.359879,2.20482046 53.3460019,1.46340877 C54.0946502,1.28859023 54.8422613,1.09740422 55.6011082,0.963678485 C55.9796673,0.893507299 56.3571893,0.809232227 56.7378228,0.751423706 L57.8798959,0.568595554 C58.2605294,0.502080931 58.6439286,0.462032859 59.0266363,0.411537465 C59.4098626,0.365569244 59.7925704,0.308631333 60.1770067,0.272413947 C60.9458793,0.201198029 61.7161348,0.124061961 62.4888104,0.0932423577 C64.03347,-0.00600721072 65.5833153,-0.00130591537 67.1345435,0.0300360536 L68.2968411,0.0880186962 C68.490615,0.0993366295 68.6845617,0.106649756 68.8781628,0.121101886 L69.4582744,0.170378426 L70.6191891,0.271195093 L71.7769924,0.407880902 L72.3562398,0.477529722 L72.9330671,0.564764869 L74.0874132,0.739931651 C74.4704667,0.809406349 74.8531744,0.881841122 75.2355364,0.956887725 L75.8092523,1.06797759 L76.3795111,1.19665379 L77.5198557,1.45661801 L78.6524217,1.751929 L79.2185318,1.90080336 C79.4071199,1.951647 79.5931152,2.01084849 79.7806662,2.06569694 L80.903725,2.40105601 C82.3909957,2.88041401 83.8668579,3.41044153 85.3057283,4.02753007 C86.0332879,4.3183139 86.7364745,4.6634238 87.4496868,4.98729081 C87.8024901,5.15705981 88.150972,5.33553491 88.5018738,5.50965696 L89.0271895,5.77258126 L89.5448993,6.05013181 L90.5772077,6.61184954 L91.591193,7.2061281 L92.0974943,7.50457329 L92.5949798,7.81747061 L93.588395,8.44622533 C94.2340199,8.89058481 94.8926091,9.31648734 95.5207753,9.78644275 C95.8367598,10.0183733 96.1574115,10.2438614 96.4692474,10.4817121 L97.3981867,11.2032739 C102.307701,15.1030854 106.555169,19.8792533 109.769119,25.2766886 C111.390528,27.9640883 112.754378,30.801233 113.865855,33.7266575 C114.961257,36.6585246 115.818806,39.6765821 116.364519,42.7482692 C116.667193,44.2779314 116.832964,45.8311001 116.985425,47.3759109 C117.031578,47.7614171 117.042468,48.1509281 117.070471,48.5376532 L117.14238,49.6990473 C117.173321,50.4738904 117.172976,51.2499524 117.186286,52.0228801 C117.164851,52.797375 117.157246,53.5704769 117.122674,54.3416635 L117.049555,55.4974857 C117.024491,55.8822954 117.002883,56.266931 116.955175,56.6499995 C116.797182,58.1836665 116.59926,59.7093239 116.307648,61.2161761 C115.733759,64.2300547 114.897818,67.1791599 113.788761,70.0035936 C112.684025,72.8278533 111.320866,75.5340582 109.684765,78.038978" id="Fill-46" fill="#FFDE17"></path>
                        </g>
                        <g id="Group-55" transform="translate(9.287796, 132.746886)" fill="#FFDE17">
                            <path d="M35.1606382,0.282479801 C32.176989,4.34681714 29.3805114,8.25110612 26.7708355,11.9931187 C25.6526144,13.5973158 24.5062805,15.2156239 23.335163,16.8458149 C22.1629358,18.4778627 21.0447147,20.0545805 19.9797598,21.5785677 C18.9133253,23.102555 17.9023764,24.5203384 16.9432142,25.8296901 C15.9844219,27.140527 15.1854283,28.2497254 14.5462334,29.1583991 L35.8797325,29.1583991 L35.8797325,36.2970762 L0.643374802,36.2970762 C3.5722782,32.2338529 6.36912571,28.3299352 9.03317753,24.5864373 C10.1521385,22.9822402 11.3103093,21.3654175 12.5091696,19.7337411 C13.7072901,18.1031787 14.8384579,16.5249755 15.9045225,15.0013596 C16.9694774,13.477001 17.9822758,12.0610742 18.9406982,10.7498659 C19.8994905,9.44014296 20.6984841,8.33131598 21.3380489,7.42152826 L0.00454982468,7.42152826 L0.00454982468,0.282479801 L35.1606382,0.282479801 Z" id="Fill-49"></path>
                            <path d="M41.4728726,18.32992 C41.4728726,19.827542 41.7525204,21.2453255 42.3118159,22.5810424 C42.8707415,23.918616 43.6423622,25.0816589 44.6285275,26.0705424 C45.613583,27.06054 46.7721237,27.8351592 48.1045195,28.3962569 C49.4350658,28.9577259 50.847361,29.2388317 52.3391856,29.2388317 C53.8295306,29.2388317 55.2418258,28.9577259 56.5738517,28.3962569 C57.9047679,27.8351592 59.0633086,27.06054 60.0494739,26.0705424 C61.0345294,25.0816589 61.8076297,23.918616 62.3665553,22.5810424 C62.9258509,21.2453255 63.2054986,19.827542 63.2054986,18.32992 C63.2054986,16.8337834 62.9258509,15.4297396 62.3665553,14.1189026 C61.8076297,12.8091797 61.0345294,11.6598764 60.0494739,10.6698789 C59.0633086,9.68099533 57.9047679,8.90526205 56.5738517,8.34342172 C55.2418258,7.78232408 53.8295306,7.50158958 52.3391856,7.50158958 C50.847361,7.50158958 49.4350658,7.78232408 48.1045195,8.34342172 C46.7721237,8.90526205 45.613583,9.68099533 44.6285275,10.6698789 C43.6423622,11.6598764 42.8707415,12.8091797 42.3118159,14.1189026 C41.7525204,15.4297396 41.4728726,16.8337834 41.4728726,18.32992 M34.441359,18.32992 C34.441359,15.8170493 34.9070687,13.4772238 35.8395978,11.3115577 C36.7710172,9.14589162 38.049407,7.24833439 39.675137,5.61665798 C41.2990176,3.9860956 43.2032856,2.70273792 45.3879413,1.76658493 C47.5711173,0.831545968 49.8885687,0.362541119 52.3391856,0.362541119 C54.842329,0.362541119 57.1730969,0.831545968 59.3303797,1.76658493 C61.4876624,2.70273792 63.3915606,3.9860956 65.0435538,5.61665798 C66.6940674,7.24833439 67.9861437,9.14589162 68.9183029,11.3115577 C69.8497223,13.4772238 70.3169116,15.8170493 70.3169116,18.32992 C70.3169116,20.7900603 69.8497223,23.1165174 68.9183029,25.3081775 C67.9861437,27.5013229 66.6940674,29.4267307 65.0435538,31.0836584 C63.3915606,32.7417001 61.4876624,34.0387974 59.3303797,34.973465 C57.1730969,35.9099894 54.842329,36.3775088 52.3391856,36.3775088 C49.8885687,36.3775088 47.5711173,35.9099894 45.3879413,34.973465 C43.2032856,34.0387974 41.2990176,32.7417001 39.675137,31.0836584 C38.049407,29.4267307 36.7710172,27.5013229 35.8395978,25.3081775 C34.9070687,23.1165174 34.441359,20.7900603 34.441359,18.32992" id="Fill-51"></path>
                            <path d="M73.7127084,11.2312736 C74.6441278,9.06560749 75.9225175,7.16805027 77.5478777,5.53637386 C79.1721281,3.90544014 81.0760263,2.62208245 83.2606819,1.68630081 C85.4442279,0.751261844 87.7613093,0.282628337 90.2119263,0.282628337 C92.7150696,0.282628337 95.0462075,0.751261844 97.2034902,1.68630081 C99.3607729,2.62208245 101.264301,3.90544014 102.916294,5.53637386 C104.566808,7.16805027 105.858884,9.06560749 106.791413,11.2312736 C107.722463,13.3969397 108.189652,15.7371365 108.189652,18.2496359 L108.189652,36.2972247 L101.078239,36.2972247 L101.078239,18.2496359 C101.078239,16.753128 100.798961,15.3498269 100.239666,14.0389899 C99.6803704,12.7288956 98.9072701,11.5795923 97.9222145,10.5895947 C96.9360493,9.6007112 95.7775086,8.82497793 94.4469623,8.26350894 C93.1145665,7.70203995 91.7026412,7.42130546 90.2119263,7.42130546 C88.7201016,7.42130546 87.3218628,7.70203995 86.0175798,8.26350894 C84.7114472,8.82497793 83.5665929,9.6007112 82.5819073,10.5895947 C81.5953721,11.5795923 80.8237514,12.7288956 80.2644559,14.0389899 C79.7051604,15.3498269 79.4255126,16.753128 79.4255126,18.2496359 L79.4255126,36.2972247 L72.3144696,36.2972247 L72.3144696,18.2496359 C72.3144696,15.7371365 72.7801793,13.3969397 73.7127084,11.2312736" id="Fill-53"></path>
                        </g>
                        <g id="Group-60" transform="translate(55.726779, 126.572612)" fill="#FFDE17">
                            <path d="M4.30699829,2.33686926 C4.30699829,3.48977154 3.37044218,4.4242444 2.2149697,4.4242444 C1.05949722,4.4242444 0.122578668,3.48977154 0.122578668,2.33686926 C0.122578668,1.18396699 1.05949722,0.249494128 2.2149697,0.249494128 C3.37044218,0.249494128 4.30699829,1.18396699 4.30699829,2.33686926" id="Fill-56"></path>
                            <path d="M10.9695947,2.33686926 C10.9695947,3.48977154 10.0330386,4.4242444 8.87720365,4.4242444 C7.72173117,4.4242444 6.78517506,3.48977154 6.78517506,2.33686926 C6.78517506,1.18396699 7.72173117,0.249494128 8.87720365,0.249494128 C10.0330386,0.249494128 10.9695947,1.18396699 10.9695947,2.33686926" id="Fill-58"></path>
                        </g>
                        <path d="M22.694214,179.364386 L22.694214,182.727563 L18.0969942,182.727563 L18.0969942,196.594201 L13.8850162,196.594201 L13.8850162,182.727563 L9.28779644,182.727563 L9.28779644,179.364386 L22.694214,179.364386 Z M24.7530183,179.364386 L35.411377,179.364386 L35.411377,182.727563 L28.9649962,182.727563 L28.9649962,186.194223 L35.1031835,186.194223 L35.1031835,189.5574 L28.9649962,189.5574 L28.9649962,193.231024 L35.4884254,193.231024 L35.4884254,196.594201 L24.7530183,196.594201 L24.7530183,179.364386 Z M42.6324225,179.364386 L42.6324225,193.231024 L48.9247066,193.231024 L48.9247066,196.594201 L38.4204446,196.594201 L38.4204446,179.364386 L42.6324225,179.364386 Z M51.0862421,179.364386 L61.7446009,179.364386 L61.7446009,182.727563 L55.29822,182.727563 L55.29822,186.194223 L61.4364074,186.194223 L61.4364074,189.5574 L55.29822,189.5574 L55.29822,193.231024 L61.8216492,193.231024 L61.8216492,196.594201 L51.0862421,196.594201 L51.0862421,179.364386 Z M73.1519415,179.053939 C74.0422828,179.053939 74.9368911,179.140174 75.8357933,179.312645 C76.7346955,179.485117 77.509452,179.735197 78.160086,180.062892 L77.543699,183.193234 C77.0300406,182.986268 76.4436227,182.809488 75.7844277,182.662887 C75.1252327,182.516286 74.4703281,182.442987 73.8196941,182.442987 C72.0732555,182.442987 70.6949594,182.90003 69.6847646,183.814128 C68.6745697,184.728227 68.1694798,186.116602 68.1694798,187.979294 C68.1694798,189.841986 68.6745697,191.23036 69.6847646,192.144459 C70.6949594,193.058558 72.0732555,193.515601 73.8196941,193.515601 C74.4703281,193.515601 75.1252327,193.442301 75.7844277,193.295701 C76.4436227,193.1491 77.0300406,192.972319 77.543699,192.765353 L78.160086,195.895695 C77.509452,196.223391 76.7346955,196.473471 75.8357933,196.645942 C74.9368911,196.818414 74.0422828,196.904648 73.1519415,196.904648 C71.6452102,196.904648 70.3182792,196.680439 69.1711087,196.232013 C68.0239383,195.783587 67.0651236,195.162699 66.294636,194.36933 C65.5241484,193.575961 64.9420109,192.636006 64.5482061,191.549436 C64.1544013,190.462865 63.9575019,189.27283 63.9575019,187.979294 C63.9575019,186.685758 64.1544013,185.495722 64.5482061,184.409152 C64.9420109,183.322582 65.5241484,182.382626 66.294636,181.589257 C67.0651236,180.795889 68.0239383,180.175001 69.1711087,179.726575 C70.3182792,179.278149 71.6452102,179.053939 73.1519415,179.053939 Z M97.2979471,187.979294 C97.2979471,189.203841 97.1010477,190.355071 96.7072429,191.433018 C96.3134381,192.510965 95.7441419,193.455232 94.9993372,194.265848 C94.2545325,195.076464 93.3428025,195.71891 92.2641198,196.193207 C91.1854372,196.667504 89.9526755,196.904648 88.5657977,196.904648 C87.17892,196.904648 85.9418779,196.667504 84.8546343,196.193207 C83.7673906,195.71891 82.8513802,195.076464 82.1065755,194.265848 C81.3617708,193.455232 80.796755,192.510965 80.4115112,191.433018 C80.0262674,190.355071 79.8336484,189.203841 79.8336484,187.979294 C79.8336484,186.754746 80.0262674,185.603516 80.4115112,184.52557 C80.796755,183.447623 81.3617708,182.503356 82.1065755,181.69274 C82.8513802,180.882124 83.7673906,180.239677 84.8546343,179.765381 C85.9418779,179.291084 87.17892,179.053939 88.5657977,179.053939 C89.9526755,179.053939 91.1854372,179.291084 92.2641198,179.765381 C93.3428025,180.239677 94.2545325,180.882124 94.9993372,181.69274 C95.7441419,182.503356 96.3134381,183.447623 96.7072429,184.52557 C97.1010477,185.603516 97.2979471,186.754746 97.2979471,187.979294 Z M88.5657977,193.541471 C89.3020415,193.541471 89.9526657,193.403496 90.51769,193.127542 C91.0827142,192.851587 91.5578411,192.467844 91.9430849,191.9763 C92.3283287,191.484757 92.615117,190.898362 92.8034585,190.2171 C92.9917999,189.535838 93.0859692,188.78991 93.0859692,187.979294 C93.0859692,187.168678 92.9917999,186.42275 92.8034585,185.741488 C92.615117,185.060225 92.3283287,184.473831 91.9430849,183.982287 C91.5578411,183.490743 91.0827142,183.107 90.51769,182.831046 C89.9526657,182.555091 89.3020415,182.417116 88.5657977,182.417116 C87.8124321,182.417116 87.1575274,182.555091 86.6010641,182.831046 C86.0446009,183.107 85.5737544,183.490743 85.1885106,183.982287 C84.8032668,184.473831 84.5164785,185.060225 84.328137,185.741488 C84.1397956,186.42275 84.0456263,187.168678 84.0456263,187.979294 C84.0456263,188.78991 84.1397956,189.535838 84.328137,190.2171 C84.5164785,190.898362 84.8032668,191.484757 85.1885106,191.9763 C85.5737544,192.467844 86.0446009,192.851587 86.6010641,193.127542 C87.1575274,193.403496 87.8124321,193.541471 88.5657977,193.541471 Z M111.324933,193.851918 L107.267051,193.851918 L103.928288,186.94447 L103.414633,196.594201 L99.279703,196.594201 L100.563843,179.364386 L104.364896,179.364386 L109.295992,189.893718 L114.227088,179.364386 L118.028141,179.364386 L119.312281,196.594201 L115.177351,196.594201 L114.663696,186.94447 L111.324933,193.851918 Z" id="TELECOM" fill="#949494"></path>
                    </g>
                </g>
            </g>
        </g>
    </g>
</svg>