<?xml version="1.0" encoding="UTF-8"?>
<svg width="288px" height="222px" viewBox="0 0 288 222" version="1.1" xmlns="http://www.w3.org/2000/svg" xmlns:xlink="http://www.w3.org/1999/xlink">
    <!-- Generator: Sketch 49.1 (51147) - http://www.bohemiancoding.com/sketch -->
    <title>modem</title>
    <desc>Created with Sketch.</desc>
    <defs></defs>
    <g id="Website" stroke="none" stroke-width="1" fill="none" fill-rule="evenodd">
        <g id="Product-Detail-" transform="translate(-262.000000, -941.000000)">
            <g id="Part-B" transform="translate(258.000000, 933.000000)">
                <g id="modem" transform="translate(0.000000, 8.000000)">
                    <rect id="Rectangle" fill="#181818" transform="translate(133.500000, 121.000000) rotate(-6.000000) translate(-133.500000, -121.000000) " x="9" y="29" width="249" height="184" rx="40"></rect>
                    <path d="M246.295431,0 C257.564959,2.13767853 269.744312,5.99906568 275.851052,13.3833032 C284.122056,23.3845849 282.238113,40.835804 284.991966,56.5748728 C286.820149,69.0444615 288.648332,81.5152668 290.476514,93.9872887 C290.781211,101.49005 291.085909,108.992811 291.390606,116.495571 C291.593737,121.767782 291.796869,127.039992 292,132.312203 C289.109948,148.114842 282.948058,162.610176 274.632264,173.37461 C269.848519,179.566517 253.653866,184.221473 243.857854,185.845416 L229.537089,186.453748 L140.26083,191.624569 L101.259597,194.057897 C91.9407402,195.461319 78.254964,197.296656 68.9617015,194.666229 C64.3738768,193.36744 57.4097193,189.549245 54.6409365,186.149582 L45.1953255,171.85378 L43.0624455,156.949647 C41.3579698,148.054009 37.9279942,137.693203 39.1013829,128.053879 L36.6638058,107.978924 C35.0522627,100.044146 36.6964084,87.8127193 38.1872915,82.1248154 L38.7966857,72.6956699 L42.1483542,54.4457109 C43.3842057,48.6744656 43.2403887,40.3880717 46.414114,36.195752 C54.1372721,25.9940249 61.3138036,16.369909 74.1415527,11.2541414 C84.7355672,7.02958003 100.558794,9.87140281 113.447482,7.90831556 L199.067376,2.73749385 L246.295431,0 Z M234.107545,4.86665573 L197.54389,6.38748564 L116.799151,11.8624733 L82.0636781,13.6874692 C69.77311,16.8179455 56.2637534,26.5339195 52.2033594,37.7165819 C50.7868225,41.6181189 50.9282019,65.482982 51.8986623,71.783172 L54.9456336,106.153928 L55.5550278,120.449729 C57.9365406,135.365725 59.4789175,147.980401 67.1335187,157.253813 C75.4517504,167.330224 102.920197,165.021604 119.541425,162.424635 L234.107545,153.907987 C257.103952,150.390916 275.568598,157.253813 283.46848,138.091356 C289.512757,123.430556 285.119329,96.166638 282.249692,79.9956535 C274.533237,36.5133013 289.006351,4.44356084 234.107545,4.86665573 Z M173.472817,38.6290798 C182.813307,38.5566883 199.887011,36.2295144 202.723741,42.8874036 C204.616215,47.3282269 203.374574,53.6168586 204.247227,59.3123667 C205.872278,76.85078 207.49733,94.3910184 209.122381,111.933082 C208.459055,114.422376 205.688749,117.13432 203.333135,118.016401 L193.27813,118.624733 C181.586597,122.414033 164.124099,119.734027 150.620532,121.362227 C143.705431,122.195946 134.661411,123.582639 131.424613,120.145563 C124.096038,112.365606 127.336492,94.6683163 125.33067,81.5164834 C124.479347,75.9341251 121.412265,50.1569706 124.416579,45.9290634 C129.569007,36.1406979 161.733141,43.1675405 173.472817,38.6290798 Z M190.231159,41.3665737 L173.777514,41.9749056 C160.662435,44.0058219 136.678506,41.3550154 127.46355,47.1457273 C128.682339,68.8406702 129.901127,90.5378437 131.119916,112.237248 C133.137316,113.486457 133.988639,116.390026 135.99507,117.408069 C141.057003,119.976751 151.163198,117.988418 156.10508,117.103903 C170.40086,114.545259 186.515987,115.297462 201.200256,114.974742 L203.94253,111.933082 C203.840964,107.370592 203.739398,102.808102 203.637833,98.2456125 C202.52061,86.3843558 201.403387,74.5218825 200.286164,62.6581925 C199.981467,56.8790388 199.67677,51.0998851 199.372073,45.3207315 C197.675519,42.9786534 194.169979,41.3665737 190.231159,41.3665737 Z M46.7188111,53.533213 L40.9295656,91.5539609 L41.2342628,101.895604 L41.843657,118.320567 C43.3689709,127.743934 44.5975097,137.174904 46.1094168,145.695506 C49.838605,166.713375 49.4117243,184.168853 67.742913,190.103739 C73.7235083,192.04006 80.2562147,191.293028 86.9388321,190.407905 C98.9271407,188.819855 111.688161,189.790448 124.416579,188.278743 L218.872689,182.49959 C238.184393,179.473747 252.885725,182.304315 266.405441,173.982942 C273.049667,169.893431 276.988182,161.52187 280.116812,153.907987 L268.233624,157.253813 C241.136908,160.041494 209.788449,158.638073 182.004336,163.032967 L156.714475,164.857963 L123.19779,167.291291 L102.173689,168.507955 C83.5905154,171.423385 67.963209,169.72036 59.5160905,158.166311 C50.572011,145.932451 50.6295987,117.691856 47.6329025,99.4622764 C46.6401992,93.4224525 47.8620347,88.3663013 47.0235082,83.0373133 L46.7188111,53.533213 Z M236.240425,58.0957027 C259.252676,57.4085918 262.200621,84.7287804 242.334368,88.816467 C231.767776,90.9909496 220.240779,78.0718037 223.138449,68.7415121 C224.793868,63.4106991 231.480752,60.5405889 236.240425,58.0957027 Z M237.459214,62.3540265 C233.677618,64.0162936 229.854583,64.9090207 228.3183,68.7415121 C224.600995,78.015533 232.112084,87.8686858 242.029671,85.7748072 C256.430267,82.7346682 254.552723,61.6872947 237.459214,62.3540265 Z M80.8448896,77.8664916 L82.6730723,78.1706576 L82.6730723,79.3873215 L79.0167068,83.0373133 L79.3214039,83.6456453 L82.6730723,84.5581432 C82.91683,80.8844265 85.3565399,79.7270749 88.4623178,80.6039855 C88.6654492,81.8206494 88.8685806,83.0373133 89.071712,84.2539773 L92.7280776,80.9081514 C94.6738735,81.0200845 94.6888036,81.3589254 95.7750489,82.1248154 C98.916781,79.7152125 105.060694,76.4691531 109.181723,79.3873215 C109.377948,80.4929649 109.303601,80.308032 109.791117,80.9081514 L112.228694,78.4748236 L114.666271,79.3873215 C114.80826,82.4840354 115.486516,83.8549115 114.361574,85.7748072 L114.056877,85.7748072 C112.124183,85.5086619 112.015406,85.0022256 111.009905,83.9498113 C109.174715,84.9331799 107.191441,85.9512234 104.915963,84.8623092 L105.830054,81.2123174 C104.367508,81.4812002 104.017716,81.6381498 103.392477,82.7331473 C102.478386,86.4845278 101.564294,90.2359083 100.650203,93.9872887 L99.7361116,94.2914547 L97.9079288,93.3789567 L97.9079288,84.8623092 L94.5562604,87.5998031 C88.5985174,87.1131375 81.0965694,87.8668608 75.3603412,85.1664752 C74.7384544,87.6022364 70.3048065,92.0041265 68.0476101,88.512301 L68.0476101,87.5998031 C69.0409228,86.0102316 70.7694696,86.3061851 71.7039757,84.5581432 C72.1102385,82.53037 72.5165014,80.5025968 72.9227642,78.4748236 L73.2274613,78.4748236 C75.1437016,78.798152 75.3323091,79.4095257 75.3603412,81.5164834 L80.8448896,77.8664916 Z" id="Color_Fill_1" fill="#949494" fill-rule="nonzero"></path>
                </g>
            </g>
        </g>
    </g>
</svg>