<svg id="Layer_1" data-name="Layer 1" xmlns="http://www.w3.org/2000/svg" viewBox="0 0 287.98 221.55"><defs><style>.cls-1{fill:#181818;}.cls-2{fill:#fc0;}</style></defs><title>modem-g (2)</title><g id="Website"><g id="Product-Detail-"><g id="Part-B"><g id="modem"><rect id="Rectangle" class="cls-1" x="5" y="29" width="249" height="184" rx="40" ry="40" transform="translate(-11.96 14.2) rotate(-6)"/><path id="Color_Fill_1" data-name="Color Fill 1" class="cls-2" d="M242.3,0c11.27,2.14,23.45,6,29.56,13.38,8.27,10,6.39,27.45,9.14,43.19L286.48,94l.91,22.51.61,15.82c-2.89,15.8-9.05,30.3-17.37,41.06-4.78,6.19-21,10.85-30.77,12.47l-14.32.61-89.28,5.17-39,2.43c-9.32,1.4-23,3.24-32.3.61-4.59-1.3-11.55-5.12-14.32-8.52l-9.45-14.3-2.13-14.9c-1.7-8.9-5.13-19.26-4-28.9L32.66,108c-1.61-7.93,0-20.17,1.52-25.85l.61-9.43,3.35-18.25c1.24-5.77,1.09-14.06,4.27-18.25C50.14,26,57.31,16.37,70.14,11.25,80.74,7,96.56,9.87,109.45,7.91l85.62-5.17ZM230.11,4.87,193.54,6.39,112.8,11.86,78.06,13.69c-12.29,3.13-25.8,12.85-29.86,24-1.42,3.9-1.28,27.77-.3,34.07l3,34.37.61,14.3c2.38,14.92,3.92,27.53,11.58,36.8,8.32,10.08,35.79,7.77,52.41,5.17l114.57-8.52c23-3.52,41.46,3.35,49.36-15.82,6-14.66,1.65-41.92-1.22-58.1C270.53,36.51,285,4.44,230.11,4.87ZM169.47,38.63c9.34-.07,26.41-2.4,29.25,4.26,1.89,4.44.65,10.73,1.52,16.42l4.88,52.62a10.51,10.51,0,0,1-5.79,6.08l-10.05.61c-11.69,3.79-29.15,1.11-42.66,2.74-6.92.83-16,2.22-19.2-1.22-7.33-7.78-4.09-25.48-6.09-38.63-.85-5.58-3.92-31.36-.91-35.59C125.57,36.14,157.73,43.17,169.47,38.63Zm16.76,2.74L169.78,42c-13.12,2-37.1-.62-46.31,5.17l3.66,65.09c2,1.25,2.87,4.15,4.88,5.17,5.06,2.57,15.17.58,20.11-.3,14.3-2.56,30.41-1.81,45.1-2.13l2.74-3-.3-13.69-3.35-35.59-.91-17.34C193.68,43,190.17,41.37,186.23,41.37ZM42.72,53.53l-5.79,38,.3,10.34.61,16.42c1.53,9.42,2.75,18.85,4.27,27.37,3.73,21,3.3,38.47,21.63,44.41,6,1.94,12.51,1.19,19.2.3,12-1.59,24.75-.62,37.48-2.13l94.46-5.78c19.31-3,34-.2,47.53-8.52,6.64-4.09,10.58-12.46,13.71-20.07l-11.88,3.35C237.14,160,205.79,158.64,178,163l-25.29,1.82-33.52,2.43-21,1.22c-18.58,2.92-34.21,1.21-42.66-10.34-8.94-12.23-8.89-40.47-11.88-58.7-1-6,.23-11.1-.61-16.42ZM232.24,58.1c23-.69,26,26.63,6.09,30.72-10.57,2.17-22.09-10.74-19.2-20.07C220.79,63.41,227.48,60.54,232.24,58.1Zm1.22,4.26c-3.78,1.66-7.6,2.55-9.14,6.39-3.72,9.27,3.79,19.13,13.71,17C252.43,82.73,250.55,61.69,233.46,62.35Z" transform="translate(-0.02 0)"/></g></g></g></g></svg>