<svg xmlns="http://www.w3.org/2000/svg" width="1667" height="1250" viewBox="0 0 1667 1250">
  <metadata><?xpacket begin="﻿" id="W5M0MpCehiHzreSzNTczkc9d"?>
<x:xmpmeta xmlns:x="adobe:ns:meta/" x:xmptk="Adobe XMP Core 5.6-c140 79.160451, 2017/05/06-01:08:21        ">
   <rdf:RDF xmlns:rdf="http://www.w3.org/1999/02/22-rdf-syntax-ns#">
      <rdf:Description rdf:about=""/>
   </rdf:RDF>
</x:xmpmeta>
                                                                                                    
                                                                                                    
                                                                                                    
                                                                                                    
                                                                                                    
                                                                                                    
                                                                                                    
                                                                                                    
                                                                                                    
                                                                                                    
                                                                                                    
                                                                                                    
                                                                                                    
                                                                                                    
                                                                                                    
                                                                                                    
                                                                                                    
                                                                                                    
                                                                                                    
                                                                                                    
                           
<?xpacket end="w"?></metadata>
<defs>
    <style>
      .cls-1 {
        fill: #181818;
      }

      .cls-1, .cls-2 {
        fill-rule: evenodd;
      }

      .cls-2 {
        fill: #fc0;
      }
    </style>
  </defs>
  <path class="cls-1" d="M218.693,390.178L1187.67,273.291a36.989,36.989,0,0,1,41.16,32.3l69.7,577.811a36.994,36.994,0,0,1-32.3,41.165L297.257,1041.46a37.009,37.009,0,0,1-41.165-32.31l-69.7-577.807A37,37,0,0,1,218.693,390.178Z"/>
  <path id="Color_Fill_2" data-name="Color Fill 2" class="cls-2" d="M1322.2,163c20.61,3.173,43.11,3.566,51.63,17.673,12.22,20.208,10.04,73.681,15.42,101.875,4.76,24.946,3.66,54.6,8.23,81.947,11.6,69.325,16.51,146.481,31.3,212.218,6.35,28.225,22.71,98.035,11.28,123.6-11.98,26.766-38.08,49-57.62,68.8-4.88,4.942-10.39,17.284-16.77,19.951l-49.42,3.523c-38.42,6.256-77.25,8.906-118.1,15.654-91.27,15.077-199.705,11.278-295.877,23.974-38.012,5.018-78.129.247-113.576,5.217-45.578,6.392-90.533,2.342-134.131,9.563L465.186,866.95c-22.029,3.43-54.444,14.274-68.183-5.465-13.1-18.822-9.775-52.277-13.946-79.292L365.481,607.7q-6.025-35.742-12.054-71.49,0.078-15.141.158-30.286-3.514-49.757-7.03-99.523-4.367-32.172-8.735-64.351L334,327.853c3.656-18.977,30.637-50.734,40.661-67.17,7.326-12.01,11.86-28.7,22.885-36.682,17.192-12.445,45.6-14.34,70.956-17.7l38.717,1.1c39.774-5.157,79.346-2.786,120.716-8.536,71.876-9.991,152.7-6.159,223.07-15.482l76.166-2.761,91.712-4.432c42.04-5.729,87.33.833,127.66-4.816,43.86-6.144,89.05-2.592,131.27-8.235Zm-26.69,21.781-67.03,3.726q-73.38,3.9-146.76,7.794l-41.58.224L907.5,203.308l-53.56.588c-81.112,10.222-169.975,7.725-251.327,18.2-54,6.952-119.751,1.412-169.469,13.486l-0.744,1.388c4.224,69.28,12.379,139.96,23.009,206.346Q462,520.982,468.6,598.663c4.612,35.552,1.512,125.408,21.353,140.788,9.376,7.267,38.214,5.745,53.44,3.636l140.447-8.678c34.682-5.392,75.878-1.543,112.228-7.369C882.725,713.149,970.458,709.754,1059,697.2l72-4.993,77.11-11.187,36.02-3.2q-5.745-32.916-11.51-65.839c-4.55-29.19-2.23-60.823-8.77-87.6-2.9-11.839-11.95-42.011.07-52.125,7.97-6.711,22.25-4.58,34.72-6.76l69.91-5.757c19.46-2.544,39.17,2,55.75-3.342q-5.85-42.075-11.7-84.159-0.915-16.93-1.85-33.865-4.89-38.526-9.78-77.061c-2.49-17.03-3.03-64.26-12.76-71.51C1338.52,182.579,1311.26,185,1295.51,184.777Zm-888.31,71.2c-13.835,21.71-27.4,42.691-38.529,66.526L362,334.286q1.8,10.969,3.6,21.94l8.515,72.093q2.538,34.585,5.075,69.178,0.134,20.077.266,40.16L390.944,604.2q3.442,39.894,6.886,79.8c5.126,39.521,4.339,75.5,10.189,112.293,2.334,14.683.86,39.24,11.368,46.111,11.5,7.044,51.7,1.669,68.363-.87,56.846-8.663,117.122-10.675,175.965-18.937l107.3-7.509c35.466-4.669,73.645-.367,111.464-5.278,101.718-13.207,214.48-7.589,310.66-23.552,39.46-6.55,77.26-8.419,113.86-15.072l43.78-3.683,13.8-14.4c17.34-20.295,39.67-37.521,53.87-61.158-0.81-9.445,1.27-22.192-.46-33.121-9.78-61.587-20.04-116.773-30.83-179.1l-47.31,3.583c-33.53,4.242-71.21-3.025-97.48,9.2-0.6,18.4,6.67,34.647,9.78,52.406,5.86,33.544,5.54,66.53,12.72,97.572,2.3,9.953,11.56,43.22,5.57,51.582-7.24,10.116-32.62,3.934-47.38,6.4l-83.49,12.415-51.53,3.463-98.186,9.177L784.123,750.65,726.3,752.524l-97.486,9.2-118.544,6.485c-12.591,1.612-33.542.851-40.709-5.387-21.714-18.9-20.268-99.708-25.637-138.8-12-87.352-12.341-179.135-26.334-262.795Q412.4,308.608,407.2,255.975Zm916.04,266.3c34-.712,37.37,31.057,16.5,39.213q2.7,4.3,5.39,8.606c3.7,13.955-9.13,19.66-12.06,27.833,8.29,6.454,21.73,32.429,14.08,49.711-2.87,6.183-9.29,7.2-16.35,5.17-0.91-1.2-1.81-2.4-2.72-3.6-2.6-11.3-.37-25.142-5.37-33.965q-6.495-6.876-13-13.754c-1.91-8.546,8.55-18.244,13.34-22.866-0.2-1.18-.41-2.36-0.61-3.54a33.975,33.975,0,0,1-17.39-7.54c0.04-1.642.09-3.284,0.14-4.926,2.47-8.274,17.96-11.878,24.41-16.211l0.87-5.611-2.76-2.191c-9.15,2.7-17.28.417-22.43-4.161l0.87-5.611C1309.7,522.188,1315.7,524.773,1323.24,522.28ZM1175.98,720.957l21.08,2.009q1.71,1.81,3.41,3.62c-0.25,6.785-21.54,43.689-25.25,45.772-4.5,4.065-74.34,10.871-79.69,2.661-4.5-7.978,5.32-15.04,8.33-20.191,4.62-7.928,7.98-23.1,15.58-27.733C1127.38,722.247,1164.36,725.409,1175.98,720.957ZM1172,737.045l-42.42,5.132q-5.22,10.063-10.44,20.13c0.22,0.476.44,0.952,0.67,1.428q22.26-2.535,44.53-5.071l13.29-21.458ZM557.376,796.317c6.9,0.05,14.012.527,18.967,1.949l2.715,3.6-0.864,5.611c-7.142,5.273-20.433,6.143-28.9.585q-0.332-.712-0.664-1.427c0.152-5.167,1.046-5.689,3.056-8.366Z"/>
</svg>
