<?xml version="1.0" encoding="UTF-8"?>
<svg width="1059px" height="192px" viewBox="0 0 1059 192" version="1.1" xmlns="http://www.w3.org/2000/svg" xmlns:xlink="http://www.w3.org/1999/xlink">
    <!-- Generator: Sketch 50.2 (55047) - http://www.bohemiancoding.com/sketch -->
    <title>OTHER PRODUCTS@1x</title>
    <desc>Created with Sketch.</desc>
    <defs></defs>
    <g id="Page-1" stroke="none" stroke-width="1" fill="none" fill-rule="evenodd">
        <path d="M47.432,0.192 C51.8480221,0.192 55.5439851,1.67998512 58.52,4.656 C61.4960149,7.63201488 62.984,11.3279779 62.984,15.744 L62.984,176.448 C62.984,180.864022 61.4960149,184.559985 58.52,187.536 C55.5439851,190.512015 51.8480221,192 47.432,192 L16.328,192 C11.9119779,192 8.21601488,190.512015 5.24,187.536 C2.26398512,184.559985 0.776,180.864022 0.776,176.448 L0.776,15.744 C0.776,11.3279779 2.26398512,7.63201488 5.24,4.656 C8.21601488,1.67998512 11.9119779,0.192 16.328,0.192 L47.432,0.192 Z M42.248,26.112 C42.248,24.5759923 41.7680048,23.3280048 40.808,22.368 C39.8479952,21.4079952 38.6000077,20.928 37.064,20.928 L5.96,20.928 C10.3760221,20.928 14.0719851,22.4159851 17.048,25.392 C20.0240149,28.3680149 21.512,32.0639779 21.512,36.48 L21.512,166.08 C21.512,167.616008 21.9919952,168.863995 22.952,169.824 C23.9120048,170.784005 25.1599923,171.264 26.696,171.264 L37.064,171.264 C38.6000077,171.264 39.8479952,170.784005 40.808,169.824 C41.7680048,168.863995 42.248,167.616008 42.248,166.08 L42.248,26.112 Z M104.456,192 C102.919992,192 101.672005,191.520005 100.712,190.56 C99.7519952,189.599995 99.272,188.352008 99.272,186.816 L99.272,26.112 C99.272,24.5759923 98.7920048,23.3280048 97.832,22.368 C96.8719952,21.4079952 95.6240077,20.928 94.088,20.928 L83.72,20.928 C82.1839923,20.928 80.9360048,20.4480048 79.976,19.488 C79.0159952,18.5279952 78.536,17.2800077 78.536,15.744 L78.536,5.376 C78.536,3.83999232 79.0159952,2.5920048 79.976,1.632 C80.9360048,0.6719952 82.1839923,0.192 83.72,0.192 L135.56,0.192 C137.096008,0.192 138.343995,0.6719952 139.304,1.632 C140.264005,2.5920048 140.744,3.83999232 140.744,5.376 L140.744,15.744 C140.744,17.2800077 140.264005,18.5279952 139.304,19.488 C138.343995,20.4480048 137.096008,20.928 135.56,20.928 L104.456,20.928 C108.872022,20.928 112.567985,22.4159851 115.544,25.392 C118.520015,28.3680149 120.008,32.0639779 120.008,36.48 L120.008,186.816 C120.008,188.352008 119.528005,189.599995 118.568,190.56 C117.607995,191.520005 116.360008,192 114.824,192 L104.456,192 Z M156.296,5.376 C156.296,3.83999232 156.775995,2.5920048 157.736,1.632 C158.696005,0.6719952 159.943992,0.192 161.48,0.192 L171.848,0.192 C173.384008,0.192 174.631995,0.6719952 175.592,1.632 C176.552005,2.5920048 177.032,3.83999232 177.032,5.376 L177.032,93.504 C177.032,95.0400077 177.511995,96.2879952 178.472,97.248 C179.432005,98.2080048 180.679992,98.688 182.216,98.688 L192.584,98.688 C194.120008,98.688 195.367995,98.2080048 196.328,97.248 C197.288005,96.2879952 197.768,95.0400077 197.768,93.504 L197.768,5.376 C197.768,3.83999232 198.247995,2.5920048 199.208,1.632 C200.168005,0.6719952 201.415992,0.192 202.952,0.192 L213.32,0.192 C214.856008,0.192 216.103995,0.6719952 217.064,1.632 C218.024005,2.5920048 218.504,3.83999232 218.504,5.376 L218.504,186.816 C218.504,188.352008 218.024005,189.599995 217.064,190.56 C216.103995,191.520005 214.856008,192 213.32,192 L202.952,192 C201.415992,192 200.168005,191.520005 199.208,190.56 C198.247995,189.599995 197.768,188.352008 197.768,186.816 L197.768,124.608 C197.768,123.071992 197.288005,121.824005 196.328,120.864 C195.367995,119.903995 194.120008,119.424 192.584,119.424 L161.48,119.424 C165.896022,119.424 169.591985,120.911985 172.568,123.888 C175.544015,126.864015 177.032,130.559978 177.032,134.976 L177.032,186.816 C177.032,188.352008 176.552005,189.599995 175.592,190.56 C174.631995,191.520005 173.384008,192 171.848,192 L161.48,192 C159.943992,192 158.696005,191.520005 157.736,190.56 C156.775995,189.599995 156.296,188.352008 156.296,186.816 L156.296,5.376 Z M249.608,192 C245.191978,192 241.496015,190.512015 238.52,187.536 C235.543985,184.559985 234.056,180.864022 234.056,176.448 L234.056,15.744 C234.056,11.3279779 235.543985,7.63201488 238.52,4.656 C241.496015,1.67998512 245.191978,0.192 249.608,0.192 L291.08,0.192 C292.616008,0.192 293.863995,0.6719952 294.824,1.632 C295.784005,2.5920048 296.264,3.83999232 296.264,5.376 L296.264,15.744 C296.264,17.2800077 295.784005,18.5279952 294.824,19.488 C293.863995,20.4480048 292.616008,20.928 291.08,20.928 L239.24,20.928 C243.656022,20.928 247.351985,22.4159851 250.328,25.392 C253.304015,28.3680149 254.792,32.0639779 254.792,36.48 L254.792,93.504 C254.792,95.0400077 255.271995,96.2879952 256.232,97.248 C257.192005,98.2080048 258.439992,98.688 259.976,98.688 L270.344,98.688 C271.880008,98.688 273.127995,99.1679952 274.088,100.128 C275.048005,101.088005 275.528,102.335992 275.528,103.872 L275.528,114.24 C275.528,115.776008 275.048005,117.023995 274.088,117.984 C273.127995,118.944005 271.880008,119.424 270.344,119.424 L239.24,119.424 C243.656022,119.424 247.351985,120.911985 250.328,123.888 C253.304015,126.864015 254.792,130.559978 254.792,134.976 L254.792,166.08 C254.792,167.616008 255.271995,168.863995 256.232,169.824 C257.192005,170.784005 258.439992,171.264 259.976,171.264 L291.08,171.264 C292.616008,171.264 293.863995,171.743995 294.824,172.704 C295.784005,173.664005 296.264,174.911992 296.264,176.448 L296.264,186.816 C296.264,188.352008 295.784005,189.599995 294.824,190.56 C293.863995,191.520005 292.616008,192 291.08,192 L249.608,192 Z M374.024,93.504 C374.024,97.9200221 372.536015,101.615985 369.56,104.592 C366.583985,107.568015 362.888022,109.056 358.472,109.056 C362.888022,109.056 366.583985,110.543985 369.56,113.52 C372.536015,116.496015 374.024,120.191978 374.024,124.608 L374.024,186.816 C374.024,188.352008 373.544005,189.599995 372.584,190.56 C371.623995,191.520005 370.376008,192 368.84,192 L358.472,192 C356.935992,192 355.688005,191.520005 354.728,190.56 C353.767995,189.599995 353.288,188.352008 353.288,186.816 L353.288,124.608 C353.288,123.071992 352.808005,121.824005 351.848,120.864 C350.887995,119.903995 349.640008,119.424 348.104,119.424 L317,119.424 C321.416022,119.424 325.111985,120.911985 328.088,123.888 C331.064015,126.864015 332.552,130.559978 332.552,134.976 L332.552,186.816 C332.552,188.352008 332.072005,189.599995 331.112,190.56 C330.151995,191.520005 328.904008,192 327.368,192 L317,192 C315.463992,192 314.216005,191.520005 313.256,190.56 C312.295995,189.599995 311.816,188.352008 311.816,186.816 L311.816,5.376 C311.816,3.83999232 312.295995,2.5920048 313.256,1.632 C314.216005,0.6719952 315.463992,0.192 317,0.192 L358.472,0.192 C362.888022,0.192 366.583985,1.67998512 369.56,4.656 C372.536015,7.63201488 374.024,11.3279779 374.024,15.744 L374.024,93.504 Z M353.288,26.112 C353.288,24.5759923 352.808005,23.3280048 351.848,22.368 C350.887995,21.4079952 349.640008,20.928 348.104,20.928 L317,20.928 C321.416022,20.928 325.111985,22.4159851 328.088,25.392 C331.064015,28.3680149 332.552,32.0639779 332.552,36.48 L332.552,93.504 C332.552,95.0400077 333.031995,96.2879952 333.992,97.248 C334.952005,98.2080048 336.199992,98.688 337.736,98.688 L348.104,98.688 C349.640008,98.688 350.887995,98.2080048 351.848,97.248 C352.808005,96.2879952 353.288,95.0400077 353.288,93.504 L353.288,26.112 Z M498.44,0.192 C502.856022,0.192 506.551985,1.67998512 509.528,4.656 C512.504015,7.63201488 513.992,11.3279779 513.992,15.744 L513.992,103.872 C513.992,108.288022 512.504015,111.983985 509.528,114.96 C506.551985,117.936015 502.856022,119.424 498.44,119.424 L456.968,119.424 C461.384022,119.424 465.079985,120.911985 468.056,123.888 C471.032015,126.864015 472.52,130.559978 472.52,134.976 L472.52,186.816 C472.52,188.352008 472.040005,189.599995 471.08,190.56 C470.119995,191.520005 468.872008,192 467.336,192 L456.968,192 C455.431992,192 454.184005,191.520005 453.224,190.56 C452.263995,189.599995 451.784,188.352008 451.784,186.816 L451.784,5.376 C451.784,3.83999232 452.263995,2.5920048 453.224,1.632 C454.184005,0.6719952 455.431992,0.192 456.968,0.192 L498.44,0.192 Z M493.256,26.112 C493.256,24.5759923 492.776005,23.3280048 491.816,22.368 C490.855995,21.4079952 489.608008,20.928 488.072,20.928 L456.968,20.928 C461.384022,20.928 465.079985,22.4159851 468.056,25.392 C471.032015,28.3680149 472.52,32.0639779 472.52,36.48 L472.52,93.504 C472.52,95.0400077 472.999995,96.2879952 473.96,97.248 C474.920005,98.2080048 476.167992,98.688 477.704,98.688 L488.072,98.688 C489.608008,98.688 490.855995,98.2080048 491.816,97.248 C492.776005,96.2879952 493.256,95.0400077 493.256,93.504 L493.256,26.112 Z M591.752,93.504 C591.752,97.9200221 590.264015,101.615985 587.288,104.592 C584.311985,107.568015 580.616022,109.056 576.2,109.056 C580.616022,109.056 584.311985,110.543985 587.288,113.52 C590.264015,116.496015 591.752,120.191978 591.752,124.608 L591.752,186.816 C591.752,188.352008 591.272005,189.599995 590.312,190.56 C589.351995,191.520005 588.104008,192 586.568,192 L576.2,192 C574.663992,192 573.416005,191.520005 572.456,190.56 C571.495995,189.599995 571.016,188.352008 571.016,186.816 L571.016,124.608 C571.016,123.071992 570.536005,121.824005 569.576,120.864 C568.615995,119.903995 567.368008,119.424 565.832,119.424 L534.728,119.424 C539.144022,119.424 542.839985,120.911985 545.816,123.888 C548.792015,126.864015 550.28,130.559978 550.28,134.976 L550.28,186.816 C550.28,188.352008 549.800005,189.599995 548.84,190.56 C547.879995,191.520005 546.632008,192 545.096,192 L534.728,192 C533.191992,192 531.944005,191.520005 530.984,190.56 C530.023995,189.599995 529.544,188.352008 529.544,186.816 L529.544,5.376 C529.544,3.83999232 530.023995,2.5920048 530.984,1.632 C531.944005,0.6719952 533.191992,0.192 534.728,0.192 L576.2,0.192 C580.616022,0.192 584.311985,1.67998512 587.288,4.656 C590.264015,7.63201488 591.752,11.3279779 591.752,15.744 L591.752,93.504 Z M571.016,26.112 C571.016,24.5759923 570.536005,23.3280048 569.576,22.368 C568.615995,21.4079952 567.368008,20.928 565.832,20.928 L534.728,20.928 C539.144022,20.928 542.839985,22.4159851 545.816,25.392 C548.792015,28.3680149 550.28,32.0639779 550.28,36.48 L550.28,93.504 C550.28,95.0400077 550.759995,96.2879952 551.72,97.248 C552.680005,98.2080048 553.927992,98.688 555.464,98.688 L565.832,98.688 C567.368008,98.688 568.615995,98.2080048 569.576,97.248 C570.536005,96.2879952 571.016,95.0400077 571.016,93.504 L571.016,26.112 Z M653.96,0.192 C658.376022,0.192 662.071985,1.67998512 665.048,4.656 C668.024015,7.63201488 669.512,11.3279779 669.512,15.744 L669.512,176.448 C669.512,180.864022 668.024015,184.559985 665.048,187.536 C662.071985,190.512015 658.376022,192 653.96,192 L622.856,192 C618.439978,192 614.744015,190.512015 611.768,187.536 C608.791985,184.559985 607.304,180.864022 607.304,176.448 L607.304,15.744 C607.304,11.3279779 608.791985,7.63201488 611.768,4.656 C614.744015,1.67998512 618.439978,0.192 622.856,0.192 L653.96,0.192 Z M648.776,26.112 C648.776,24.5759923 648.296005,23.3280048 647.336,22.368 C646.375995,21.4079952 645.128008,20.928 643.592,20.928 L612.488,20.928 C616.904022,20.928 620.599985,22.4159851 623.576,25.392 C626.552015,28.3680149 628.04,32.0639779 628.04,36.48 L628.04,166.08 C628.04,167.616008 628.519995,168.863995 629.48,169.824 C630.440005,170.784005 631.687992,171.264 633.224,171.264 L643.592,171.264 C645.128008,171.264 646.375995,170.784005 647.336,169.824 C648.296005,168.863995 648.776,167.616008 648.776,166.08 L648.776,26.112 Z M731.72,0.192 C736.136022,0.192 739.831985,1.67998512 742.808,4.656 C745.784015,7.63201488 747.272,11.3279779 747.272,15.744 L747.272,176.448 C747.272,180.864022 745.784015,184.559985 742.808,187.536 C739.831985,190.512015 736.136022,192 731.72,192 L690.248,192 C688.711992,192 687.464005,191.520005 686.504,190.56 C685.543995,189.599995 685.064,188.352008 685.064,186.816 L685.064,5.376 C685.064,3.83999232 685.543995,2.5920048 686.504,1.632 C687.464005,0.6719952 688.711992,0.192 690.248,0.192 L731.72,0.192 Z M726.536,26.112 C726.536,24.5759923 726.056005,23.3280048 725.096,22.368 C724.135995,21.4079952 722.888008,20.928 721.352,20.928 L690.248,20.928 C694.664022,20.928 698.359985,22.4159851 701.336,25.392 C704.312015,28.3680149 705.8,32.0639779 705.8,36.48 L705.8,166.08 C705.8,167.616008 706.279995,168.863995 707.24,169.824 C708.200005,170.784005 709.447992,171.264 710.984,171.264 L721.352,171.264 C722.888008,171.264 724.135995,170.784005 725.096,169.824 C726.056005,168.863995 726.536,167.616008 726.536,166.08 L726.536,26.112 Z M778.376,0.192 C779.912008,0.192 781.159995,0.6719952 782.12,1.632 C783.080005,2.5920048 783.56,3.83999232 783.56,5.376 L783.56,155.712 C783.56,160.128022 782.072015,163.823985 779.096,166.8 C776.119985,169.776015 772.424022,171.264 768.008,171.264 L799.112,171.264 C800.648008,171.264 801.895995,170.784005 802.856,169.824 C803.816005,168.863995 804.296,167.616008 804.296,166.08 L804.296,5.376 C804.296,3.83999232 804.775995,2.5920048 805.736,1.632 C806.696005,0.6719952 807.943992,0.192 809.48,0.192 L819.848,0.192 C821.384008,0.192 822.631995,0.6719952 823.592,1.632 C824.552005,2.5920048 825.032,3.83999232 825.032,5.376 L825.032,186.816 C825.032,188.352008 824.552005,189.599995 823.592,190.56 C822.631995,191.520005 821.384008,192 819.848,192 L778.376,192 C773.959978,192 770.264015,190.512015 767.288,187.536 C764.311985,184.559985 762.824,180.864022 762.824,176.448 L762.824,5.376 C762.824,3.83999232 763.303995,2.5920048 764.264,1.632 C765.224005,0.6719952 766.471992,0.192 768.008,0.192 L778.376,0.192 Z M856.136,192 C851.719978,192 848.024015,190.512015 845.048,187.536 C842.071985,184.559985 840.584,180.864022 840.584,176.448 L840.584,15.744 C840.584,11.3279779 842.071985,7.63201488 845.048,4.656 C848.024015,1.67998512 851.719978,0.192 856.136,0.192 L887.24,0.192 C891.656022,0.192 895.351985,1.67998512 898.328,4.656 C901.304015,7.63201488 902.792,11.3279779 902.792,15.744 L902.792,36.48 C902.792,38.0160077 902.312005,39.2639952 901.352,40.224 C900.391995,41.1840048 899.144008,41.664 897.608,41.664 L887.24,41.664 C885.703992,41.664 884.456005,41.1840048 883.496,40.224 C882.535995,39.2639952 882.056,38.0160077 882.056,36.48 L882.056,26.112 C882.056,24.5759923 881.576005,23.3280048 880.616,22.368 C879.655995,21.4079952 878.408008,20.928 876.872,20.928 L845.768,20.928 C850.184022,20.928 853.879985,22.4159851 856.856,25.392 C859.832015,28.3680149 861.32,32.0639779 861.32,36.48 L861.32,166.08 C861.32,167.616008 861.799995,168.863995 862.76,169.824 C863.720005,170.784005 864.967992,171.264 866.504,171.264 L876.872,171.264 C878.408008,171.264 879.655995,170.784005 880.616,169.824 C881.576005,168.863995 882.056,167.616008 882.056,166.08 L882.056,155.712 C882.056,154.175992 882.535995,152.928005 883.496,151.968 C884.456005,151.007995 885.703992,150.528 887.24,150.528 L897.608,150.528 C899.144008,150.528 900.391995,151.007995 901.352,151.968 C902.312005,152.928005 902.792,154.175992 902.792,155.712 L902.792,176.448 C902.792,180.864022 901.304015,184.559985 898.328,187.536 C895.351985,190.512015 891.656022,192 887.24,192 L856.136,192 Z M944.264,192 C942.727992,192 941.480005,191.520005 940.52,190.56 C939.559995,189.599995 939.08,188.352008 939.08,186.816 L939.08,26.112 C939.08,24.5759923 938.600005,23.3280048 937.64,22.368 C936.679995,21.4079952 935.432008,20.928 933.896,20.928 L923.528,20.928 C921.991992,20.928 920.744005,20.4480048 919.784,19.488 C918.823995,18.5279952 918.344,17.2800077 918.344,15.744 L918.344,5.376 C918.344,3.83999232 918.823995,2.5920048 919.784,1.632 C920.744005,0.6719952 921.991992,0.192 923.528,0.192 L975.368,0.192 C976.904008,0.192 978.151995,0.6719952 979.112,1.632 C980.072005,2.5920048 980.552,3.83999232 980.552,5.376 L980.552,15.744 C980.552,17.2800077 980.072005,18.5279952 979.112,19.488 C978.151995,20.4480048 976.904008,20.928 975.368,20.928 L944.264,20.928 C948.680022,20.928 952.375985,22.4159851 955.352,25.392 C958.328015,28.3680149 959.816,32.0639779 959.816,36.48 L959.816,186.816 C959.816,188.352008 959.336005,189.599995 958.376,190.56 C957.415995,191.520005 956.168008,192 954.632,192 L944.264,192 Z M1042.76,0.192 C1047.17602,0.192 1050.87199,1.67998512 1053.848,4.656 C1056.82401,7.63201488 1058.312,11.3279779 1058.312,15.744 L1058.312,36.48 C1058.312,38.0160077 1057.832,39.2639952 1056.872,40.224 C1055.912,41.1840048 1054.66401,41.664 1053.128,41.664 L1042.76,41.664 C1041.22399,41.664 1039.976,41.1840048 1039.016,40.224 C1038.056,39.2639952 1037.576,38.0160077 1037.576,36.48 L1037.576,26.112 C1037.576,24.5759923 1037.096,23.3280048 1036.136,22.368 C1035.176,21.4079952 1033.92801,20.928 1032.392,20.928 L1001.288,20.928 C1005.70402,20.928 1009.39999,22.4159851 1012.376,25.392 C1015.35201,28.3680149 1016.84,32.0639779 1016.84,36.48 L1016.84,72.768 C1016.84,74.3040077 1017.32,75.5519952 1018.28,76.512 C1019.24,77.4720048 1020.48799,77.952 1022.024,77.952 L1042.76,77.952 C1047.17602,77.952 1050.87199,79.4399851 1053.848,82.416 C1056.82401,85.3920149 1058.312,89.0879779 1058.312,93.504 L1058.312,176.448 C1058.312,180.864022 1056.82401,184.559985 1053.848,187.536 C1050.87199,190.512015 1047.17602,192 1042.76,192 L1011.656,192 C1007.23998,192 1003.54401,190.512015 1000.568,187.536 C997.591985,184.559985 996.104,180.864022 996.104,176.448 L996.104,155.712 C996.104,154.175992 996.583995,152.928005 997.544,151.968 C998.504005,151.007995 999.751992,150.528 1001.288,150.528 L1011.656,150.528 C1013.19201,150.528 1014.44,151.007995 1015.4,151.968 C1016.36,152.928005 1016.84,154.175992 1016.84,155.712 L1016.84,166.08 C1016.84,167.616008 1017.32,168.863995 1018.28,169.824 C1019.24,170.784005 1020.48799,171.264 1022.024,171.264 L1032.392,171.264 C1033.92801,171.264 1035.176,170.784005 1036.136,169.824 C1037.096,168.863995 1037.576,167.616008 1037.576,166.08 L1037.576,103.872 C1037.576,102.335992 1037.096,101.088005 1036.136,100.128 C1035.176,99.1679952 1033.92801,98.688 1032.392,98.688 L1011.656,98.688 C1007.23998,98.688 1003.54401,97.2000149 1000.568,94.224 C997.591985,91.2479851 996.104,87.5520221 996.104,83.136 L996.104,15.744 C996.104,11.3279779 997.591985,7.63201488 1000.568,4.656 C1003.54401,1.67998512 1007.23998,0.192 1011.656,0.192 L1042.76,0.192 Z" id="OTHER-PRODUCTS" fill="#E3E3E3"></path>
    </g>
</svg>