<?xml version="1.0" encoding="UTF-8"?>
<svg width="242px" height="85px" viewBox="0 0 242 85" version="1.1" xmlns="http://www.w3.org/2000/svg" xmlns:xlink="http://www.w3.org/1999/xlink">
    <!-- Generator: Sketch 50.2 (55047) - http://www.bohemiancoding.com/sketch -->
    <title>powerbank-Wifi@1x</title>
    <desc>Created with Sketch.</desc>
    <defs></defs>
    <g id="Page-1" stroke="none" stroke-width="1" fill="none" fill-rule="evenodd">
        <g id="Product-Detail-Farsi-1" transform="translate(-599.000000, -1401.000000)" fill="#030104" fill-rule="nonzero">
            <g id="Part-C" transform="translate(-33.000000, 1318.000000)">
                <g id="powerbank-Wifi" transform="translate(632.000000, 83.000000)">
                    <path d="M13.25,8.94736842 C5.74166667,8.94736842 0,14.7631579 0,22.3684211 L0,71.5789474 C0,79.1842105 5.74166667,85 13.25,85 L39.75,85 C47.2583333,85 53,79.1842105 53,71.5789474 L53,22.3684211 C53,14.7631579 47.2583333,8.94736842 39.75,8.94736842 C39.75,4.02631579 35.775,0 30.9166667,0 L22.0833333,0 C17.225,3.97342977e-15 13.25,4.02631579 13.25,8.94736842 Z M39.75,17.8947368 C42.4,17.8947368 44.1666667,19.6842105 44.1666667,22.3684211 L44.1666667,71.5789474 C44.1666667,74.2631579 42.4,76.0526316 39.75,76.0526316 L13.25,76.0526316 C10.6,76.0526316 8.83333333,74.2631579 8.83333333,71.5789474 L8.83333333,22.3684211 C8.83333333,19.6842105 10.6,17.8947368 13.25,17.8947368 C13.25,17.8947368 39.75,17.8947368 39.75,17.8947368 Z" id="Shape"></path>
                    <path d="M27.316964,65 C26.4062494,65 25.9508921,65 25.0401775,64.5539746 C22.763391,63.6619237 21.8526764,60.5397458 22.763391,58.3096187 L26.4062494,51.1732121 L21.8526764,51.1732121 C20.0312472,51.1732121 18.6651753,50.2811612 17.7544607,48.943085 C16.8437461,47.6050087 16.8437461,45.8209071 17.2991034,44.4828308 L24.1294629,29.7639921 C25.4955348,27.533865 28.2276787,26.1957887 30.5044652,27.533865 C32.7812517,28.8719412 34.1473236,31.5480937 32.7812517,33.7782208 L29.1383933,41.3606529 L34.1473236,41.3606529 C35.9687528,41.3606529 37.3348247,42.2527037 38.2455393,43.59078 C39.1562539,44.9288562 39.1562539,46.7129579 38.7008966,48.0510342 L31.8705371,62.3238475 C30.9598225,64.1079492 29.1383933,65 27.316964,65 Z" id="Shape"></path>
                    <g id="Group" transform="translate(148.000000, 9.000000)">
                        <ellipse id="Oval" cx="47.1090909" cy="59.35" rx="10.6909091" ry="10.65"></ellipse>
                        <path d="M72.9454545,33.6125 L72.5,33.16875 L72.0545455,32.725 C72.0545455,32.725 72.0545455,32.725 71.6090909,32.28125 C57.8,19.85625 36.4181818,20.3 23.0545455,33.6125 L21.2727273,35.3875 L19.0454545,37.60625 C16.3727273,40.26875 16.3727273,44.70625 19.0454545,47.36875 C21.7181818,50.03125 26.1727273,50.03125 28.8454545,47.36875 L32.4090909,43.81875 C40.8727273,35.3875 54.6818182,35.3875 63.1454545,43.81875 L65.8181818,46.48125 C68.4909091,49.14375 72.5,49.14375 75.1727273,46.48125 C76.5090909,45.15 76.9545455,43.375 76.9545455,41.6 C76.9545455,39.825 76.0636364,38.05 75.1727273,36.71875 L72.9454545,33.6125 Z" id="Shape"></path>
                        <path d="M91.2090909,20.3 L88.9818182,18.08125 L87.2,16.30625 C86.7545455,15.8625 86.7545455,15.8625 86.3090909,15.41875 C63.5909091,-4.55 28.8454545,-4.10625 7.01818182,17.19375 C7.01818182,17.19375 6.57272727,17.19375 6.57272727,17.6375 L2.56363636,21.63125 C0.336363636,23.85 0.336363636,27.84375 2.56363636,30.50625 C4.79090909,32.725 8.8,32.725 11.4727273,30.50625 L15.4818182,26.5125 C33.3,9.20625 61.8090909,9.20625 79.6272727,26.06875 L82.7454545,29.175 C84.9727273,31.39375 88.9818182,31.39375 91.6545455,29.175 C93.8818182,26.5125 93.8818182,22.51875 91.2090909,20.3 Z" id="Shape"></path>
                    </g>
                    <path d="M115.333333,51 L88.6666667,51 C85.1111111,51 82,47.9666667 82,44.5 C82,41.0333333 85.1111111,38 88.6666667,38 L115.333333,38 C118.888889,38 122,41.0333333 122,44.5 C122,47.9666667 118.888889,51 115.333333,51 Z" id="Shape"></path>
                    <path d="M102.5,64 C99.0333333,64 96,60.8888889 96,57.3333333 L96,30.6666667 C96,27.1111111 99.0333333,24 102.5,24 C105.966667,24 109,27.1111111 109,30.6666667 L109,57.3333333 C109,60.8888889 105.966667,64 102.5,64 Z" id="Shape"></path>
                </g>
            </g>
        </g>
    </g>
</svg>