<?xml version="1.0" encoding="UTF-8"?>
<svg width="42px" height="50px" viewBox="0 0 42 50" version="1.1" xmlns="http://www.w3.org/2000/svg" xmlns:xlink="http://www.w3.org/1999/xlink">
    <!-- Generator: Sketch 49.1 (51147) - http://www.bohemiancoding.com/sketch -->
    <title>1-selected copy</title>
    <desc>Created with Sketch.</desc>
    <defs></defs>
    <g id="Page-7" stroke="none" stroke-width="1" fill="none" fill-rule="evenodd">
        <g id="1-selected-copy" transform="translate(0.000000, 0.141646)" fill-rule="nonzero">
            <g id="XMLID_2160_" transform="translate(10.750038, 12.169855)" fill="#FFCC00">
                <path d="M22.1795599,34.6029531 L24.0658874,32.7166257 L25.9522149,34.6029531 L27.8385423,36.4892806 L29.7248698,34.6029531 L29.7248698,3.27571919 C29.7248698,1.47052409 28.2644872,1.42108547e-14 26.4491506,1.42108547e-14 L0.0709908183,1.42108547e-14 C1.87618591,1.42108547e-14 3.34671001,1.46038255 3.34671001,3.27571919 L3.34671001,34.5928116 L5.23303746,36.4791391 L7.11936492,34.5928116 L9.00569238,32.7064841 L10.8920198,34.5928116 L12.7783473,36.4791391 L14.6646748,34.5928116 L16.5510022,32.7064841 L18.4373297,34.5928116 L20.3236571,36.4791391 L22.1795599,34.6029531 Z" id="XMLID_2161_"></path>
            </g>
            <path d="M18.7821422,20.1816755 L35.9416372,20.1816755 C36.4487144,20.1816755 36.8645178,19.7658721 36.8645178,19.2587949 C36.8645178,18.7517176 36.4487144,18.3359142 35.9416372,18.3359142 L18.7821422,18.3359142 C18.2750649,18.3359142 17.8592616,18.7517176 17.8592616,19.2587949 C17.8592616,19.7658721 18.2750649,20.1816755 18.7821422,20.1816755 Z" id="Shape" fill="#242424"></path>
            <path d="M18.7821422,25.080042 L31.2461016,25.080042 C31.7531789,25.080042 32.1689822,24.6642386 32.1689822,24.1571613 C32.1689822,23.650084 31.7531789,23.2342807 31.2461016,23.2342807 L18.7821422,23.2342807 C18.2750649,23.2342807 17.8592616,23.650084 17.8592616,24.1571613 C17.8592616,24.6743801 18.2750649,25.080042 18.7821422,25.080042 Z" id="Shape" fill="#242424"></path>
            <path d="M18.7821422,29.5727466 L35.9416372,29.5727466 C36.4487144,29.5727466 36.8645178,29.1569432 36.8645178,28.649866 C36.8645178,28.1427887 36.4487144,27.7269853 35.9416372,27.7269853 L18.7821422,27.7269853 C18.2750649,27.7269853 17.8592616,28.1427887 17.8592616,28.649866 C17.8592616,29.1670848 18.2750649,29.5727466 18.7821422,29.5727466 Z" id="Shape" fill="#242424"></path>
            <path d="M20.414931,32.8484658 L18.7821422,32.8484658 C18.2750649,32.8484658 17.8592616,33.2642691 17.8592616,33.7713464 C17.8592616,34.2784237 18.2750649,34.6942271 18.7821422,34.6942271 L20.414931,34.6942271 C20.9220083,34.6942271 21.3378117,34.2784237 21.3378117,33.7713464 C21.3378117,33.2642691 20.9220083,32.8484658 20.414931,32.8484658 Z" id="Shape" fill="#242424"></path>
            <path d="M20.414931,37.3411704 L18.7821422,37.3411704 C18.2750649,37.3411704 17.8592616,37.7569738 17.8592616,38.2640511 C17.8592616,38.7711283 18.2750649,39.1869317 18.7821422,39.1869317 L20.414931,39.1869317 C20.9220083,39.1869317 21.3378117,38.7711283 21.3378117,38.2640511 C21.3276701,37.7468322 20.9220083,37.3411704 20.414931,37.3411704 Z" id="Shape" fill="#242424"></path>
            <path d="M35.9416372,32.8484658 L24.0861705,32.8484658 C23.5790932,32.8484658 23.1632899,33.2642691 23.1632899,33.7713464 C23.1632899,34.2784237 23.5790932,34.6942271 24.0861705,34.6942271 L35.9416372,34.6942271 C36.4487144,34.6942271 36.8645178,34.2784237 36.8645178,33.7713464 C36.8645178,33.2642691 36.4487144,32.8484658 35.9416372,32.8484658 Z" id="Shape" fill="#242424"></path>
            <path d="M32.1588407,38.2539095 C32.1588407,37.7468322 31.7430373,37.3310289 31.2359601,37.3310289 L24.0861705,37.3310289 C23.5790932,37.3310289 23.1632899,37.7468322 23.1632899,38.2539095 C23.1632899,38.7609868 23.5790932,39.1767902 24.0861705,39.1767902 L31.2359601,39.1767902 C31.7430373,39.1767902 32.1588407,38.7609868 32.1588407,38.2539095 Z" id="Shape" fill="#242424"></path>
            <path d="M30.3942118,49.3081941 C30.7491659,49.6631482 31.3373755,49.6631482 31.6923296,49.3081941 L34.8159256,46.1845981 L37.9395216,49.3081941 C38.1220694,49.4907419 38.355325,49.5820158 38.5885805,49.5820158 C38.8218361,49.5820158 39.0550916,49.4907419 39.2376394,49.3081941 L41.1239669,47.4218666 C41.2963732,47.2494604 41.3977886,47.0162048 41.3977886,46.7728077 L41.3977886,15.4455738 C41.3977886,13.1333014 39.5216027,11.2571155 37.2093303,11.2571155 L30.1609562,11.2571155 L30.1609562,0.922880638 C30.1609562,0.415803364 29.7451529,0 29.2380756,0 L0.993871456,0 C0.486794183,0 0.0709908183,0.415803364 0.0709908183,0.922880638 L0.0709908183,32.2399731 C0.0709908183,34.5522454 1.94717673,36.4284313 4.2594491,36.4284313 L9.57361893,36.4284313 C10.0806962,36.4284313 10.4964996,36.012628 10.4964996,35.5055507 C10.4964996,34.9984734 10.0806962,34.5826701 9.57361893,34.5826701 L7.72785765,34.5826701 C8.1842272,33.9133281 8.45804892,33.1020044 8.45804892,32.2298315 L8.45804892,15.4455738 C8.45804892,14.1474559 9.51276965,13.0927352 10.8108875,13.0927352 C12.1090053,13.0927352 13.163726,14.1474559 13.163726,15.4455738 L13.163726,46.7626662 C13.163726,46.8235154 13.1738676,46.8843647 13.1840091,46.945214 C13.1941507,46.9857802 13.2042922,47.0162048 13.2144337,47.056771 C13.2245753,47.0770541 13.2245753,47.0973372 13.2347168,47.1176203 C13.2549999,47.1581864 13.275283,47.1987526 13.2955661,47.2291773 C13.3057077,47.2393188 13.3057077,47.2596019 13.3158492,47.2697434 C13.3462738,47.3204512 13.38684,47.3711589 13.4274062,47.4117251 L15.3137337,49.2980525 C15.6686878,49.6530066 16.2568974,49.6530066 16.6118515,49.2980525 L19.7354475,46.1744565 L22.8590435,49.2980525 C23.2139976,49.6530066 23.8022072,49.6530066 24.1571613,49.2980525 L27.2807573,46.1744565 L30.3942118,49.3081941 Z M6.62242919,15.4455738 L6.62242919,32.2399731 C6.62242919,33.5380909 5.56770846,34.5928116 4.26959064,34.5928116 C2.97147282,34.5928116 1.91675209,33.5380909 1.91675209,32.2399731 L1.91675209,1.83561973 L28.3253365,1.83561973 L28.3253365,11.2571155 L10.8108875,11.2571155 C8.49861511,11.2571155 6.62242919,13.1333014 6.62242919,15.4455738 Z M23.5081024,47.3508758 L20.3845064,44.2272798 C20.2019586,44.044732 19.968703,43.9534581 19.7354475,43.9534581 C19.5021919,43.9534581 19.2689364,44.044732 19.0863886,44.2272798 L15.9627926,47.3508758 L14.9993458,46.387429 L14.9993458,15.4455738 C14.9993458,15.3137337 14.9892042,15.1818936 14.9790627,15.060195 C14.9790627,15.0196288 14.9689211,14.9892042 14.9689211,14.948638 C14.9587796,14.8573641 14.948638,14.7660902 14.9283549,14.6748163 C14.9182134,14.6342501 14.9182134,14.6038255 14.9080718,14.5632593 C14.8877888,14.4517023 14.8573641,14.3300038 14.8167979,14.2184468 C14.8167979,14.2083052 14.8167979,14.2083052 14.8066564,14.1981637 C14.7660902,14.0764651 14.725524,13.9649081 14.6748163,13.8533511 C14.6646748,13.8229265 14.6443917,13.7925018 14.6342501,13.7519357 C14.5936839,13.6708033 14.5632593,13.5896709 14.5125516,13.5085386 C14.4922685,13.4781139 14.4821269,13.4476893 14.4618438,13.4071231 C14.4111361,13.3158492 14.3502868,13.2144337 14.2894376,13.1231598 C14.279296,13.1130183 14.279296,13.1028767 14.2691545,13.0927352 C14.2691545,13.0927352 14.2691545,13.0927352 14.2691545,13.0825937 L37.1789057,13.0825937 C38.4770235,13.0825937 39.5317442,14.1373144 39.5317442,15.4354322 L39.5317442,46.387429 L38.5682974,47.3508758 L35.4447014,44.2272798 C35.0897473,43.8723257 34.5015377,43.8723257 34.1465836,44.2272798 L31.0229876,47.3508758 L27.9298162,44.2374213 C27.5748621,43.8824673 26.9866525,43.8824673 26.6316984,44.2374213 L23.5081024,47.3508758 Z" id="Shape" fill="#242424"></path>
        </g>
    </g>
</svg>