<?xml version="1.0" encoding="UTF-8"?>
<svg width="21px" height="24px" viewBox="0 0 21 24" version="1.1" xmlns="http://www.w3.org/2000/svg" xmlns:xlink="http://www.w3.org/1999/xlink">
    <!-- Generator: Sketch 49.1 (51147) - http://www.bohemiancoding.com/sketch -->
    <title>shopping-cart</title>
    <desc>Created with Sketch.</desc>
    <defs></defs>
    <g id="Website" stroke="none" stroke-width="1" fill="none" fill-rule="evenodd">
        <g id="home" transform="translate(-935.000000, -72.000000)" fill="#242424" fill-rule="nonzero">
            <g id="Menu-Copy-2" transform="translate(926.000000, 64.000000)">
                <path d="M15.8874167,13.9902003 C16.4726526,15.829694 17.1598157,18.3097974 17.9646964,21.464123 C17.9680022,21.4770785 17.9710698,21.4900326 17.9739016,21.5029817 C20.0561513,20.9372068 22.8975478,20.5138586 26.5189628,20.2210516 L26.5189628,15.3686924 L15.8874167,13.9902003 Z M12.7875109,13.5464725 C12.2729685,13.3323734 11.9392519,12.7689761 12.0092542,12.1590262 C12.0227054,12.0418219 12.0502373,11.930095 12.089829,11.8255264 C12.0576929,11.765634 12.0267877,11.7120392 11.9971277,11.6647726 C11.5199008,10.9042563 10.9833717,10.5625078 10.2986575,10.5113167 C9.51850309,10.4529902 8.93935125,9.84453999 9.00508569,9.15230516 C9.07082013,8.46007032 9.75654856,7.94618607 10.536703,8.00451256 C12.2185602,8.13025282 13.5607008,8.98514508 14.4742422,10.440979 C14.5976318,10.6376146 14.7290916,10.8908048 14.869069,11.201502 L27.9096948,12.8923567 C28.5321065,12.9730589 29,13.5347398 29,14.2012093 L29,21.4493575 C29,22.1438385 28.4932043,22.7192711 27.8412458,22.7650454 C22.7021763,23.1258616 19.1094814,23.7293256 17.1228181,24.5414662 C16.6759594,24.7241403 16.3266809,24.9114937 16.0775975,25.0952247 C15.9386121,25.1977442 15.84389,25.2887167 15.7867851,25.362462 C16.6584493,25.3616337 17.6457042,25.3595376 18.8909728,25.3561356 C19.2239155,25.355226 19.5510208,25.3542963 20.0397064,25.3528817 C25.2828469,25.3377042 26.8333479,25.3377042 27.4380279,25.3639686 C28.1225761,25.3937022 28.6548348,26.0076509 28.6268609,26.7352615 C28.5988871,27.4628721 28.0212739,28.0286132 27.3367258,27.9988797 C26.7911516,27.9751825 25.1590454,27.9751825 20.0464633,27.989982 C19.557661,27.991397 19.2304477,27.992327 18.8973496,27.993237 C17.2413803,27.997761 16.0407348,27.9999792 14.9607675,27.9999792 C14.5742396,27.9999792 14.2098002,27.808475 13.9751046,27.4820368 C13.2077013,26.4146555 13.0133327,25.2482725 13.5575695,24.1797252 C13.9127307,23.4824067 14.5371376,22.9251339 15.416708,22.4586455 C15.3159817,22.329799 15.2409069,22.1819716 15.1994857,22.019642 C14.2160367,18.165508 13.4008606,15.3173105 12.7875109,13.5464725 Z M16.5,32 C15.6715729,32 15,31.3284271 15,30.5 C15,29.6715729 15.6715729,29 16.5,29 C17.3284271,29 18,29.6715729 18,30.5 C18,31.3284271 17.3284271,32 16.5,32 Z M28,32 C26.8954305,32 26,31.3284271 26,30.5 C26,29.6715729 26.8954305,29 28,29 C29.1045695,29 30,29.6715729 30,30.5 C30,31.3284271 29.1045695,32 28,32 Z" id="shopping-cart"></path>
            </g>
        </g>
    </g>
</svg>