<?xml version="1.0" encoding="UTF-8"?>
<svg width="400px" height="300px" viewBox="0 0 400 300" version="1.1" xmlns="http://www.w3.org/2000/svg" xmlns:xlink="http://www.w3.org/1999/xlink">
    <!-- Generator: Sketch 50.2 (55047) - http://www.bohemiancoding.com/sketch -->
    <title>Slice 2@2x</title>
    <desc>Created with Sketch.</desc>
    <defs></defs>
    <g id="Page-1" stroke="none" stroke-width="1" fill="none" fill-rule="evenodd">
        <g id="Asset-1" transform="translate(62.000000, 38.000000)">
            <path d="M40.5174165,53.3557592 L203.880708,34.1296673 C208.750142,33.5485165 213.649904,34.9360944 217.49597,37.985413 C221.342036,41.0347316 223.817363,45.4944264 224.37431,50.3778342 L239.869209,182.971571 C240.452238,187.852361 239.070765,192.764819 236.030477,196.621931 C232.990189,200.479044 228.541753,202.962799 223.669504,203.5236 L33.6428429,225.868906 C28.7733529,226.453288 23.8722691,225.068608 20.0240869,222.021265 C16.1759046,218.973922 13.6978998,214.515163 13.1383969,209.631607 L0.213330999,98.4811031 C-0.675817488,92.234711 1.24206672,85.9144877 5.45058505,81.2221806 C10.4384461,75.4293558 16.2937611,68.5714339 21.4659561,62.8546875 C26.4646603,57.4096496 32.0814255,54.3013047 40.5174165,53.3557592 Z" id="Shape" fill="#181818"></path>
            <path d="M273.710884,118.62471 C268.645401,96.5905585 263.166852,77.0479781 259.286213,54.0713633 C256.840433,39.5877546 256.329536,13.9895742 249.024805,4.54327142 C244.741971,-1.00318157 234.176199,0.101775865 224.349596,0.0692771174 L210.881497,1.03340664 L182.999598,4.22911686 L168.868421,4.22911686 C145.62807,7.73898163 121.126784,6.86151544 98.6690825,10.2955498 C86.4619197,12.1696443 73.9938736,9.21225821 63.7324651,13.1662725 C58.9496053,14.9970353 34.0787339,42.122657 32.6656162,47.0516337 C30.730732,53.8113733 33.5243569,70.234074 34.5896303,76.7663223 L38.7528924,119.263852 C42.0900242,138.253953 41.1769328,168.96527 53.177563,178.379074 C61.004061,184.521338 87.0815175,181.444789 99.3321608,179.332371 L225.621402,164.957091 C239.752579,162.64968 273.450001,165.17375 277.548042,154.124175 C279.406835,149.054371 275.0153,124.290325 273.710884,118.62471 Z M271.471636,153.452535 C267.645348,159.150648 232.339146,158.793162 222.425582,160.483097 L99.343031,174.565888 C86.5923613,176.808301 62.5150099,180.123174 55.4276812,172.00932 C47.0902868,162.476354 47.4381311,133.010822 44.5575451,116.761448 L41.0030106,78.997903 C40.0029581,72.9748017 37.0680213,53.7355429 39.0789965,48.6657382 C41.9704527,41.3210212 50.2969769,35.666239 55.3842006,30.130619 L63.721595,20.2293338 C73.3307953,15.4520178 86.6793224,17.8677581 99.2995504,15.7553395 C122.355109,11.9204872 148.084721,12.8629509 172.422956,9.01726572 L185.880184,9.01726572 L213.762083,5.82155551 L227.219312,4.8682589 C235.04581,4.77076265 240.64393,4.93325639 244.850673,8.06396911 L252.861963,48.0049304 L255.122951,67.1683587 C258.383992,83.3310694 262.819008,99.3421192 267.308374,115.743154 C269.004115,121.972081 274.721807,148.610221 271.460766,153.452535 L271.471636,153.452535 Z M248.383467,78.3587609 L242.296191,46.7266463 C240.883073,39.1977697 241.502671,29.9464594 237.806824,24.6816622 C231.349964,15.4736836 219.686308,14.1629008 203.826779,14.141235 C192.956643,18.4744014 178.912427,14.6395491 165.357367,16.6978032 C141.366977,20.3376629 85.2553346,17.5319377 71.4393916,28.841502 C61.8736719,36.6737002 64.0259588,56.2379465 66.6347915,70.0607473 L71.7654957,106.166856 C75.0265365,125.330285 73.0590419,151.004296 86.1901663,159.854788 C93.7123005,164.924593 117.833132,162.487186 128.181502,160.808085 C158.846156,155.857442 190.760875,155.489123 220.175464,149.303528 C238.024227,145.555339 250.611845,147.310271 256.720861,131.407551 C260.308006,122.047911 251.709729,102.808652 249.992247,94.0231575 L248.383467,78.3587609 Z M238.132929,61.1019258 C242.122268,72.6281484 240.720021,87.9133928 244.546309,100.100423 L244.546309,101.378707 C235.295823,103.328632 223.186491,102.61366 213.131616,105.21356 L211.207601,105.21356 C212.668843,91.0200054 210.00097,76.7071945 203.522415,63.9834814 C213.175096,61.9902249 226.730156,64.7526185 235.893681,61.1127587 L238.132929,61.1019258 Z M171.14028,22.7534032 C181.216896,20.1210046 193.402319,23.7608644 201.913635,20.196835 C237.980747,19.6118576 229.915106,28.0073674 237.176357,54.3855179 C231.741289,58.3070335 207.93569,56.1946148 199.989621,57.8953826 L191.293512,48.947394 C187.369393,45.9033447 175.314412,40.2810613 173.346917,36.4895407 L171.14028,23.0783907 L171.14028,22.7534032 Z M71.7654957,54.0713633 C66.5587005,23.2083857 98.1690563,29.4373124 120.81155,26.003278 L134.268778,24.7249939 L136.508026,24.7249939 L135.551454,36.5437052 C131.496894,47.4416187 120.333264,52.9230742 116.322184,65.9442392 L74.3308478,70.4182335 L71.7654957,54.0713633 Z M75.2548094,76.1271802 C78.7115127,77.0263123 109.213115,74.2964174 112.441545,72.93147 L113.082883,72.93147 L112.126311,85.0751689 C110.310998,96.0922444 114.702533,105.776871 117.898353,112.558277 L117.898353,112.872431 L79.1463181,116.999772 L75.2548094,76.1271802 Z M186.130197,147.386102 L166.900927,149.94267 L166.585693,149.94267 C161.454989,132.7075 159.335312,135.339899 143.508394,129.490124 C140.714769,128.406833 136.562377,123.878674 132.931751,126.933556 C131.692556,127.626863 131.290361,128.493496 131.007737,130.129266 C133.986155,134.159111 149.215215,140.962182 155.367712,141.633823 C156.911272,144.168726 157.54174,147.743588 158.574403,150.895966 C144.562797,152.445073 98.2125368,160.580593 88.3750637,153.127547 C82.1029951,148.371897 82.1682159,132.794164 79.6789548,124.366155 L79.9941887,123.727013 L124.561747,118.613877 C125.947152,117.780007 126.887576,116.374201 127.127099,114.779024 C127.561904,112.146626 123.746486,107.065988 122.637733,104.238597 C119.887588,97.1972018 118.507081,83.1360769 121.039823,74.1989212 C125.387877,58.7620159 138.932067,51.276471 143.16055,38.7319543 C144.464966,34.8537703 143.856238,28.581512 143.801888,23.7175327 L162.38982,23.0783907 C163.563795,29.3398161 163.618146,36.6845331 166.553082,41.2885224 C170.238059,47.0624667 180.064662,50.1931794 185.467119,54.3855179 C194.239319,61.1885891 200.293985,72.4006571 203.09848,85.0643359 C206.131248,98.7788076 202.663674,112.514945 196.6851,120.217148 L185.467119,130.757576 C183.717027,133.422473 184.162703,144.547878 186.108457,147.00695 L186.130197,147.386102 Z M191.565266,147.071947 L191.250032,147.071947 C192.141383,143.258761 191.989201,139.358911 191.89137,134.928248 C197.978646,127.106883 205.50078,122.947043 208.881392,111.919135 C220.045022,109.492561 235.632797,111.52915 245.742024,107.44514 C247.611687,109.611724 247.633427,114.085718 248.62261,117.032271 C259.199252,148.187737 213.185966,141.861314 191.652227,147.061114 L191.565266,147.071947 Z" id="Shape" fill="#FFCC00"></path>
        </g>
    </g>
</svg>