<?xml version="1.0" encoding="UTF-8"?>
<svg width="83px" height="51px" viewBox="0 0 83 51" version="1.1" xmlns="http://www.w3.org/2000/svg" xmlns:xlink="http://www.w3.org/1999/xlink">
    <!-- Generator: Sketch 49.1 (51147) - http://www.bohemiancoding.com/sketch -->
    <title>3-selected copy</title>
    <desc>Created with Sketch.</desc>
    <defs></defs>
    <g id="Page-7" stroke="none" stroke-width="1" fill="none" fill-rule="evenodd">
        <g id="3-selected-copy" transform="translate(-0.123193, 1.225814)">
            <path d="M26.4540855,35.4717212 C22.5325148,35.4717212 19.3544574,38.6485867 19.3544574,42.5705547 C19.3544574,46.4927213 22.5325148,49.6695868 26.4540855,49.6695868 C30.3770467,49.6695868 33.5543095,46.4927213 33.5543095,42.5705547 C33.5543095,38.6485867 30.3770467,35.4717212 26.4540855,35.4717212 Z" id="Shape" fill="#242424" fill-rule="nonzero"></path>
            <path d="M63.891558,35.4717212 C59.9699874,35.4717212 56.7921286,38.6485867 56.7921286,42.5705547 C56.7921286,46.4927213 59.9699874,49.6695868 63.891558,49.6695868 C67.8147178,49.6695868 70.991782,46.4927213 70.991782,42.5705547 C70.991782,38.6485867 67.8147178,35.4717212 63.891558,35.4717212 Z" id="Shape" fill="#242424" fill-rule="nonzero"></path>
            <path d="M26.4540855,45.6568399 C24.7493484,45.6568399 23.3679989,44.2752918 23.3679989,42.5705547 C23.3679989,40.865023 24.7493484,39.4842694 26.4540855,39.4842694 C28.1590212,39.4842694 29.541364,40.865023 29.541364,42.5705547 C29.541364,44.2752918 28.1590212,45.6568399 26.4540855,45.6568399 Z" id="Path" fill="#FFCC00"></path>
            <path d="M63.891558,45.6568399 C62.1868209,45.6568399 60.80567,44.2752918 60.80567,42.5705547 C60.80567,40.865023 62.1868209,39.4842694 63.891558,39.4842694 C65.5966924,39.4842694 66.9790351,40.865023 66.9790351,42.5705547 C66.9790351,44.2752918 65.5966924,45.6568399 63.891558,45.6568399 Z" id="Path" fill="#FFCC00"></path>
            <path d="M33.7745749,13.4604882 C33.7745749,14.313772 32.9605441,15.0118358 31.9659486,15.0118358 L7.00769979,15.0118358 C6.01290564,15.0118358 5.1992721,14.313772 5.1992721,13.4604882 L5.1992721,12.5296796 C5.1992721,11.6765662 6.01310428,10.9785024 7.00769979,10.9785024 L31.9659486,10.9785024 C32.9607427,10.9785024 33.7745749,11.6765662 33.7745749,12.5296796 L33.7745749,13.4604882 Z" id="Shape" fill="#FFCC00" fill-rule="nonzero"></path>
            <path d="M77.8033807,24.2473127 C75.2001903,23.5705428 73.7105814,23.1450537 72.6883748,21.1709594 L69.2703591,14.2505055 C68.2477552,12.2764113 65.591925,10.6610626 63.3693308,10.6610626 L58.6943148,10.6610626 C58.6943148,10.6610626 58.0654174,10.6741729 58.0654174,10.0413027 C58.0654174,8.59023017 58.0654174,4.23721123 58.0654174,4.23721123 C58.0654174,1.98720459 56.7921286,0.146199778 54.0836585,0.146199778 L15.982725,0.146199778 C12.105054,0.146199778 10.2640492,1.98740323 10.2640492,4.23721123 L10.2640492,7.87452664 C10.2640492,7.87452664 10.2640492,8.95632554 11.3110859,8.95632554 C16.6414186,8.95632554 32.6326153,8.95632554 32.6326153,8.95632554 C34.6271696,8.95632554 36.2498679,10.5788252 36.2498679,12.5733796 L36.2498679,13.6585554 C36.2498679,15.6531097 34.6271696,17.2756094 32.6326153,17.2756094 L11.3110859,17.2756094 C11.3110859,17.2756094 10.2640492,17.1886046 10.2640492,18.3188719 C10.2640492,18.8802314 10.2640492,19.2570534 10.2640492,19.5697143 C10.2640492,20.5645085 11.6275211,20.5639125 11.6275211,20.5639125 L25.9801281,20.5639125 C27.9746824,20.5639125 29.5973807,22.1866109 29.5973807,24.1809666 L29.5973807,25.2661424 C29.5973807,27.2606967 27.9746824,28.8831964 25.9801281,28.8831964 L11.8539718,28.8831964 C11.8539718,28.8831964 10.2640492,28.8537975 10.2640492,30.1197366 C10.2640492,32.3171034 10.2640492,38.9088064 10.2640492,38.9088064 C10.2640492,41.1586144 12.105054,42.9998179 14.3550607,42.9998179 C14.3550607,42.9998179 16.0498657,42.9998179 16.6148007,42.9998179 C17.1272945,42.9998179 17.2027781,42.7143708 17.2027781,42.570952 C17.2027781,37.4700497 21.3531832,33.3206377 26.4542841,33.3206377 C31.5557824,33.3206377 35.7059889,37.4704469 35.7059889,42.570952 C35.7059889,42.7149667 35.6650688,42.9998179 36.0569875,42.9998179 C40.5363421,42.9998179 54.2934234,42.9998179 54.2934234,42.9998179 C54.65495,42.9998179 54.6402506,42.6951026 54.6402506,42.570952 C54.6402506,37.4700497 58.7904571,33.3206377 63.8917567,33.3206377 C68.9930563,33.3206377 73.1432627,37.4704469 73.1432627,42.570952 C73.1432627,42.7149667 73.1396872,42.9998179 73.3659393,42.9998179 C75.4198873,42.9998179 77.963684,42.9998179 77.963684,42.9998179 C80.18747,42.9998179 82.0064256,41.1808622 82.0064256,38.9572748 L82.0064256,31.2770191 C82.0066243,24.8090694 79.9643961,24.8090694 77.8033807,24.2473127 Z M70.1106105,23.8875738 C70.1106105,23.8875738 61.525545,23.8875738 58.6037345,23.8875738 C58.1283866,23.8875738 58.0652188,23.4247403 58.0652188,23.4247403 L58.0652188,13.8393187 C58.0652188,13.8393187 58.0384022,13.4712369 58.648826,13.4712369 C59.4698093,13.4712369 61.9321632,13.4712369 61.9321632,13.4712369 C63.9104289,13.4712369 66.2734623,14.9086032 67.1830394,16.6651856 L70.2246305,22.8230567 C70.3527539,23.0709606 70.4896176,23.2910549 70.6362146,23.4883054 C70.7442753,23.632916 70.5631148,23.8875738 70.1106105,23.8875738 Z" id="Shape" stroke="#242424" stroke-width="2" fill-rule="nonzero"></path>
            <path d="M27.1218891,25.30339 C27.1218891,26.1566738 26.3080569,26.8547376 25.3134614,26.8547376 L2.34460224,26.8547376 C1.3498081,26.8547376 0.536174554,26.1566738 0.536174554,25.30339 L0.536174554,24.3725814 C0.536174554,23.519468 1.35000674,22.8214042 2.34460224,22.8214042 L25.3134614,22.8214042 C26.3082555,22.8214042 27.1218891,23.519468 27.1218891,24.3725814 L27.1218891,25.30339 Z" id="Shape" fill="#FFCC00" fill-rule="nonzero"></path>
        </g>
    </g>
</svg>