<?xml version="1.0" encoding="UTF-8"?>
<svg width="413px" height="554px" viewBox="0 0 413 554" version="1.1" xmlns="http://www.w3.org/2000/svg" xmlns:xlink="http://www.w3.org/1999/xlink">
    <!-- Generator: Sketch 49.1 (51147) - http://www.bohemiancoding.com/sketch -->
    <title>WORLD WIDE MODEM Copy</title>
    <desc>Created with Sketch.</desc>
    <defs></defs>
    <g id="Website" stroke="none" stroke-width="1" fill="none" fill-rule="evenodd">
        <g id="Product-Detail-" transform="translate(-788.000000, -181.000000)" fill="#E3E3E3">
            <g id="Part-A">
                <path d="M863.6,185.702703 C863.6,184.309302 864.035181,183.177182 864.905556,182.306306 C865.77593,181.435431 866.9074,181 868.3,181 L877.7,181 C879.0926,181 880.22407,181.435431 881.094444,182.306306 C881.964819,183.177182 882.4,184.309302 882.4,185.702703 L882.4,322.081081 C882.4,326.087107 881.050939,329.439926 878.352778,332.13964 C875.654616,334.839353 872.303724,336.189189 868.3,336.189189 L896.5,336.189189 C897.8926,336.189189 899.02407,335.753758 899.894444,334.882883 C900.764819,334.012008 901.2,332.879887 901.2,331.486486 L901.2,185.702703 C901.2,184.309302 901.635181,183.177182 902.505556,182.306306 C903.37593,181.435431 904.5074,181 905.9,181 L915.3,181 C916.6926,181 917.82407,181.435431 918.694444,182.306306 C919.564819,183.177182 920,184.309302 920,185.702703 L920,340.891892 C920,344.897918 918.650939,348.250737 915.952778,350.95045 C913.254616,353.650164 909.903724,355 905.9,355 L887.1,355 C883.096276,355 879.745384,353.650164 877.047222,350.95045 C874.349061,348.250737 873,344.897918 873,340.891892 C873,344.897918 871.650939,348.250737 868.952778,350.95045 C866.254616,353.650164 862.903724,355 858.9,355 L840.1,355 C836.096276,355 832.745384,353.650164 830.047222,350.95045 C827.349061,348.250737 826,344.897918 826,340.891892 L826,185.702703 C826,184.309302 826.435181,183.177182 827.305556,182.306306 C828.17593,181.435431 829.3074,181 830.7,181 L840.1,181 C841.4926,181 842.62407,181.435431 843.494444,182.306306 C844.364819,183.177182 844.8,184.309302 844.8,185.702703 L844.8,322.081081 C844.8,326.087107 843.450939,329.439926 840.752778,332.13964 C838.054616,334.839353 834.703724,336.189189 830.7,336.189189 L858.9,336.189189 C860.2926,336.189189 861.42407,335.753758 862.294444,334.882883 C863.164819,334.012008 863.6,332.879887 863.6,331.486486 L863.6,185.702703 Z M975.75,181 C979.796317,181 983.182857,182.349836 985.909722,185.04955 C988.636588,187.749263 990,191.102082 990,195.108108 L990,340.891892 C990,344.897918 988.636588,348.250737 985.909722,350.95045 C983.182857,353.650164 979.796317,355 975.75,355 L947.25,355 C943.203683,355 939.817143,353.650164 937.090278,350.95045 C934.363412,348.250737 933,344.897918 933,340.891892 L933,195.108108 C933,191.102082 934.363412,187.749263 937.090278,185.04955 C939.817143,182.349836 943.203683,181 947.25,181 L975.75,181 Z M971,204.724138 C971,203.324386 970.563496,202.187105 969.690476,201.312261 C968.817456,200.437416 967.682547,200 966.285714,200 L938,200 C942.015893,200 945.376971,201.355989 948.083333,204.068008 C950.789696,206.780026 952.142857,210.148128 952.142857,214.172414 L952.142857,332.275862 C952.142857,333.675614 952.579361,334.812895 953.452381,335.687739 C954.325401,336.562584 955.46031,337 956.857143,337 L966.285714,337 C967.682547,337 968.817456,336.562584 969.690476,335.687739 C970.563496,334.812895 971,333.675614 971,332.275862 L971,204.724138 Z M1061,265.648649 C1061,269.654675 1059.63659,273.007494 1056.90972,275.707207 C1054.18286,278.40692 1050.79632,279.756757 1046.75,279.756757 C1050.79632,279.756757 1054.18286,281.106593 1056.90972,283.806306 C1059.63659,286.50602 1061,289.858839 1061,293.864865 L1061,350.297297 C1061,351.690698 1060.56019,352.822818 1059.68056,353.693694 C1058.80092,354.564569 1057.65741,355 1056.25,355 L1046.75,355 C1045.34259,355 1044.19908,354.564569 1043.31944,353.693694 C1042.43981,352.822818 1042,351.690698 1042,350.297297 L1042,293.864865 C1042,292.471465 1041.56019,291.339344 1040.68056,290.468468 C1039.80092,289.597593 1038.65741,289.162162 1037.25,289.162162 L1008.75,289.162162 C1012.79632,289.162162 1016.18286,290.511999 1018.90972,293.211712 C1021.63659,295.911425 1023,299.264244 1023,303.27027 L1023,350.297297 C1023,351.690698 1022.56019,352.822818 1021.68056,353.693694 C1020.80092,354.564569 1019.65741,355 1018.25,355 L1008.75,355 C1007.34259,355 1006.19908,354.564569 1005.31944,353.693694 C1004.43981,352.822818 1004,351.690698 1004,350.297297 L1004,185.702703 C1004,184.309302 1004.43981,183.177182 1005.31944,182.306306 C1006.19908,181.435431 1007.34259,181 1008.75,181 L1046.75,181 C1050.79632,181 1054.18286,182.349836 1056.90972,185.04955 C1059.63659,187.749263 1061,191.102082 1061,195.108108 L1061,265.648649 Z M1041,204.666667 C1041,203.283944 1040.5635,202.160498 1039.69048,201.296296 C1038.81746,200.432094 1037.68255,200 1036.28571,200 L1008,200 C1012.01589,200 1015.37697,201.339493 1018.08333,204.018519 C1020.7897,206.697544 1022.14286,210.024671 1022.14286,214 L1022.14286,265.333333 C1022.14286,266.716056 1022.57936,267.839502 1023.45238,268.703704 C1024.3254,269.567906 1025.46031,270 1026.85714,270 L1036.28571,270 C1037.68255,270 1038.81746,269.567906 1039.69048,268.703704 C1040.5635,267.839502 1041,266.716056 1041,265.333333 L1041,204.666667 Z M1074,185.702703 C1074,184.309302 1074.43981,183.177182 1075.31944,182.306306 C1076.19908,181.435431 1077.34259,181 1078.75,181 L1088.25,181 C1089.65741,181 1090.80092,181.435431 1091.68056,182.306306 C1092.56019,183.177182 1093,184.309302 1093,185.702703 L1093,322.081081 C1093,326.087107 1091.63659,329.439926 1088.90972,332.13964 C1086.18286,334.839353 1082.79632,336.189189 1078.75,336.189189 L1126.25,336.189189 C1127.65741,336.189189 1128.80092,336.62462 1129.68056,337.495495 C1130.56019,338.366371 1131,339.498492 1131,340.891892 L1131,350.297297 C1131,351.690698 1130.56019,352.822818 1129.68056,353.693694 C1128.80092,354.564569 1127.65741,355 1126.25,355 L1088.25,355 C1084.20368,355 1080.81714,353.650164 1078.09028,350.95045 C1075.36341,348.250737 1074,344.897918 1074,340.891892 L1074,185.702703 Z M1186.75,181 C1190.79632,181 1194.18286,182.349836 1196.90972,185.04955 C1199.63659,187.749263 1201,191.102082 1201,195.108108 L1201,340.891892 C1201,344.897918 1199.63659,348.250737 1196.90972,350.95045 C1194.18286,353.650164 1190.79632,355 1186.75,355 L1148.75,355 C1147.34259,355 1146.19908,354.564569 1145.31944,353.693694 C1144.43981,352.822818 1144,351.690698 1144,350.297297 L1144,185.702703 C1144,184.309302 1144.43981,183.177182 1145.31944,182.306306 C1146.19908,181.435431 1147.34259,181 1148.75,181 L1186.75,181 Z M1182,204.724138 C1182,203.324386 1181.5635,202.187105 1180.69048,201.312261 C1179.81746,200.437416 1178.68255,200 1177.28571,200 L1149,200 C1153.01589,200 1156.37697,201.355989 1159.08333,204.068008 C1161.7897,206.780026 1163.14286,210.148128 1163.14286,214.172414 L1163.14286,332.275862 C1163.14286,333.675614 1163.57936,334.812895 1164.45238,335.687739 C1165.3254,336.562584 1166.46031,337 1167.85714,337 L1177.28571,337 C1178.68255,337 1179.81746,336.562584 1180.69048,335.687739 C1181.5635,334.812895 1182,333.675614 1182,332.275862 L1182,204.724138 Z M970.6,375.702703 C970.6,374.309302 971.035181,373.177182 971.905556,372.306306 C972.77593,371.435431 973.9074,371 975.3,371 L984.7,371 C986.0926,371 987.22407,371.435431 988.094444,372.306306 C988.964819,373.177182 989.4,374.309302 989.4,375.702703 L989.4,512.081081 C989.4,516.087107 988.050939,519.439926 985.352778,522.13964 C982.654616,524.839353 979.303724,526.189189 975.3,526.189189 L1003.5,526.189189 C1004.8926,526.189189 1006.02407,525.753758 1006.89444,524.882883 C1007.76482,524.012008 1008.2,522.879887 1008.2,521.486486 L1008.2,375.702703 C1008.2,374.309302 1008.63518,373.177182 1009.50556,372.306306 C1010.37593,371.435431 1011.5074,371 1012.9,371 L1022.3,371 C1023.6926,371 1024.82407,371.435431 1025.69444,372.306306 C1026.56482,373.177182 1027,374.309302 1027,375.702703 L1027,530.891892 C1027,534.897918 1025.65094,538.250737 1022.95278,540.95045 C1020.25462,543.650164 1016.90372,545 1012.9,545 L994.1,545 C990.096276,545 986.745384,543.650164 984.047222,540.95045 C981.349061,538.250737 980,534.897918 980,530.891892 C980,534.897918 978.650939,538.250737 975.952778,540.95045 C973.254616,543.650164 969.903724,545 965.9,545 L947.1,545 C943.096276,545 939.745384,543.650164 937.047222,540.95045 C934.349061,538.250737 933,534.897918 933,530.891892 L933,375.702703 C933,374.309302 933.435181,373.177182 934.305556,372.306306 C935.17593,371.435431 936.3074,371 937.7,371 L947.1,371 C948.4926,371 949.62407,371.435431 950.494444,372.306306 C951.364819,373.177182 951.8,374.309302 951.8,375.702703 L951.8,512.081081 C951.8,516.087107 950.450939,519.439926 947.752778,522.13964 C945.054616,524.839353 941.703724,526.189189 937.7,526.189189 L965.9,526.189189 C967.2926,526.189189 968.42407,525.753758 969.294444,524.882883 C970.164819,524.012008 970.6,522.879887 970.6,521.486486 L970.6,375.702703 Z M1045.75,545 C1044.34259,545 1043.19908,544.564569 1042.31944,543.693694 C1041.43981,542.822818 1041,541.690698 1041,540.297297 L1041,375.702703 C1041,374.309302 1041.43981,373.177182 1042.31944,372.306306 C1043.19908,371.435431 1044.34259,371 1045.75,371 L1055.25,371 C1056.65741,371 1057.80092,371.435431 1058.68056,372.306306 C1059.56019,373.177182 1060,374.309302 1060,375.702703 L1060,540.297297 C1060,541.690698 1059.56019,542.822818 1058.68056,543.693694 C1057.80092,544.564569 1056.65741,545 1055.25,545 L1045.75,545 Z M1116.75,371 C1120.79632,371 1124.18286,372.349836 1126.90972,375.04955 C1129.63659,377.749263 1131,381.102082 1131,385.108108 L1131,530.891892 C1131,534.897918 1129.63659,538.250737 1126.90972,540.95045 C1124.18286,543.650164 1120.79632,545 1116.75,545 L1078.75,545 C1077.34259,545 1076.19908,544.564569 1075.31944,543.693694 C1074.43981,542.822818 1074,541.690698 1074,540.297297 L1074,375.702703 C1074,374.309302 1074.43981,373.177182 1075.31944,372.306306 C1076.19908,371.435431 1077.34259,371 1078.75,371 L1116.75,371 Z M1112,394.724138 C1112,393.324386 1111.5635,392.187105 1110.69048,391.312261 C1109.81746,390.437416 1108.68255,390 1107.28571,390 L1079,390 C1083.01589,390 1086.37697,391.355989 1089.08333,394.068008 C1091.7897,396.780026 1093.14286,400.148128 1093.14286,404.172414 L1093.14286,522.275862 C1093.14286,523.675614 1093.57936,524.812895 1094.45238,525.687739 C1095.3254,526.562584 1096.46031,527 1097.85714,527 L1107.28571,527 C1108.68255,527 1109.81746,526.562584 1110.69048,525.687739 C1111.5635,524.812895 1112,523.675614 1112,522.275862 L1112,394.724138 Z M1158.25,545 C1154.20368,545 1150.81714,543.650164 1148.09028,540.95045 C1145.36341,538.250737 1144,534.897918 1144,530.891892 L1144,385.108108 C1144,381.102082 1145.36341,377.749263 1148.09028,375.04955 C1150.81714,372.349836 1154.20368,371 1158.25,371 L1196.25,371 C1197.65741,371 1198.80092,371.435431 1199.68056,372.306306 C1200.56019,373.177182 1201,374.309302 1201,375.702703 L1201,385.108108 C1201,386.501508 1200.56019,387.633629 1199.68056,388.504505 C1198.80092,389.37538 1197.65741,389.810811 1196.25,389.810811 L1148.75,389.810811 C1152.79632,389.810811 1156.18286,391.160647 1158.90972,393.86036 C1161.63659,396.560074 1163,399.912893 1163,403.918919 L1163,455.648649 C1163,457.042049 1163.43981,458.17417 1164.31944,459.045045 C1165.19908,459.91592 1166.34259,460.351351 1167.75,460.351351 L1177.25,460.351351 C1178.65741,460.351351 1179.80092,460.786782 1180.68056,461.657658 C1181.56019,462.528533 1182,463.660654 1182,465.054054 L1182,474.459459 C1182,475.85286 1181.56019,476.984981 1180.68056,477.855856 C1179.80092,478.726731 1178.65741,479.162162 1177.25,479.162162 L1148.75,479.162162 C1152.79632,479.162162 1156.18286,480.511999 1158.90972,483.211712 C1161.63659,485.911425 1163,489.264244 1163,493.27027 L1163,521.486486 C1163,522.879887 1163.43981,524.012008 1164.31944,524.882883 C1165.19908,525.753758 1166.34259,526.189189 1167.75,526.189189 L1196.25,526.189189 C1197.65741,526.189189 1198.80092,526.62462 1199.68056,527.495495 C1200.56019,528.366371 1201,529.498492 1201,530.891892 L1201,540.297297 C1201,541.690698 1200.56019,542.822818 1199.68056,543.693694 C1198.80092,544.564569 1197.65741,545 1196.25,545 L1158.25,545 Z M788,565.702703 C788,564.309302 788.435181,563.177182 789.305556,562.306306 C790.17593,561.435431 791.3074,561 792.7,561 L820.9,561 C824.903724,561 828.254616,562.349836 830.952778,565.04955 C833.650939,567.749263 835,571.102082 835,575.108108 C835,571.102082 836.349061,567.749263 839.047222,565.04955 C841.745384,562.349836 845.096276,561 849.1,561 L867.9,561 C871.903724,561 875.254616,562.349836 877.952778,565.04955 C880.650939,567.749263 882,571.102082 882,575.108108 L882,730.297297 C882,731.690698 881.564819,732.822818 880.694444,733.693694 C879.82407,734.564569 878.6926,735 877.3,735 L867.9,735 C866.5074,735 865.37593,734.564569 864.505556,733.693694 C863.635181,732.822818 863.2,731.690698 863.2,730.297297 L863.2,584.513514 C863.2,583.120113 862.764819,581.987992 861.894444,581.117117 C861.02407,580.246242 859.8926,579.810811 858.5,579.810811 L830.3,579.810811 C834.303724,579.810811 837.654616,581.160647 840.352778,583.86036 C843.050939,586.560074 844.4,589.912893 844.4,593.918919 L844.4,730.297297 C844.4,731.690698 843.964819,732.822818 843.094444,733.693694 C842.22407,734.564569 841.0926,735 839.7,735 L830.3,735 C828.9074,735 827.77593,734.564569 826.905556,733.693694 C826.035181,732.822818 825.6,731.690698 825.6,730.297297 L825.6,584.513514 C825.6,583.120113 825.164819,581.987992 824.294444,581.117117 C823.42407,580.246242 822.2926,579.810811 820.9,579.810811 L792.7,579.810811 C796.703724,579.810811 800.054616,581.160647 802.752778,583.86036 C805.450939,586.560074 806.8,589.912893 806.8,593.918919 L806.8,730.297297 C806.8,731.690698 806.364819,732.822818 805.494444,733.693694 C804.62407,734.564569 803.4926,735 802.1,735 L792.7,735 C791.3074,735 790.17593,734.564569 789.305556,733.693694 C788.435181,732.822818 788,731.690698 788,730.297297 L788,565.702703 Z M938.75,561 C942.796317,561 946.182857,562.349836 948.909722,565.04955 C951.636588,567.749263 953,571.102082 953,575.108108 L953,720.891892 C953,724.897918 951.636588,728.250737 948.909722,730.95045 C946.182857,733.650164 942.796317,735 938.75,735 L910.25,735 C906.203683,735 902.817143,733.650164 900.090278,730.95045 C897.363412,728.250737 896,724.897918 896,720.891892 L896,575.108108 C896,571.102082 897.363412,567.749263 900.090278,565.04955 C902.817143,562.349836 906.203683,561 910.25,561 L938.75,561 Z M934,584.724138 C934,583.324386 933.563496,582.187105 932.690476,581.312261 C931.817456,580.437416 930.682547,580 929.285714,580 L901,580 C905.015893,580 908.376971,581.355989 911.083333,584.068008 C913.789696,586.780026 915.142857,590.148128 915.142857,594.172414 L915.142857,712.275862 C915.142857,713.675614 915.579361,714.812895 916.452381,715.687739 C917.325401,716.562584 918.46031,717 919.857143,717 L929.285714,717 C930.682547,717 931.817456,716.562584 932.690476,715.687739 C933.563496,714.812895 934,713.675614 934,712.275862 L934,584.724138 Z M1009.75,561 C1013.79632,561 1017.18286,562.349836 1019.90972,565.04955 C1022.63659,567.749263 1024,571.102082 1024,575.108108 L1024,720.891892 C1024,724.897918 1022.63659,728.250737 1019.90972,730.95045 C1017.18286,733.650164 1013.79632,735 1009.75,735 L971.75,735 C970.342586,735 969.199078,734.564569 968.319444,733.693694 C967.43981,732.822818 967,731.690698 967,730.297297 L967,565.702703 C967,564.309302 967.43981,563.177182 968.319444,562.306306 C969.199078,561.435431 970.342586,561 971.75,561 L1009.75,561 Z M1004,584.724138 C1004,583.324386 1003.5635,582.187105 1002.69048,581.312261 C1001.81746,580.437416 1000.68255,580 999.285714,580 L971,580 C975.015893,580 978.376971,581.355989 981.083333,584.068008 C983.789696,586.780026 985.142857,590.148128 985.142857,594.172414 L985.142857,712.275862 C985.142857,713.675614 985.579361,714.812895 986.452381,715.687739 C987.325401,716.562584 988.46031,717 989.857143,717 L999.285714,717 C1000.68255,717 1001.81746,716.562584 1002.69048,715.687739 C1003.5635,714.812895 1004,713.675614 1004,712.275862 L1004,584.724138 Z M1050.25,735 C1046.20368,735 1042.81714,733.650164 1040.09028,730.95045 C1037.36341,728.250737 1036,724.897918 1036,720.891892 L1036,575.108108 C1036,571.102082 1037.36341,567.749263 1040.09028,565.04955 C1042.81714,562.349836 1046.20368,561 1050.25,561 L1088.25,561 C1089.65741,561 1090.80092,561.435431 1091.68056,562.306306 C1092.56019,563.177182 1093,564.309302 1093,565.702703 L1093,575.108108 C1093,576.501508 1092.56019,577.633629 1091.68056,578.504505 C1090.80092,579.37538 1089.65741,579.810811 1088.25,579.810811 L1040.75,579.810811 C1044.79632,579.810811 1048.18286,581.160647 1050.90972,583.86036 C1053.63659,586.560074 1055,589.912893 1055,593.918919 L1055,645.648649 C1055,647.042049 1055.43981,648.17417 1056.31944,649.045045 C1057.19908,649.91592 1058.34259,650.351351 1059.75,650.351351 L1069.25,650.351351 C1070.65741,650.351351 1071.80092,650.786782 1072.68056,651.657658 C1073.56019,652.528533 1074,653.660654 1074,655.054054 L1074,664.459459 C1074,665.85286 1073.56019,666.984981 1072.68056,667.855856 C1071.80092,668.726731 1070.65741,669.162162 1069.25,669.162162 L1040.75,669.162162 C1044.79632,669.162162 1048.18286,670.511999 1050.90972,673.211712 C1053.63659,675.911425 1055,679.264244 1055,683.27027 L1055,711.486486 C1055,712.879887 1055.43981,714.012008 1056.31944,714.882883 C1057.19908,715.753758 1058.34259,716.189189 1059.75,716.189189 L1088.25,716.189189 C1089.65741,716.189189 1090.80092,716.62462 1091.68056,717.495495 C1092.56019,718.366371 1093,719.498492 1093,720.891892 L1093,730.297297 C1093,731.690698 1092.56019,732.822818 1091.68056,733.693694 C1090.80092,734.564569 1089.65741,735 1088.25,735 L1050.25,735 Z M1107,565.702703 C1107,564.309302 1107.43518,563.177182 1108.30556,562.306306 C1109.17593,561.435431 1110.3074,561 1111.7,561 L1139.9,561 C1143.90372,561 1147.25462,562.349836 1149.95278,565.04955 C1152.65094,567.749263 1154,571.102082 1154,575.108108 C1154,571.102082 1155.34906,567.749263 1158.04722,565.04955 C1160.74538,562.349836 1164.09628,561 1168.1,561 L1186.9,561 C1190.90372,561 1194.25462,562.349836 1196.95278,565.04955 C1199.65094,567.749263 1201,571.102082 1201,575.108108 L1201,730.297297 C1201,731.690698 1200.56482,732.822818 1199.69444,733.693694 C1198.82407,734.564569 1197.6926,735 1196.3,735 L1186.9,735 C1185.5074,735 1184.37593,734.564569 1183.50556,733.693694 C1182.63518,732.822818 1182.2,731.690698 1182.2,730.297297 L1182.2,584.513514 C1182.2,583.120113 1181.76482,581.987992 1180.89444,581.117117 C1180.02407,580.246242 1178.8926,579.810811 1177.5,579.810811 L1149.3,579.810811 C1153.30372,579.810811 1156.65462,581.160647 1159.35278,583.86036 C1162.05094,586.560074 1163.4,589.912893 1163.4,593.918919 L1163.4,730.297297 C1163.4,731.690698 1162.96482,732.822818 1162.09444,733.693694 C1161.22407,734.564569 1160.0926,735 1158.7,735 L1149.3,735 C1147.9074,735 1146.77593,734.564569 1145.90556,733.693694 C1145.03518,732.822818 1144.6,731.690698 1144.6,730.297297 L1144.6,584.513514 C1144.6,583.120113 1144.16482,581.987992 1143.29444,581.117117 C1142.42407,580.246242 1141.2926,579.810811 1139.9,579.810811 L1111.7,579.810811 C1115.70372,579.810811 1119.05462,581.160647 1121.75278,583.86036 C1124.45094,586.560074 1125.8,589.912893 1125.8,593.918919 L1125.8,730.297297 C1125.8,731.690698 1125.36482,732.822818 1124.49444,733.693694 C1123.62407,734.564569 1122.4926,735 1121.1,735 L1111.7,735 C1110.3074,735 1109.17593,734.564569 1108.30556,733.693694 C1107.43518,732.822818 1107,731.690698 1107,730.297297 L1107,565.702703 Z" id="WORLD-WIDE-MODEM-Copy"></path>
            </g>
        </g>
    </g>
</svg>