<?xml version="1.0" encoding="utf-8"?>
<!-- Generator: Adobe Illustrator 21.1.0, SVG Export Plug-In . SVG Version: 6.00 Build 0)  -->
<svg version="1.1" id="Layer_1" xmlns="http://www.w3.org/2000/svg" xmlns:xlink="http://www.w3.org/1999/xlink" x="0px" y="0px"
	 viewBox="0 0 413 554" style="enable-background:new 0 0 413 554;" xml:space="preserve">
<style type="text/css">
	.st0{fill:#E3E3E3;}
</style>
<title>WORLD WIDE MODEM Copy</title>
<desc>Created with Sketch.</desc>
<g id="Website">
	<g id="Product-Detail-" transform="translate(-788.000000, -181.000000)">
		<g id="Part-A">
			<path id="WORLD-WIDE-MODEM-Copy" class="st0" d="M825.6,185.7c0-1.4,0.4-2.5,1.3-3.4c0.9-0.9,2-1.3,3.4-1.3h9.4
				c1.4,0,2.5,0.4,3.4,1.3c0.9,0.9,1.3,2,1.3,3.4v136.4c0,4-1.3,7.4-4,10.1c-2.7,2.7-6,4-10.1,4h28.2c1.4,0,2.5-0.4,3.4-1.3
				c0.9-0.9,1.3-2,1.3-3.4V185.7c0-1.4,0.4-2.5,1.3-3.4s2-1.3,3.4-1.3h9.4c1.4,0,2.5,0.4,3.4,1.3s1.3,2,1.3,3.4v155.2
				c0,4-1.3,7.4-4,10.1c-2.7,2.7-6,4-10.1,4h-18.8c-4,0-7.4-1.3-10.1-4c-2.7-2.7-4-6.1-4-10.1c0,4-1.3,7.4-4,10.1
				c-2.7,2.7-6,4-10.1,4h-18.8c-4,0-7.4-1.3-10.1-4c-2.7-2.7-4-6.1-4-10.1V185.7c0-1.4,0.4-2.5,1.3-3.4s2-1.3,3.4-1.3h9.4
				c1.4,0,2.5,0.4,3.4,1.3s1.3,2,1.3,3.4v136.4c0,4-1.3,7.4-4,10.1c-2.7,2.7-6,4-10.1,4h28.2c1.4,0,2.5-0.4,3.4-1.3s1.3-2,1.3-3.4
				V185.7z M937.8,181c4,0,7.4,1.3,10.2,4c2.7,2.7,4.1,6.1,4.1,10.1v145.8c0,4-1.4,7.4-4.1,10.1c-2.7,2.7-6.1,4-10.2,4h-28.5
				c-4,0-7.4-1.3-10.2-4c-2.7-2.7-4.1-6.1-4.1-10.1V195.1c0-4,1.4-7.4,4.1-10.1c2.7-2.7,6.1-4,10.2-4H937.8z M933,204.7
				c0-1.4-0.4-2.5-1.3-3.4c-0.9-0.9-2-1.3-3.4-1.3H900c4,0,7.4,1.4,10.1,4.1s4.1,6.1,4.1,10.1v118.1c0,1.4,0.4,2.5,1.3,3.4
				c0.9,0.9,2,1.3,3.4,1.3h9.4c1.4,0,2.5-0.4,3.4-1.3c0.9-0.9,1.3-2,1.3-3.4V204.7z M1023,265.6c0,4-1.4,7.4-4.1,10.1
				c-2.7,2.7-6.1,4-10.2,4c4,0,7.4,1.3,10.2,4c2.7,2.7,4.1,6.1,4.1,10.1v56.4c0,1.4-0.4,2.5-1.3,3.4s-2,1.3-3.4,1.3h-9.5
				c-1.4,0-2.6-0.4-3.4-1.3s-1.3-2-1.3-3.4v-56.4c0-1.4-0.4-2.5-1.3-3.4s-2-1.3-3.4-1.3h-28.5c4,0,7.4,1.3,10.2,4
				c2.7,2.7,4.1,6.1,4.1,10.1v47c0,1.4-0.4,2.5-1.3,3.4s-2,1.3-3.4,1.3h-9.5c-1.4,0-2.6-0.4-3.4-1.3s-1.3-2-1.3-3.4V185.7
				c0-1.4,0.4-2.5,1.3-3.4s2-1.3,3.4-1.3h38c4,0,7.4,1.3,10.2,4c2.7,2.7,4.1,6.1,4.1,10.1V265.6z M1003,204.7c0-1.4-0.4-2.5-1.3-3.4
				c-0.9-0.9-2-1.3-3.4-1.3H970c4,0,7.4,1.3,10.1,4c2.7,2.7,4.1,6,4.1,10v51.3c0,1.4,0.4,2.5,1.3,3.4s2,1.3,3.4,1.3h9.4
				c1.4,0,2.5-0.4,3.4-1.3c0.9-0.9,1.3-2,1.3-3.4V204.7z M1036,185.7c0-1.4,0.4-2.5,1.3-3.4s2-1.3,3.4-1.3h9.5
				c1.4,0,2.6,0.4,3.4,1.3s1.3,2,1.3,3.4v136.4c0,4-1.4,7.4-4.1,10.1c-2.7,2.7-6.1,4-10.2,4h47.5c1.4,0,2.6,0.4,3.4,1.3
				c0.9,0.9,1.3,2,1.3,3.4v9.4c0,1.4-0.4,2.5-1.3,3.4s-2,1.3-3.4,1.3h-38c-4,0-7.4-1.3-10.2-4c-2.7-2.7-4.1-6.1-4.1-10.1V185.7z
				 M1148.8,181c4,0,7.4,1.3,10.2,4c2.7,2.7,4.1,6.1,4.1,10.1v145.8c0,4-1.4,7.4-4.1,10.1c-2.7,2.7-6.1,4-10.2,4h-38
				c-1.4,0-2.6-0.4-3.4-1.3s-1.3-2-1.3-3.4V185.7c0-1.4,0.4-2.5,1.3-3.4s2-1.3,3.4-1.3H1148.8z M1144,204.7c0-1.4-0.4-2.5-1.3-3.4
				c-0.9-0.9-2-1.3-3.4-1.3H1111c4,0,7.4,1.4,10.1,4.1c2.7,2.7,4.1,6.1,4.1,10.1v118.1c0,1.4,0.4,2.5,1.3,3.4s2,1.3,3.4,1.3h9.4
				c1.4,0,2.5-0.4,3.4-1.3c0.9-0.9,1.3-2,1.3-3.4V204.7z M825.6,375.7c0-1.4,0.4-2.5,1.3-3.4c0.9-0.9,2-1.3,3.4-1.3h9.4
				c1.4,0,2.5,0.4,3.4,1.3c0.9,0.9,1.3,2,1.3,3.4v136.4c0,4-1.3,7.4-4,10.1s-6,4-10.1,4h28.2c1.4,0,2.5-0.4,3.4-1.3
				c0.9-0.9,1.3-2,1.3-3.4V375.7c0-1.4,0.4-2.5,1.3-3.4s2-1.3,3.4-1.3h9.4c1.4,0,2.5,0.4,3.4,1.3s1.3,2,1.3,3.4v155.2
				c0,4-1.3,7.4-4,10.1c-2.7,2.7-6,4-10.1,4h-18.8c-4,0-7.4-1.3-10.1-4c-2.7-2.7-4-6.1-4-10.1c0,4-1.3,7.4-4,10.1
				c-2.7,2.7-6,4-10.1,4h-18.8c-4,0-7.4-1.3-10.1-4c-2.7-2.7-4-6.1-4-10.1V375.7c0-1.4,0.4-2.5,1.3-3.4s2-1.3,3.4-1.3h9.4
				c1.4,0,2.5,0.4,3.4,1.3s1.3,2,1.3,3.4v136.4c0,4-1.3,7.4-4,10.1c-2.7,2.7-6,4-10.1,4h28.2c1.4,0,2.5-0.4,3.4-1.3
				c0.9-0.9,1.3-2,1.3-3.4V375.7z M900.8,545c-1.4,0-2.6-0.4-3.4-1.3c-0.9-0.9-1.3-2-1.3-3.4V375.7c0-1.4,0.4-2.5,1.3-3.4
				s2-1.3,3.4-1.3h9.5c1.4,0,2.6,0.4,3.4,1.3s1.3,2,1.3,3.4v164.6c0,1.4-0.4,2.5-1.3,3.4c-0.9,0.9-2,1.3-3.4,1.3H900.8z M971.8,371
				c4,0,7.4,1.3,10.2,4c2.7,2.7,4.1,6.1,4.1,10.1v145.8c0,4-1.4,7.4-4.1,10.1c-2.7,2.7-6.1,4-10.2,4h-38c-1.4,0-2.6-0.4-3.4-1.3
				c-0.9-0.9-1.3-2-1.3-3.4V375.7c0-1.4,0.4-2.5,1.3-3.4s2-1.3,3.4-1.3H971.8z M967,394.7c0-1.4-0.4-2.5-1.3-3.4
				c-0.9-0.9-2-1.3-3.4-1.3H934c4,0,7.4,1.4,10.1,4.1c2.7,2.7,4.1,6.1,4.1,10.1v118.1c0,1.4,0.4,2.5,1.3,3.4c0.9,0.9,2,1.3,3.4,1.3
				h9.4c1.4,0,2.5-0.4,3.4-1.3c0.9-0.9,1.3-2,1.3-3.4V394.7z M1013.2,545c-4,0-7.4-1.3-10.2-4c-2.7-2.7-4.1-6.1-4.1-10.1V385.1
				c0-4,1.4-7.4,4.1-10.1c2.7-2.7,6.1-4,10.2-4h38c1.4,0,2.6,0.4,3.4,1.3s1.3,2,1.3,3.4v9.4c0,1.4-0.4,2.5-1.3,3.4
				c-0.9,0.9-2,1.3-3.4,1.3h-47.5c4,0,7.4,1.3,10.2,4c2.7,2.7,4.1,6.1,4.1,10.1v51.7c0,1.4,0.4,2.5,1.3,3.4s2,1.3,3.4,1.3h9.5
				c1.4,0,2.6,0.4,3.4,1.3s1.3,2,1.3,3.4v9.4c0,1.4-0.4,2.5-1.3,3.4s-2,1.3-3.4,1.3h-28.5c4,0,7.4,1.3,10.2,4
				c2.7,2.7,4.1,6.1,4.1,10.1v28.2c0,1.4,0.4,2.5,1.3,3.4c0.9,0.9,2,1.3,3.4,1.3h28.5c1.4,0,2.6,0.4,3.4,1.3c0.9,0.9,1.3,2,1.3,3.4
				v9.4c0,1.4-0.4,2.5-1.3,3.4c-0.9,0.9-2,1.3-3.4,1.3H1013.2z M788,565.7c0-1.4,0.4-2.5,1.3-3.4c0.9-0.9,2-1.3,3.4-1.3h28.2
				c4,0,7.4,1.3,10.1,4c2.7,2.7,4,6.1,4,10.1c0-4,1.3-7.4,4-10.1c2.7-2.7,6-4,10.1-4h18.8c4,0,7.4,1.3,10.1,4c2.7,2.7,4,6.1,4,10.1
				v155.2c0,1.4-0.4,2.5-1.3,3.4c-0.9,0.9-2,1.3-3.4,1.3h-9.4c-1.4,0-2.5-0.4-3.4-1.3c-0.9-0.9-1.3-2-1.3-3.4V584.5
				c0-1.4-0.4-2.5-1.3-3.4c-0.9-0.9-2-1.3-3.4-1.3h-28.2c4,0,7.4,1.3,10.1,4s4,6.1,4,10.1v136.4c0,1.4-0.4,2.5-1.3,3.4
				c-0.9,0.9-2,1.3-3.4,1.3h-9.4c-1.4,0-2.5-0.4-3.4-1.3c-0.9-0.9-1.3-2-1.3-3.4V584.5c0-1.4-0.4-2.5-1.3-3.4
				c-0.9-0.9-2-1.3-3.4-1.3h-28.2c4,0,7.4,1.3,10.1,4c2.7,2.7,4,6.1,4,10.1v136.4c0,1.4-0.4,2.5-1.3,3.4c-0.9,0.9-2,1.3-3.4,1.3
				h-9.4c-1.4,0-2.5-0.4-3.4-1.3c-0.9-0.9-1.3-2-1.3-3.4V565.7z M938.8,561c4,0,7.4,1.3,10.2,4s4.1,6.1,4.1,10.1v145.8
				c0,4-1.4,7.4-4.1,10.1s-6.1,4-10.2,4h-28.5c-4,0-7.4-1.3-10.2-4s-4.1-6.1-4.1-10.1V575.1c0-4,1.4-7.4,4.1-10.1s6.1-4,10.2-4
				H938.8z M934,584.7c0-1.4-0.4-2.5-1.3-3.4c-0.9-0.9-2-1.3-3.4-1.3H901c4,0,7.4,1.4,10.1,4.1c2.7,2.7,4.1,6.1,4.1,10.1v118.1
				c0,1.4,0.4,2.5,1.3,3.4c0.9,0.9,2,1.3,3.4,1.3h9.4c1.4,0,2.5-0.4,3.4-1.3c0.9-0.9,1.3-2,1.3-3.4V584.7z M1009.8,561
				c4,0,7.4,1.3,10.2,4s4.1,6.1,4.1,10.1v145.8c0,4-1.4,7.4-4.1,10.1s-6.1,4-10.2,4h-38c-1.4,0-2.6-0.4-3.4-1.3
				c-0.9-0.9-1.3-2-1.3-3.4V565.7c0-1.4,0.4-2.5,1.3-3.4c0.9-0.9,2-1.3,3.4-1.3H1009.8z M1004,584.7c0-1.4-0.4-2.5-1.3-3.4
				c-0.9-0.9-2-1.3-3.4-1.3H971c4,0,7.4,1.4,10.1,4.1c2.7,2.7,4.1,6.1,4.1,10.1v118.1c0,1.4,0.4,2.5,1.3,3.4c0.9,0.9,2,1.3,3.4,1.3
				h9.4c1.4,0,2.5-0.4,3.4-1.3c0.9-0.9,1.3-2,1.3-3.4V584.7z M1050.2,735c-4,0-7.4-1.3-10.2-4c-2.7-2.7-4.1-6.1-4.1-10.1V575.1
				c0-4,1.4-7.4,4.1-10.1c2.7-2.7,6.1-4,10.2-4h38c1.4,0,2.6,0.4,3.4,1.3c0.9,0.9,1.3,2,1.3,3.4v9.4c0,1.4-0.4,2.5-1.3,3.4
				c-0.9,0.9-2,1.3-3.4,1.3h-47.5c4,0,7.4,1.3,10.2,4c2.7,2.7,4.1,6.1,4.1,10.1v51.7c0,1.4,0.4,2.5,1.3,3.4s2,1.3,3.4,1.3h9.5
				c1.4,0,2.6,0.4,3.4,1.3s1.3,2,1.3,3.4v9.4c0,1.4-0.4,2.5-1.3,3.4c-0.9,0.9-2,1.3-3.4,1.3h-28.5c4,0,7.4,1.3,10.2,4
				c2.7,2.7,4.1,6.1,4.1,10.1v28.2c0,1.4,0.4,2.5,1.3,3.4c0.9,0.9,2,1.3,3.4,1.3h28.5c1.4,0,2.6,0.4,3.4,1.3c0.9,0.9,1.3,2,1.3,3.4
				v9.4c0,1.4-0.4,2.5-1.3,3.4c-0.9,0.9-2,1.3-3.4,1.3H1050.2z M1107,565.7c0-1.4,0.4-2.5,1.3-3.4c0.9-0.9,2-1.3,3.4-1.3h28.2
				c4,0,7.4,1.3,10.1,4c2.7,2.7,4,6.1,4,10.1c0-4,1.3-7.4,4-10.1c2.7-2.7,6-4,10.1-4h18.8c4,0,7.4,1.3,10.1,4c2.7,2.7,4,6.1,4,10.1
				v155.2c0,1.4-0.4,2.5-1.3,3.4c-0.9,0.9-2,1.3-3.4,1.3h-9.4c-1.4,0-2.5-0.4-3.4-1.3c-0.9-0.9-1.3-2-1.3-3.4V584.5
				c0-1.4-0.4-2.5-1.3-3.4c-0.9-0.9-2-1.3-3.4-1.3h-28.2c4,0,7.4,1.3,10.1,4s4,6.1,4,10.1v136.4c0,1.4-0.4,2.5-1.3,3.4
				c-0.9,0.9-2,1.3-3.4,1.3h-9.4c-1.4,0-2.5-0.4-3.4-1.3c-0.9-0.9-1.3-2-1.3-3.4V584.5c0-1.4-0.4-2.5-1.3-3.4
				c-0.9-0.9-2-1.3-3.4-1.3h-28.2c4,0,7.4,1.3,10.1,4c2.7,2.7,4,6.1,4,10.1v136.4c0,1.4-0.4,2.5-1.3,3.4c-0.9,0.9-2,1.3-3.4,1.3
				h-9.4c-1.4,0-2.5-0.4-3.4-1.3c-0.9-0.9-1.3-2-1.3-3.4V565.7z"/>
		</g>
	</g>
</g>
</svg>
