<?xml version="1.0" encoding="UTF-8"?>
<svg width="530px" height="612px" viewBox="0 0 530 612" version="1.1" xmlns="http://www.w3.org/2000/svg" xmlns:xlink="http://www.w3.org/1999/xlink">
    <!-- Generator: Sketch 51.2 (57519) - http://www.bohemiancoding.com/sketch -->
    <title>WORLD WIDE SIMCARD gray</title>
    <desc>Created with Sketch.</desc>
    <defs>
        <path d="M156.506329,5.376 C156.506329,3.83999232 156.986324,2.5920048 157.946329,1.632 C158.906333,0.6719952 160.154321,0.192 161.690329,0.192 L172.058329,0.192 C173.594336,0.192 174.842324,0.6719952 175.802329,1.632 C176.762333,2.5920048 177.242329,3.83999232 177.242329,5.376 L177.242329,155.712 C177.242329,160.128022 175.754343,163.823985 172.778329,166.8 C169.802314,169.776015 166.106351,171.264 161.690329,171.264 L192.794329,171.264 C194.330336,171.264 195.578324,170.784005 196.538329,169.824 C197.498333,168.863995 197.978329,167.616008 197.978329,166.08 L197.978329,5.376 C197.978329,3.83999232 198.458324,2.5920048 199.418329,1.632 C200.378333,0.6719952 201.626321,0.192 203.162329,0.192 L213.530329,0.192 C215.066336,0.192 216.314324,0.6719952 217.274329,1.632 C218.234333,2.5920048 218.714329,3.83999232 218.714329,5.376 L218.714329,176.448 C218.714329,180.864022 217.226343,184.559985 214.250329,187.536 C211.274314,190.512015 207.578351,192 203.162329,192 L182.426329,192 C178.010307,192 174.314343,190.512015 171.338329,187.536 C168.362314,184.559985 166.874329,180.864022 166.874329,176.448 C166.874329,180.864022 165.386343,184.559985 162.410329,187.536 C159.434314,190.512015 155.738351,192 151.322329,192 L130.586329,192 C126.170307,192 122.474343,190.512015 119.498329,187.536 C116.522314,184.559985 115.034329,180.864022 115.034329,176.448 L115.034329,5.376 C115.034329,3.83999232 115.514324,2.5920048 116.474329,1.632 C117.434333,0.6719952 118.682321,0.192 120.218329,0.192 L130.586329,0.192 C132.122336,0.192 133.370324,0.6719952 134.330329,1.632 C135.290333,2.5920048 135.770329,3.83999232 135.770329,5.376 L135.770329,155.712 C135.770329,160.128022 134.282343,163.823985 131.306329,166.8 C128.330314,169.776015 124.634351,171.264 120.218329,171.264 L151.322329,171.264 C152.858336,171.264 154.106324,170.784005 155.066329,169.824 C156.026333,168.863995 156.506329,167.616008 156.506329,166.08 L156.506329,5.376 Z M280.922329,0.192 C285.338351,0.192 289.034314,1.67998512 292.010329,4.656 C294.986343,7.63201488 296.474329,11.3279779 296.474329,15.744 L296.474329,176.448 C296.474329,180.864022 294.986343,184.559985 292.010329,187.536 C289.034314,190.512015 285.338351,192 280.922329,192 L249.818329,192 C245.402307,192 241.706343,190.512015 238.730329,187.536 C235.754314,184.559985 234.266329,180.864022 234.266329,176.448 L234.266329,15.744 C234.266329,11.3279779 235.754314,7.63201488 238.730329,4.656 C241.706343,1.67998512 245.402307,0.192 249.818329,0.192 L280.922329,0.192 Z M275.738329,26.112 C275.738329,24.5759923 275.258333,23.3280048 274.298329,22.368 C273.338324,21.4079952 272.090336,20.928 270.554329,20.928 L239.450329,20.928 C243.866351,20.928 247.562314,22.4159851 250.538329,25.392 C253.514343,28.3680149 255.002329,32.0639779 255.002329,36.48 L255.002329,166.08 C255.002329,167.616008 255.482324,168.863995 256.442329,169.824 C257.402333,170.784005 258.650321,171.264 260.186329,171.264 L270.554329,171.264 C272.090336,171.264 273.338324,170.784005 274.298329,169.824 C275.258333,168.863995 275.738329,167.616008 275.738329,166.08 L275.738329,26.112 Z M374.234329,93.504 C374.234329,97.9200221 372.746343,101.615985 369.770329,104.592 C366.794314,107.568015 363.098351,109.056 358.682329,109.056 C363.098351,109.056 366.794314,110.543985 369.770329,113.52 C372.746343,116.496015 374.234329,120.191978 374.234329,124.608 L374.234329,186.816 C374.234329,188.352008 373.754333,189.599995 372.794329,190.56 C371.834324,191.520005 370.586336,192 369.050329,192 L358.682329,192 C357.146321,192 355.898333,191.520005 354.938329,190.56 C353.978324,189.599995 353.498329,188.352008 353.498329,186.816 L353.498329,124.608 C353.498329,123.071992 353.018333,121.824005 352.058329,120.864 C351.098324,119.903995 349.850336,119.424 348.314329,119.424 L317.210329,119.424 C321.626351,119.424 325.322314,120.911985 328.298329,123.888 C331.274343,126.864015 332.762329,130.559978 332.762329,134.976 L332.762329,186.816 C332.762329,188.352008 332.282333,189.599995 331.322329,190.56 C330.362324,191.520005 329.114336,192 327.578329,192 L317.210329,192 C315.674321,192 314.426333,191.520005 313.466329,190.56 C312.506324,189.599995 312.026329,188.352008 312.026329,186.816 L312.026329,5.376 C312.026329,3.83999232 312.506324,2.5920048 313.466329,1.632 C314.426333,0.6719952 315.674321,0.192 317.210329,0.192 L358.682329,0.192 C363.098351,0.192 366.794314,1.67998512 369.770329,4.656 C372.746343,7.63201488 374.234329,11.3279779 374.234329,15.744 L374.234329,93.504 Z M353.498329,26.112 C353.498329,24.5759923 353.018333,23.3280048 352.058329,22.368 C351.098324,21.4079952 349.850336,20.928 348.314329,20.928 L317.210329,20.928 C321.626351,20.928 325.322314,22.4159851 328.298329,25.392 C331.274343,28.3680149 332.762329,32.0639779 332.762329,36.48 L332.762329,93.504 C332.762329,95.0400077 333.242324,96.2879952 334.202329,97.248 C335.162333,98.2080048 336.410321,98.688 337.946329,98.688 L348.314329,98.688 C349.850336,98.688 351.098324,98.2080048 352.058329,97.248 C353.018333,96.2879952 353.498329,95.0400077 353.498329,93.504 L353.498329,26.112 Z M389.786329,5.376 C389.786329,3.83999232 390.266324,2.5920048 391.226329,1.632 C392.186333,0.6719952 393.434321,0.192 394.970329,0.192 L405.338329,0.192 C406.874336,0.192 408.122324,0.6719952 409.082329,1.632 C410.042333,2.5920048 410.522329,3.83999232 410.522329,5.376 L410.522329,155.712 C410.522329,160.128022 409.034343,163.823985 406.058329,166.8 C403.082314,169.776015 399.386351,171.264 394.970329,171.264 L446.810329,171.264 C448.346336,171.264 449.594324,171.743995 450.554329,172.704 C451.514333,173.664005 451.994329,174.911992 451.994329,176.448 L451.994329,186.816 C451.994329,188.352008 451.514333,189.599995 450.554329,190.56 C449.594324,191.520005 448.346336,192 446.810329,192 L405.338329,192 C400.922307,192 397.226343,190.512015 394.250329,187.536 C391.274314,184.559985 389.786329,180.864022 389.786329,176.448 L389.786329,5.376 Z M514.202329,0.192 C518.618351,0.192 522.314314,1.67998512 525.290329,4.656 C528.266343,7.63201488 529.754329,11.3279779 529.754329,15.744 L529.754329,176.448 C529.754329,180.864022 528.266343,184.559985 525.290329,187.536 C522.314314,190.512015 518.618351,192 514.202329,192 L472.730329,192 C471.194321,192 469.946333,191.520005 468.986329,190.56 C468.026324,189.599995 467.546329,188.352008 467.546329,186.816 L467.546329,5.376 C467.546329,3.83999232 468.026324,2.5920048 468.986329,1.632 C469.946333,0.6719952 471.194321,0.192 472.730329,0.192 L514.202329,0.192 Z M509.018329,26.112 C509.018329,24.5759923 508.538333,23.3280048 507.578329,22.368 C506.618324,21.4079952 505.370336,20.928 503.834329,20.928 L472.730329,20.928 C477.146351,20.928 480.842314,22.4159851 483.818329,25.392 C486.794343,28.3680149 488.282329,32.0639779 488.282329,36.48 L488.282329,166.08 C488.282329,167.616008 488.762324,168.863995 489.722329,169.824 C490.682333,170.784005 491.930321,171.264 493.466329,171.264 L503.834329,171.264 C505.370336,171.264 506.618324,170.784005 507.578329,169.824 C508.538333,168.863995 509.018329,167.616008 509.018329,166.08 L509.018329,26.112 Z M275.738329,215.376 C275.738329,213.839992 276.218324,212.592005 277.178329,211.632 C278.138333,210.671995 279.386321,210.192 280.922329,210.192 L291.290329,210.192 C292.826336,210.192 294.074324,210.671995 295.034329,211.632 C295.994333,212.592005 296.474329,213.839992 296.474329,215.376 L296.474329,365.712 C296.474329,370.128022 294.986343,373.823985 292.010329,376.8 C289.034314,379.776015 285.338351,381.264 280.922329,381.264 L312.026329,381.264 C313.562336,381.264 314.810324,380.784005 315.770329,379.824 C316.730333,378.863995 317.210329,377.616008 317.210329,376.08 L317.210329,215.376 C317.210329,213.839992 317.690324,212.592005 318.650329,211.632 C319.610333,210.671995 320.858321,210.192 322.394329,210.192 L332.762329,210.192 C334.298336,210.192 335.546324,210.671995 336.506329,211.632 C337.466333,212.592005 337.946329,213.839992 337.946329,215.376 L337.946329,386.448 C337.946329,390.864022 336.458343,394.559985 333.482329,397.536 C330.506314,400.512015 326.810351,402 322.394329,402 L301.658329,402 C297.242307,402 293.546343,400.512015 290.570329,397.536 C287.594314,394.559985 286.106329,390.864022 286.106329,386.448 C286.106329,390.864022 284.618343,394.559985 281.642329,397.536 C278.666314,400.512015 274.970351,402 270.554329,402 L249.818329,402 C245.402307,402 241.706343,400.512015 238.730329,397.536 C235.754314,394.559985 234.266329,390.864022 234.266329,386.448 L234.266329,215.376 C234.266329,213.839992 234.746324,212.592005 235.706329,211.632 C236.666333,210.671995 237.914321,210.192 239.450329,210.192 L249.818329,210.192 C251.354336,210.192 252.602324,210.671995 253.562329,211.632 C254.522333,212.592005 255.002329,213.839992 255.002329,215.376 L255.002329,365.712 C255.002329,370.128022 253.514343,373.823985 250.538329,376.8 C247.562314,379.776015 243.866351,381.264 239.450329,381.264 L270.554329,381.264 C272.090336,381.264 273.338324,380.784005 274.298329,379.824 C275.258333,378.863995 275.738329,377.616008 275.738329,376.08 L275.738329,215.376 Z M358.682329,402 C357.146321,402 355.898333,401.520005 354.938329,400.56 C353.978324,399.599995 353.498329,398.352008 353.498329,396.816 L353.498329,215.376 C353.498329,213.839992 353.978324,212.592005 354.938329,211.632 C355.898333,210.671995 357.146321,210.192 358.682329,210.192 L369.050329,210.192 C370.586336,210.192 371.834324,210.671995 372.794329,211.632 C373.754333,212.592005 374.234329,213.839992 374.234329,215.376 L374.234329,396.816 C374.234329,398.352008 373.754333,399.599995 372.794329,400.56 C371.834324,401.520005 370.586336,402 369.050329,402 L358.682329,402 Z M436.442329,210.192 C440.858351,210.192 444.554314,211.679985 447.530329,214.656 C450.506343,217.632015 451.994329,221.327978 451.994329,225.744 L451.994329,386.448 C451.994329,390.864022 450.506343,394.559985 447.530329,397.536 C444.554314,400.512015 440.858351,402 436.442329,402 L394.970329,402 C393.434321,402 392.186333,401.520005 391.226329,400.56 C390.266324,399.599995 389.786329,398.352008 389.786329,396.816 L389.786329,215.376 C389.786329,213.839992 390.266324,212.592005 391.226329,211.632 C392.186333,210.671995 393.434321,210.192 394.970329,210.192 L436.442329,210.192 Z M431.258329,236.112 C431.258329,234.575992 430.778333,233.328005 429.818329,232.368 C428.858324,231.407995 427.610336,230.928 426.074329,230.928 L394.970329,230.928 C399.386351,230.928 403.082314,232.415985 406.058329,235.392 C409.034343,238.368015 410.522329,242.063978 410.522329,246.48 L410.522329,376.08 C410.522329,377.616008 411.002324,378.863995 411.962329,379.824 C412.922333,380.784005 414.170321,381.264 415.706329,381.264 L426.074329,381.264 C427.610336,381.264 428.858324,380.784005 429.818329,379.824 C430.778333,378.863995 431.258329,377.616008 431.258329,376.08 L431.258329,236.112 Z M483.098329,402 C478.682307,402 474.986343,400.512015 472.010329,397.536 C469.034314,394.559985 467.546329,390.864022 467.546329,386.448 L467.546329,225.744 C467.546329,221.327978 469.034314,217.632015 472.010329,214.656 C474.986343,211.679985 478.682307,210.192 483.098329,210.192 L524.570329,210.192 C526.106336,210.192 527.354324,210.671995 528.314329,211.632 C529.274333,212.592005 529.754329,213.839992 529.754329,215.376 L529.754329,225.744 C529.754329,227.280008 529.274333,228.527995 528.314329,229.488 C527.354324,230.448005 526.106336,230.928 524.570329,230.928 L472.730329,230.928 C477.146351,230.928 480.842314,232.415985 483.818329,235.392 C486.794343,238.368015 488.282329,242.063978 488.282329,246.48 L488.282329,303.504 C488.282329,305.040008 488.762324,306.287995 489.722329,307.248 C490.682333,308.208005 491.930321,308.688 493.466329,308.688 L503.834329,308.688 C505.370336,308.688 506.618324,309.167995 507.578329,310.128 C508.538333,311.088005 509.018329,312.335992 509.018329,313.872 L509.018329,324.24 C509.018329,325.776008 508.538333,327.023995 507.578329,327.984 C506.618324,328.944005 505.370336,329.424 503.834329,329.424 L472.730329,329.424 C477.146351,329.424 480.842314,330.911985 483.818329,333.888 C486.794343,336.864015 488.282329,340.559978 488.282329,344.976 L488.282329,376.08 C488.282329,377.616008 488.762324,378.863995 489.722329,379.824 C490.682333,380.784005 491.930321,381.264 493.466329,381.264 L524.570329,381.264 C526.106336,381.264 527.354324,381.743995 528.314329,382.704 C529.274333,383.664005 529.754329,384.911992 529.754329,386.448 L529.754329,396.816 C529.754329,398.352008 529.274333,399.599995 528.314329,400.56 C527.354324,401.520005 526.106336,402 524.570329,402 L483.098329,402 Z M47.6423286,420.192 C52.0583507,420.192 55.7543137,421.679985 58.7303286,424.656 C61.7063435,427.632015 63.1943286,431.327978 63.1943286,435.744 L63.1943286,456.48 C63.1943286,458.016008 62.7143334,459.263995 61.7543286,460.224 C60.7943238,461.184005 59.5463363,461.664 58.0103286,461.664 L47.6423286,461.664 C46.1063209,461.664 44.8583334,461.184005 43.8983286,460.224 C42.9383238,459.263995 42.4583286,458.016008 42.4583286,456.48 L42.4583286,446.112 C42.4583286,444.575992 41.9783334,443.328005 41.0183286,442.368 C40.0583238,441.407995 38.8103363,440.928 37.2743286,440.928 L6.17032861,440.928 C10.5863507,440.928 14.2823137,442.415985 17.2583286,445.392 C20.2343435,448.368015 21.7223286,452.063978 21.7223286,456.48 L21.7223286,492.768 C21.7223286,494.304008 22.2023238,495.551995 23.1623286,496.512 C24.1223334,497.472005 25.3703209,497.952 26.9063286,497.952 L47.6423286,497.952 C52.0583507,497.952 55.7543137,499.439985 58.7303286,502.416 C61.7063435,505.392015 63.1943286,509.087978 63.1943286,513.504 L63.1943286,596.448 C63.1943286,600.864022 61.7063435,604.559985 58.7303286,607.536 C55.7543137,610.512015 52.0583507,612 47.6423286,612 L16.5383286,612 C12.1223065,612 8.42634349,610.512015 5.45032861,607.536 C2.47431373,604.559985 0.986328612,600.864022 0.986328612,596.448 L0.986328612,575.712 C0.986328612,574.175992 1.46632381,572.928005 2.42632861,571.968 C3.38633341,571.007995 4.63432093,570.528 6.17032861,570.528 L16.5383286,570.528 C18.0743363,570.528 19.3223238,571.007995 20.2823286,571.968 C21.2423334,572.928005 21.7223286,574.175992 21.7223286,575.712 L21.7223286,586.08 C21.7223286,587.616008 22.2023238,588.863995 23.1623286,589.824 C24.1223334,590.784005 25.3703209,591.264 26.9063286,591.264 L37.2743286,591.264 C38.8103363,591.264 40.0583238,590.784005 41.0183286,589.824 C41.9783334,588.863995 42.4583286,587.616008 42.4583286,586.08 L42.4583286,523.872 C42.4583286,522.335992 41.9783334,521.088005 41.0183286,520.128 C40.0583238,519.167995 38.8103363,518.688 37.2743286,518.688 L16.5383286,518.688 C12.1223065,518.688 8.42634349,517.200015 5.45032861,514.224 C2.47431373,511.247985 0.986328612,507.552022 0.986328612,503.136 L0.986328612,435.744 C0.986328612,431.327978 2.47431373,427.632015 5.45032861,424.656 C8.42634349,421.679985 12.1223065,420.192 16.5383286,420.192 L47.6423286,420.192 Z M83.9303286,612 C82.3943209,612 81.1463334,611.520005 80.1863286,610.56 C79.2263238,609.599995 78.7463286,608.352008 78.7463286,606.816 L78.7463286,425.376 C78.7463286,423.839992 79.2263238,422.592005 80.1863286,421.632 C81.1463334,420.671995 82.3943209,420.192 83.9303286,420.192 L94.2983286,420.192 C95.8343363,420.192 97.0823238,420.671995 98.0423286,421.632 C99.0023334,422.592005 99.4823286,423.839992 99.4823286,425.376 L99.4823286,606.816 C99.4823286,608.352008 99.0023334,609.599995 98.0423286,610.56 C97.0823238,611.520005 95.8343363,612 94.2983286,612 L83.9303286,612 Z M115.034329,425.376 C115.034329,423.839992 115.514324,422.592005 116.474329,421.632 C117.434333,420.671995 118.682321,420.192 120.218329,420.192 L151.322329,420.192 C155.738351,420.192 159.434314,421.679985 162.410329,424.656 C165.386343,427.632015 166.874329,431.327978 166.874329,435.744 C166.874329,431.327978 168.362314,427.632015 171.338329,424.656 C174.314343,421.679985 178.010307,420.192 182.426329,420.192 L203.162329,420.192 C207.578351,420.192 211.274314,421.679985 214.250329,424.656 C217.226343,427.632015 218.714329,431.327978 218.714329,435.744 L218.714329,606.816 C218.714329,608.352008 218.234333,609.599995 217.274329,610.56 C216.314324,611.520005 215.066336,612 213.530329,612 L203.162329,612 C201.626321,612 200.378333,611.520005 199.418329,610.56 C198.458324,609.599995 197.978329,608.352008 197.978329,606.816 L197.978329,446.112 C197.978329,444.575992 197.498333,443.328005 196.538329,442.368 C195.578324,441.407995 194.330336,440.928 192.794329,440.928 L161.690329,440.928 C166.106351,440.928 169.802314,442.415985 172.778329,445.392 C175.754343,448.368015 177.242329,452.063978 177.242329,456.48 L177.242329,606.816 C177.242329,608.352008 176.762333,609.599995 175.802329,610.56 C174.842324,611.520005 173.594336,612 172.058329,612 L161.690329,612 C160.154321,612 158.906333,611.520005 157.946329,610.56 C156.986324,609.599995 156.506329,608.352008 156.506329,606.816 L156.506329,446.112 C156.506329,444.575992 156.026333,443.328005 155.066329,442.368 C154.106324,441.407995 152.858336,440.928 151.322329,440.928 L120.218329,440.928 C124.634351,440.928 128.330314,442.415985 131.306329,445.392 C134.282343,448.368015 135.770329,452.063978 135.770329,456.48 L135.770329,606.816 C135.770329,608.352008 135.290333,609.599995 134.330329,610.56 C133.370324,611.520005 132.122336,612 130.586329,612 L120.218329,612 C118.682321,612 117.434333,611.520005 116.474329,610.56 C115.514324,609.599995 115.034329,608.352008 115.034329,606.816 L115.034329,425.376 Z M249.818329,612 C245.402307,612 241.706343,610.512015 238.730329,607.536 C235.754314,604.559985 234.266329,600.864022 234.266329,596.448 L234.266329,435.744 C234.266329,431.327978 235.754314,427.632015 238.730329,424.656 C241.706343,421.679985 245.402307,420.192 249.818329,420.192 L280.922329,420.192 C285.338351,420.192 289.034314,421.679985 292.010329,424.656 C294.986343,427.632015 296.474329,431.327978 296.474329,435.744 L296.474329,456.48 C296.474329,458.016008 295.994333,459.263995 295.034329,460.224 C294.074324,461.184005 292.826336,461.664 291.290329,461.664 L280.922329,461.664 C279.386321,461.664 278.138333,461.184005 277.178329,460.224 C276.218324,459.263995 275.738329,458.016008 275.738329,456.48 L275.738329,446.112 C275.738329,444.575992 275.258333,443.328005 274.298329,442.368 C273.338324,441.407995 272.090336,440.928 270.554329,440.928 L239.450329,440.928 C243.866351,440.928 247.562314,442.415985 250.538329,445.392 C253.514343,448.368015 255.002329,452.063978 255.002329,456.48 L255.002329,586.08 C255.002329,587.616008 255.482324,588.863995 256.442329,589.824 C257.402333,590.784005 258.650321,591.264 260.186329,591.264 L270.554329,591.264 C272.090336,591.264 273.338324,590.784005 274.298329,589.824 C275.258333,588.863995 275.738329,587.616008 275.738329,586.08 L275.738329,575.712 C275.738329,574.175992 276.218324,572.928005 277.178329,571.968 C278.138333,571.007995 279.386321,570.528 280.922329,570.528 L291.290329,570.528 C292.826336,570.528 294.074324,571.007995 295.034329,571.968 C295.994333,572.928005 296.474329,574.175992 296.474329,575.712 L296.474329,596.448 C296.474329,600.864022 294.986343,604.559985 292.010329,607.536 C289.034314,610.512015 285.338351,612 280.922329,612 L249.818329,612 Z M358.682329,420.192 C363.098351,420.192 366.794314,421.679985 369.770329,424.656 C372.746343,427.632015 374.234329,431.327978 374.234329,435.744 L374.234329,606.816 C374.234329,608.352008 373.754333,609.599995 372.794329,610.56 C371.834324,611.520005 370.586336,612 369.050329,612 L358.682329,612 C357.146321,612 355.898333,611.520005 354.938329,610.56 C353.978324,609.599995 353.498329,608.352008 353.498329,606.816 L353.498329,544.608 C353.498329,543.071992 353.018333,541.824005 352.058329,540.864 C351.098324,539.903995 349.850336,539.424 348.314329,539.424 L317.210329,539.424 C321.626351,539.424 325.322314,540.911985 328.298329,543.888 C331.274343,546.864015 332.762329,550.559978 332.762329,554.976 L332.762329,606.816 C332.762329,608.352008 332.282333,609.599995 331.322329,610.56 C330.362324,611.520005 329.114336,612 327.578329,612 L317.210329,612 C315.674321,612 314.426333,611.520005 313.466329,610.56 C312.506324,609.599995 312.026329,608.352008 312.026329,606.816 L312.026329,435.744 C312.026329,431.327978 313.514314,427.632015 316.490329,424.656 C319.466343,421.679985 323.162307,420.192 327.578329,420.192 L358.682329,420.192 Z M353.498329,446.112 C353.498329,444.575992 353.018333,443.328005 352.058329,442.368 C351.098324,441.407995 349.850336,440.928 348.314329,440.928 L317.210329,440.928 C321.626351,440.928 325.322314,442.415985 328.298329,445.392 C331.274343,448.368015 332.762329,452.063978 332.762329,456.48 L332.762329,513.504 C332.762329,515.040008 333.242324,516.287995 334.202329,517.248 C335.162333,518.208005 336.410321,518.688 337.946329,518.688 L348.314329,518.688 C349.850336,518.688 351.098324,518.208005 352.058329,517.248 C353.018333,516.287995 353.498329,515.040008 353.498329,513.504 L353.498329,446.112 Z M451.994329,513.504 C451.994329,517.920022 450.506343,521.615985 447.530329,524.592 C444.554314,527.568015 440.858351,529.056 436.442329,529.056 C440.858351,529.056 444.554314,530.543985 447.530329,533.52 C450.506343,536.496015 451.994329,540.191978 451.994329,544.608 L451.994329,606.816 C451.994329,608.352008 451.514333,609.599995 450.554329,610.56 C449.594324,611.520005 448.346336,612 446.810329,612 L436.442329,612 C434.906321,612 433.658333,611.520005 432.698329,610.56 C431.738324,609.599995 431.258329,608.352008 431.258329,606.816 L431.258329,544.608 C431.258329,543.071992 430.778333,541.824005 429.818329,540.864 C428.858324,539.903995 427.610336,539.424 426.074329,539.424 L394.970329,539.424 C399.386351,539.424 403.082314,540.911985 406.058329,543.888 C409.034343,546.864015 410.522329,550.559978 410.522329,554.976 L410.522329,606.816 C410.522329,608.352008 410.042333,609.599995 409.082329,610.56 C408.122324,611.520005 406.874336,612 405.338329,612 L394.970329,612 C393.434321,612 392.186333,611.520005 391.226329,610.56 C390.266324,609.599995 389.786329,608.352008 389.786329,606.816 L389.786329,425.376 C389.786329,423.839992 390.266324,422.592005 391.226329,421.632 C392.186333,420.671995 393.434321,420.192 394.970329,420.192 L436.442329,420.192 C440.858351,420.192 444.554314,421.679985 447.530329,424.656 C450.506343,427.632015 451.994329,431.327978 451.994329,435.744 L451.994329,513.504 Z M431.258329,446.112 C431.258329,444.575992 430.778333,443.328005 429.818329,442.368 C428.858324,441.407995 427.610336,440.928 426.074329,440.928 L394.970329,440.928 C399.386351,440.928 403.082314,442.415985 406.058329,445.392 C409.034343,448.368015 410.522329,452.063978 410.522329,456.48 L410.522329,513.504 C410.522329,515.040008 411.002324,516.287995 411.962329,517.248 C412.922333,518.208005 414.170321,518.688 415.706329,518.688 L426.074329,518.688 C427.610336,518.688 428.858324,518.208005 429.818329,517.248 C430.778333,516.287995 431.258329,515.040008 431.258329,513.504 L431.258329,446.112 Z M514.202329,420.192 C518.618351,420.192 522.314314,421.679985 525.290329,424.656 C528.266343,427.632015 529.754329,431.327978 529.754329,435.744 L529.754329,596.448 C529.754329,600.864022 528.266343,604.559985 525.290329,607.536 C522.314314,610.512015 518.618351,612 514.202329,612 L472.730329,612 C471.194321,612 469.946333,611.520005 468.986329,610.56 C468.026324,609.599995 467.546329,608.352008 467.546329,606.816 L467.546329,425.376 C467.546329,423.839992 468.026324,422.592005 468.986329,421.632 C469.946333,420.671995 471.194321,420.192 472.730329,420.192 L514.202329,420.192 Z M509.018329,446.112 C509.018329,444.575992 508.538333,443.328005 507.578329,442.368 C506.618324,441.407995 505.370336,440.928 503.834329,440.928 L472.730329,440.928 C477.146351,440.928 480.842314,442.415985 483.818329,445.392 C486.794343,448.368015 488.282329,452.063978 488.282329,456.48 L488.282329,586.08 C488.282329,587.616008 488.762324,588.863995 489.722329,589.824 C490.682333,590.784005 491.930321,591.264 493.466329,591.264 L503.834329,591.264 C505.370336,591.264 506.618324,590.784005 507.578329,589.824 C508.538333,588.863995 509.018329,587.616008 509.018329,586.08 L509.018329,446.112 Z" id="path-1"></path>
    </defs>
    <g id="Page-1" stroke="none" stroke-width="1" fill="none" fill-rule="evenodd">
        <g id="WORLD-WIDE-SIMCARD-gray">
            <use fill="#2B2B2B" xlink:href="#path-1"></use>
            <use fill="#C9C9C9" xlink:href="#path-1"></use>
        </g>
    </g>
</svg>