<?xml version="1.0" encoding="UTF-8"?>
<svg width="590px" height="791px" viewBox="0 0 590 791" version="1.1" xmlns="http://www.w3.org/2000/svg" xmlns:xlink="http://www.w3.org/1999/xlink">
    <!-- Generator: Sketch 49.1 (51147) - http://www.bohemiancoding.com/sketch -->
    <title>WORLD WIDE MODEM Copy</title>
    <desc>Created with Sketch.</desc>
    <defs>
        <linearGradient x1="92.5964382%" y1="94.8159411%" x2="-47.6478884%" y2="-63.2685563%" id="linearGradient-1">
            <stop stop-color="#242424" offset="0%"></stop>
            <stop stop-color="#0F0F0F" offset="100%"></stop>
        </linearGradient>
    </defs>
    <g id="Website" stroke="none" stroke-width="1" fill="none" fill-rule="evenodd">
        <g id="home" transform="translate(-665.000000, -172.000000)" fill="url(#linearGradient-1)">
            <path d="M772.237408,178.702338 C772.237408,176.71645 772.857988,175.10294 774.099168,173.861761 C775.340348,172.620581 776.953858,172 778.939746,172 L792.344422,172 C794.33031,172 795.943819,172.620581 797.184999,173.861761 C798.426179,175.10294 799.04676,176.71645 799.04676,178.702338 L799.04676,373.07014 C799.04676,378.779567 797.12296,383.558038 793.275302,387.405696 C789.427644,391.253354 784.649173,393.177154 778.939746,393.177154 L819.153774,393.177154 C821.139662,393.177154 822.753171,392.556573 823.994351,391.315393 C825.235531,390.074213 825.856112,388.460703 825.856112,386.474816 L825.856112,178.702338 C825.856112,176.71645 826.476692,175.10294 827.717872,173.861761 C828.959052,172.620581 830.572562,172 832.55845,172 L845.963126,172 C847.949014,172 849.562523,172.620581 850.803703,173.861761 C852.044883,175.10294 852.665464,176.71645 852.665464,178.702338 L852.665464,399.879492 C852.665464,405.588919 850.741664,410.36739 846.894006,414.215048 C843.046348,418.062706 838.267877,419.986506 832.55845,419.986506 L805.749098,419.986506 C800.03967,419.986506 795.261199,418.062706 791.413542,414.215048 C787.565884,410.36739 785.642084,405.588919 785.642084,399.879492 C785.642084,405.588919 783.718284,410.36739 779.870626,414.215048 C776.022968,418.062706 771.244497,419.986506 765.53507,419.986506 L738.725718,419.986506 C733.01629,419.986506 728.237819,418.062706 724.390162,414.215048 C720.542504,410.36739 718.618704,405.588919 718.618704,399.879492 L718.618704,178.702338 C718.618704,176.71645 719.239285,175.10294 720.480464,173.861761 C721.721644,172.620581 723.335154,172 725.321042,172 L738.725718,172 C740.711606,172 742.325115,172.620581 743.566295,173.861761 C744.807475,175.10294 745.428056,176.71645 745.428056,178.702338 L745.428056,373.07014 C745.428056,378.779567 743.504256,383.558038 739.656598,387.405696 C735.80894,391.253354 731.030469,393.177154 725.321042,393.177154 L765.53507,393.177154 C767.520958,393.177154 769.134467,392.556573 770.375647,391.315393 C771.616827,390.074213 772.237408,388.460703 772.237408,386.474816 L772.237408,178.702338 Z M933.09352,172 C938.802947,172 943.581418,173.9238 947.429076,177.771458 C951.276734,181.619115 953.200534,186.397586 953.200534,192.107014 L953.200534,399.879492 C953.200534,405.588919 951.276734,410.36739 947.429076,414.215048 C943.581418,418.062706 938.802947,419.986506 933.09352,419.986506 L892.879492,419.986506 C887.170064,419.986506 882.391593,418.062706 878.543935,414.215048 C874.696278,410.36739 872.772478,405.588919 872.772478,399.879492 L872.772478,192.107014 C872.772478,186.397586 874.696278,181.619115 878.543935,177.771458 C882.391593,173.9238 887.170064,172 892.879492,172 L933.09352,172 Z M926.391182,205.51169 C926.391182,203.525802 925.770601,201.912292 924.529421,200.671113 C923.288241,199.429933 921.674731,198.809352 919.688844,198.809352 L879.474816,198.809352 C885.184243,198.809352 889.962714,200.733152 893.810372,204.58081 C897.65803,208.428467 899.58183,213.206938 899.58183,218.916366 L899.58183,386.474816 C899.58183,388.460703 900.20241,390.074213 901.44359,391.315393 C902.68477,392.556573 904.29828,393.177154 906.284168,393.177154 L919.688844,393.177154 C921.674731,393.177154 923.288241,392.556573 924.529421,391.315393 C925.770601,390.074213 926.391182,388.460703 926.391182,386.474816 L926.391182,205.51169 Z M1053.7356,292.642084 C1053.7356,298.351511 1051.8118,303.129982 1047.96415,306.97764 C1044.11649,310.825298 1039.33802,312.749098 1033.62859,312.749098 C1039.33802,312.749098 1044.11649,314.672898 1047.96415,318.520555 C1051.8118,322.368213 1053.7356,327.146684 1053.7356,332.856112 L1053.7356,413.284168 C1053.7356,415.270055 1053.11502,416.883565 1051.87384,418.124745 C1050.63266,419.365925 1049.01915,419.986506 1047.03327,419.986506 L1033.62859,419.986506 C1031.6427,419.986506 1030.02919,419.365925 1028.78801,418.124745 C1027.54683,416.883565 1026.92625,415.270055 1026.92625,413.284168 L1026.92625,332.856112 C1026.92625,330.870224 1026.30567,329.256714 1025.06449,328.015534 C1023.82331,326.774354 1022.2098,326.153774 1020.22391,326.153774 L980.009885,326.153774 C985.719313,326.153774 990.497784,328.077574 994.345442,331.925231 C998.193099,335.772889 1000.1169,340.55136 1000.1169,346.260788 L1000.1169,413.284168 C1000.1169,415.270055 999.496319,416.883565 998.255139,418.124745 C997.013959,419.365925 995.400449,419.986506 993.414561,419.986506 L980.009885,419.986506 C978.023998,419.986506 976.410488,419.365925 975.169308,418.124745 C973.928128,416.883565 973.307547,415.270055 973.307547,413.284168 L973.307547,178.702338 C973.307547,176.71645 973.928128,175.10294 975.169308,173.861761 C976.410488,172.620581 978.023998,172 980.009885,172 L1033.62859,172 C1039.33802,172 1044.11649,173.9238 1047.96415,177.771458 C1051.8118,181.619115 1053.7356,186.397586 1053.7356,192.107014 L1053.7356,292.642084 Z M1026.92625,205.51169 C1026.92625,203.525802 1026.30567,201.912292 1025.06449,200.671113 C1023.82331,199.429933 1022.2098,198.809352 1020.22391,198.809352 L980.009885,198.809352 C985.719313,198.809352 990.497784,200.733152 994.345442,204.58081 C998.193099,208.428467 1000.1169,213.206938 1000.1169,218.916366 L1000.1169,292.642084 C1000.1169,294.627972 1000.73748,296.241481 1001.97866,297.482661 C1003.21984,298.723841 1004.83335,299.344422 1006.81924,299.344422 L1020.22391,299.344422 C1022.2098,299.344422 1023.82331,298.723841 1025.06449,297.482661 C1026.30567,296.241481 1026.92625,294.627972 1026.92625,292.642084 L1026.92625,205.51169 Z M1073.84262,178.702338 C1073.84262,176.71645 1074.4632,175.10294 1075.70438,173.861761 C1076.94556,172.620581 1078.55907,172 1080.54496,172 L1093.94963,172 C1095.93552,172 1097.54903,172.620581 1098.79021,173.861761 C1100.03139,175.10294 1100.65197,176.71645 1100.65197,178.702338 L1100.65197,373.07014 C1100.65197,378.779567 1098.72817,383.558038 1094.88051,387.405696 C1091.03285,391.253354 1086.25438,393.177154 1080.54496,393.177154 L1147.56834,393.177154 C1149.55422,393.177154 1151.16773,393.797734 1152.40891,395.038914 C1153.65009,396.280094 1154.27067,397.893604 1154.27067,399.879492 L1154.27067,413.284168 C1154.27067,415.270055 1153.65009,416.883565 1152.40891,418.124745 C1151.16773,419.365925 1149.55422,419.986506 1147.56834,419.986506 L1093.94963,419.986506 C1088.2402,419.986506 1083.46173,418.062706 1079.61408,414.215048 C1075.76642,410.36739 1073.84262,405.588919 1073.84262,399.879492 L1073.84262,178.702338 Z M1234.69873,172 C1240.40816,172 1245.18663,173.9238 1249.03429,177.771458 C1252.88194,181.619115 1254.80574,186.397586 1254.80574,192.107014 L1254.80574,399.879492 C1254.80574,405.588919 1252.88194,410.36739 1249.03429,414.215048 C1245.18663,418.062706 1240.40816,419.986506 1234.69873,419.986506 L1181.08003,419.986506 C1179.09414,419.986506 1177.48063,419.365925 1176.23945,418.124745 C1174.99827,416.883565 1174.37769,415.270055 1174.37769,413.284168 L1174.37769,178.702338 C1174.37769,176.71645 1174.99827,175.10294 1176.23945,173.861761 C1177.48063,172.620581 1179.09414,172 1181.08003,172 L1234.69873,172 Z M1227.99639,205.51169 C1227.99639,203.525802 1227.37581,201.912292 1226.13463,200.671113 C1224.89345,199.429933 1223.27994,198.809352 1221.29405,198.809352 L1181.08003,198.809352 C1186.78945,198.809352 1191.56792,200.733152 1195.41558,204.58081 C1199.26324,208.428467 1201.18704,213.206938 1201.18704,218.916366 L1201.18704,386.474816 C1201.18704,388.460703 1201.80762,390.074213 1203.0488,391.315393 C1204.28998,392.556573 1205.90349,393.177154 1207.88938,393.177154 L1221.29405,393.177154 C1223.27994,393.177154 1224.89345,392.556573 1226.13463,391.315393 C1227.37581,390.074213 1227.99639,388.460703 1227.99639,386.474816 L1227.99639,205.51169 Z M926.391182,450.209085 C926.391182,448.223197 927.011762,446.609688 928.252942,445.368508 C929.494122,444.127328 931.107632,443.506747 933.09352,443.506747 L946.498196,443.506747 C948.484083,443.506747 950.097593,444.127328 951.338773,445.368508 C952.579953,446.609688 953.200534,448.223197 953.200534,450.209085 L953.200534,644.576887 C953.200534,650.286314 951.276734,655.064785 947.429076,658.912443 C943.581418,662.760101 938.802947,664.683901 933.09352,664.683901 L973.307547,664.683901 C975.293435,664.683901 976.906945,664.06332 978.148125,662.82214 C979.389305,661.58096 980.009885,659.967451 980.009885,657.981563 L980.009885,450.209085 C980.009885,448.223197 980.630466,446.609688 981.871646,445.368508 C983.112826,444.127328 984.726336,443.506747 986.712223,443.506747 L1000.1169,443.506747 C1002.10279,443.506747 1003.7163,444.127328 1004.95748,445.368508 C1006.19866,446.609688 1006.81924,448.223197 1006.81924,450.209085 L1006.81924,671.386239 C1006.81924,677.095666 1004.89544,681.874137 1001.04778,685.721795 C997.200122,689.569453 992.421651,691.493253 986.712223,691.493253 L959.902871,691.493253 C954.193444,691.493253 949.414973,689.569453 945.567315,685.721795 C941.719658,681.874137 939.795858,677.095666 939.795858,671.386239 C939.795858,677.095666 937.872058,681.874137 934.0244,685.721795 C930.176742,689.569453 925.398271,691.493253 919.688844,691.493253 L892.879492,691.493253 C887.170064,691.493253 882.391593,689.569453 878.543935,685.721795 C874.696278,681.874137 872.772478,677.095666 872.772478,671.386239 L872.772478,450.209085 C872.772478,448.223197 873.393058,446.609688 874.634238,445.368508 C875.875418,444.127328 877.488928,443.506747 879.474816,443.506747 L892.879492,443.506747 C894.865379,443.506747 896.478889,444.127328 897.720069,445.368508 C898.961249,446.609688 899.58183,448.223197 899.58183,450.209085 L899.58183,644.576887 C899.58183,650.286314 897.65803,655.064785 893.810372,658.912443 C889.962714,662.760101 885.184243,664.683901 879.474816,664.683901 L919.688844,664.683901 C921.674731,664.683901 923.288241,664.06332 924.529421,662.82214 C925.770601,661.58096 926.391182,659.967451 926.391182,657.981563 L926.391182,450.209085 Z M1033.62859,691.493253 C1031.6427,691.493253 1030.02919,690.872672 1028.78801,689.631492 C1027.54683,688.390312 1026.92625,686.776803 1026.92625,684.790915 L1026.92625,450.209085 C1026.92625,448.223197 1027.54683,446.609688 1028.78801,445.368508 C1030.02919,444.127328 1031.6427,443.506747 1033.62859,443.506747 L1047.03327,443.506747 C1049.01915,443.506747 1050.63266,444.127328 1051.87384,445.368508 C1053.11502,446.609688 1053.7356,448.223197 1053.7356,450.209085 L1053.7356,684.790915 C1053.7356,686.776803 1053.11502,688.390312 1051.87384,689.631492 C1050.63266,690.872672 1049.01915,691.493253 1047.03327,691.493253 L1033.62859,691.493253 Z M1134.16366,443.506747 C1139.87309,443.506747 1144.65156,445.430547 1148.49922,449.278205 C1152.34687,453.125863 1154.27067,457.904334 1154.27067,463.613761 L1154.27067,671.386239 C1154.27067,677.095666 1152.34687,681.874137 1148.49922,685.721795 C1144.65156,689.569453 1139.87309,691.493253 1134.16366,691.493253 L1080.54496,691.493253 C1078.55907,691.493253 1076.94556,690.872672 1075.70438,689.631492 C1074.4632,688.390312 1073.84262,686.776803 1073.84262,684.790915 L1073.84262,450.209085 C1073.84262,448.223197 1074.4632,446.609688 1075.70438,445.368508 C1076.94556,444.127328 1078.55907,443.506747 1080.54496,443.506747 L1134.16366,443.506747 Z M1127.46132,477.018437 C1127.46132,475.032549 1126.84074,473.41904 1125.59956,472.17786 C1124.35838,470.93668 1122.74487,470.316099 1120.75898,470.316099 L1080.54496,470.316099 C1086.25438,470.316099 1091.03285,472.239899 1094.88051,476.087557 C1098.72817,479.935215 1100.65197,484.713686 1100.65197,490.423113 L1100.65197,657.981563 C1100.65197,659.967451 1101.27255,661.58096 1102.51373,662.82214 C1103.75491,664.06332 1105.36842,664.683901 1107.35431,664.683901 L1120.75898,664.683901 C1122.74487,664.683901 1124.35838,664.06332 1125.59956,662.82214 C1126.84074,661.58096 1127.46132,659.967451 1127.46132,657.981563 L1127.46132,477.018437 Z M1194.4847,691.493253 C1188.77527,691.493253 1183.9968,689.569453 1180.14914,685.721795 C1176.30149,681.874137 1174.37769,677.095666 1174.37769,671.386239 L1174.37769,463.613761 C1174.37769,457.904334 1176.30149,453.125863 1180.14914,449.278205 C1183.9968,445.430547 1188.77527,443.506747 1194.4847,443.506747 L1248.1034,443.506747 C1250.08929,443.506747 1251.7028,444.127328 1252.94398,445.368508 C1254.18516,446.609688 1254.80574,448.223197 1254.80574,450.209085 L1254.80574,463.613761 C1254.80574,465.599649 1254.18516,467.213159 1252.94398,468.454339 C1251.7028,469.695519 1250.08929,470.316099 1248.1034,470.316099 L1181.08003,470.316099 C1186.78945,470.316099 1191.56792,472.239899 1195.41558,476.087557 C1199.26324,479.935215 1201.18704,484.713686 1201.18704,490.423113 L1201.18704,564.148831 C1201.18704,566.134719 1201.80762,567.748229 1203.0488,568.989408 C1204.28998,570.230588 1205.90349,570.851169 1207.88938,570.851169 L1221.29405,570.851169 C1223.27994,570.851169 1224.89345,571.47175 1226.13463,572.71293 C1227.37581,573.954109 1227.99639,575.567619 1227.99639,577.553507 L1227.99639,590.958183 C1227.99639,592.944071 1227.37581,594.55758 1226.13463,595.79876 C1224.89345,597.03994 1223.27994,597.660521 1221.29405,597.660521 L1181.08003,597.660521 C1186.78945,597.660521 1191.56792,599.584321 1195.41558,603.431979 C1199.26324,607.279636 1201.18704,612.058107 1201.18704,617.767535 L1201.18704,657.981563 C1201.18704,659.967451 1201.80762,661.58096 1203.0488,662.82214 C1204.28998,664.06332 1205.90349,664.683901 1207.88938,664.683901 L1248.1034,664.683901 C1250.08929,664.683901 1251.7028,665.304481 1252.94398,666.545661 C1254.18516,667.786841 1254.80574,669.400351 1254.80574,671.386239 L1254.80574,684.790915 C1254.80574,686.776803 1254.18516,688.390312 1252.94398,689.631492 C1251.7028,690.872672 1250.08929,691.493253 1248.1034,691.493253 L1194.4847,691.493253 Z M665,721.715832 C665,719.729945 665.620581,718.116435 666.861761,716.875255 C668.10294,715.634075 669.71645,715.013494 671.702338,715.013494 L711.916366,715.013494 C717.625793,715.013494 722.404264,716.937294 726.251922,720.784952 C730.09958,724.63261 732.02338,729.411081 732.02338,735.120508 C732.02338,729.411081 733.94718,724.63261 737.794838,720.784952 C741.642495,716.937294 746.420966,715.013494 752.130394,715.013494 L778.939746,715.013494 C784.649173,715.013494 789.427644,716.937294 793.275302,720.784952 C797.12296,724.63261 799.04676,729.411081 799.04676,735.120508 L799.04676,956.297662 C799.04676,958.28355 798.426179,959.89706 797.184999,961.138239 C795.943819,962.379419 794.33031,963 792.344422,963 L778.939746,963 C776.953858,963 775.340348,962.379419 774.099168,961.138239 C772.857988,959.89706 772.237408,958.28355 772.237408,956.297662 L772.237408,748.525184 C772.237408,746.539297 771.616827,744.925787 770.375647,743.684607 C769.134467,742.443427 767.520958,741.822846 765.53507,741.822846 L725.321042,741.822846 C731.030469,741.822846 735.80894,743.746646 739.656598,747.594304 C743.504256,751.441962 745.428056,756.220433 745.428056,761.92986 L745.428056,956.297662 C745.428056,958.28355 744.807475,959.89706 743.566295,961.138239 C742.325115,962.379419 740.711606,963 738.725718,963 L725.321042,963 C723.335154,963 721.721644,962.379419 720.480464,961.138239 C719.239285,959.89706 718.618704,958.28355 718.618704,956.297662 L718.618704,748.525184 C718.618704,746.539297 717.998123,744.925787 716.756943,743.684607 C715.515763,742.443427 713.902254,741.822846 711.916366,741.822846 L671.702338,741.822846 C677.411766,741.822846 682.190237,743.746646 686.037894,747.594304 C689.885552,751.441962 691.809352,756.220433 691.809352,761.92986 L691.809352,956.297662 C691.809352,958.28355 691.188771,959.89706 689.947591,961.138239 C688.706411,962.379419 687.092902,963 685.107014,963 L671.702338,963 C669.71645,963 668.10294,962.379419 666.861761,961.138239 C665.620581,959.89706 665,958.28355 665,956.297662 L665,721.715832 Z M879.474816,715.013494 C885.184243,715.013494 889.962714,716.937294 893.810372,720.784952 C897.65803,724.63261 899.58183,729.411081 899.58183,735.120508 L899.58183,942.892986 C899.58183,948.602414 897.65803,953.380885 893.810372,957.228542 C889.962714,961.0762 885.184243,963 879.474816,963 L839.260788,963 C833.55136,963 828.772889,961.0762 824.925231,957.228542 C821.077574,953.380885 819.153774,948.602414 819.153774,942.892986 L819.153774,735.120508 C819.153774,729.411081 821.077574,724.63261 824.925231,720.784952 C828.772889,716.937294 833.55136,715.013494 839.260788,715.013494 L879.474816,715.013494 Z M872.772478,748.525184 C872.772478,746.539297 872.151897,744.925787 870.910717,743.684607 C869.669537,742.443427 868.056028,741.822846 866.07014,741.822846 L825.856112,741.822846 C831.565539,741.822846 836.34401,743.746646 840.191668,747.594304 C844.039326,751.441962 845.963126,756.220433 845.963126,761.92986 L845.963126,929.48831 C845.963126,931.474198 846.583706,933.087708 847.824886,934.328887 C849.066066,935.570067 850.679576,936.190648 852.665464,936.190648 L866.07014,936.190648 C868.056028,936.190648 869.669537,935.570067 870.910717,934.328887 C872.151897,933.087708 872.772478,931.474198 872.772478,929.48831 L872.772478,748.525184 Z M980.009885,715.013494 C985.719313,715.013494 990.497784,716.937294 994.345442,720.784952 C998.193099,724.63261 1000.1169,729.411081 1000.1169,735.120508 L1000.1169,942.892986 C1000.1169,948.602414 998.193099,953.380885 994.345442,957.228542 C990.497784,961.0762 985.719313,963 980.009885,963 L926.391182,963 C924.405294,963 922.791784,962.379419 921.550604,961.138239 C920.309424,959.89706 919.688844,958.28355 919.688844,956.297662 L919.688844,721.715832 C919.688844,719.729945 920.309424,718.116435 921.550604,716.875255 C922.791784,715.634075 924.405294,715.013494 926.391182,715.013494 L980.009885,715.013494 Z M973.307547,748.525184 C973.307547,746.539297 972.686967,744.925787 971.445787,743.684607 C970.204607,742.443427 968.591097,741.822846 966.605209,741.822846 L926.391182,741.822846 C932.100609,741.822846 936.87908,743.746646 940.726738,747.594304 C944.574396,751.441962 946.498196,756.220433 946.498196,761.92986 L946.498196,929.48831 C946.498196,931.474198 947.118776,933.087708 948.359956,934.328887 C949.601136,935.570067 951.214646,936.190648 953.200534,936.190648 L966.605209,936.190648 C968.591097,936.190648 970.204607,935.570067 971.445787,934.328887 C972.686967,933.087708 973.307547,931.474198 973.307547,929.48831 L973.307547,748.525184 Z M1040.33093,963 C1034.6215,963 1029.84303,961.0762 1025.99537,957.228542 C1022.14771,953.380885 1020.22391,948.602414 1020.22391,942.892986 L1020.22391,735.120508 C1020.22391,729.411081 1022.14771,724.63261 1025.99537,720.784952 C1029.84303,716.937294 1034.6215,715.013494 1040.33093,715.013494 L1093.94963,715.013494 C1095.93552,715.013494 1097.54903,715.634075 1098.79021,716.875255 C1100.03139,718.116435 1100.65197,719.729945 1100.65197,721.715832 L1100.65197,735.120508 C1100.65197,737.106396 1100.03139,738.719906 1098.79021,739.961086 C1097.54903,741.202266 1095.93552,741.822846 1093.94963,741.822846 L1026.92625,741.822846 C1032.63568,741.822846 1037.41415,743.746646 1041.26181,747.594304 C1045.10947,751.441962 1047.03327,756.220433 1047.03327,761.92986 L1047.03327,835.655578 C1047.03327,837.641466 1047.65385,839.254976 1048.89503,840.496156 C1050.13621,841.737336 1051.74972,842.357916 1053.7356,842.357916 L1067.14028,842.357916 C1069.12617,842.357916 1070.73968,842.978497 1071.98086,844.219677 C1073.22204,845.460857 1073.84262,847.074366 1073.84262,849.060254 L1073.84262,862.46493 C1073.84262,864.450818 1073.22204,866.064328 1071.98086,867.305508 C1070.73968,868.546688 1069.12617,869.167268 1067.14028,869.167268 L1026.92625,869.167268 C1032.63568,869.167268 1037.41415,871.091068 1041.26181,874.938726 C1045.10947,878.786384 1047.03327,883.564855 1047.03327,889.274282 L1047.03327,929.48831 C1047.03327,931.474198 1047.65385,933.087708 1048.89503,934.328887 C1050.13621,935.570067 1051.74972,936.190648 1053.7356,936.190648 L1093.94963,936.190648 C1095.93552,936.190648 1097.54903,936.811229 1098.79021,938.052409 C1100.03139,939.293589 1100.65197,940.907098 1100.65197,942.892986 L1100.65197,956.297662 C1100.65197,958.28355 1100.03139,959.89706 1098.79021,961.138239 C1097.54903,962.379419 1095.93552,963 1093.94963,963 L1040.33093,963 Z M1120.75898,721.715832 C1120.75898,719.729945 1121.37956,718.116435 1122.62074,716.875255 C1123.86192,715.634075 1125.47543,715.013494 1127.46132,715.013494 L1167.67535,715.013494 C1173.38478,715.013494 1178.16325,716.937294 1182.01091,720.784952 C1185.85856,724.63261 1187.78236,729.411081 1187.78236,735.120508 C1187.78236,729.411081 1189.70616,724.63261 1193.55382,720.784952 C1197.40148,716.937294 1202.17995,715.013494 1207.88938,715.013494 L1234.69873,715.013494 C1240.40816,715.013494 1245.18663,716.937294 1249.03429,720.784952 C1252.88194,724.63261 1254.80574,729.411081 1254.80574,735.120508 L1254.80574,956.297662 C1254.80574,958.28355 1254.18516,959.89706 1252.94398,961.138239 C1251.7028,962.379419 1250.08929,963 1248.1034,963 L1234.69873,963 C1232.71284,963 1231.09933,962.379419 1229.85815,961.138239 C1228.61697,959.89706 1227.99639,958.28355 1227.99639,956.297662 L1227.99639,748.525184 C1227.99639,746.539297 1227.37581,744.925787 1226.13463,743.684607 C1224.89345,742.443427 1223.27994,741.822846 1221.29405,741.822846 L1181.08003,741.822846 C1186.78945,741.822846 1191.56792,743.746646 1195.41558,747.594304 C1199.26324,751.441962 1201.18704,756.220433 1201.18704,761.92986 L1201.18704,956.297662 C1201.18704,958.28355 1200.56646,959.89706 1199.32528,961.138239 C1198.0841,962.379419 1196.47059,963 1194.4847,963 L1181.08003,963 C1179.09414,963 1177.48063,962.379419 1176.23945,961.138239 C1174.99827,959.89706 1174.37769,958.28355 1174.37769,956.297662 L1174.37769,748.525184 C1174.37769,746.539297 1173.75711,744.925787 1172.51593,743.684607 C1171.27475,742.443427 1169.66124,741.822846 1167.67535,741.822846 L1127.46132,741.822846 C1133.17075,741.822846 1137.94922,743.746646 1141.79688,747.594304 C1145.64454,751.441962 1147.56834,756.220433 1147.56834,761.92986 L1147.56834,956.297662 C1147.56834,958.28355 1146.94775,959.89706 1145.70657,961.138239 C1144.46539,962.379419 1142.85189,963 1140.866,963 L1127.46132,963 C1125.47543,963 1123.86192,962.379419 1122.62074,961.138239 C1121.37956,959.89706 1120.75898,958.28355 1120.75898,956.297662 L1120.75898,721.715832 Z" id="WORLD-WIDE-MODEM-Copy"></path>
        </g>
    </g>
</svg>